<?xml version="1.0" encoding="UTF-8"?>
<!DOCTYPE svg PUBLIC "-//W3C//DTD SVG 1.1//EN" "http://www.w3.org/Graphics/SVG/1.1/DTD/svg11.dtd">
<svg xmlns="http://www.w3.org/2000/svg" version="1.1" width="48px" height="48px" style="shape-rendering:geometricPrecision; text-rendering:geometricPrecision; image-rendering:optimizeQuality; fill-rule:evenodd; clip-rule:evenodd" xmlns:xlink="http://www.w3.org/1999/xlink">
<g><path style="opacity:0.994" fill="#7a1092" d="M 16.5,-0.5 C 21.1667,-0.5 25.8333,-0.5 30.5,-0.5C 35.017,0.931878 38.6837,3.59854 41.5,7.5C 40.8333,7.5 40.1667,7.5 39.5,7.5C 32.8949,4.7932 30.2282,6.7932 31.5,13.5C 32.8498,14.9501 34.5165,15.6168 36.5,15.5C 36.5,16.1667 36.5,16.8333 36.5,17.5C 35.0047,17.4148 34.0047,18.0815 33.5,19.5C 34.3742,21.7466 34.7076,24.0799 34.5,26.5C 31.1667,26.5 27.8333,26.5 24.5,26.5C 24.2924,24.0799 24.6258,21.7466 25.5,19.5C 24.1667,16.8333 22.8333,16.8333 21.5,19.5C 22.3742,21.7466 22.7076,24.0799 22.5,26.5C 19.1667,26.5 15.8333,26.5 12.5,26.5C 12.2436,24.2075 12.5769,22.0408 13.5,20C 12.9221,18.583 11.9221,17.7496 10.5,17.5C 10.5,16.8333 10.5,16.1667 10.5,15.5C 16.3053,14.7239 17.6386,11.8906 14.5,7C 12.5273,6.50454 10.5273,6.33788 8.5,6.5C 7.83333,6.5 7.16667,6.5 6.5,6.5C 9.16821,3.17006 12.5015,0.836728 16.5,-0.5 Z"/></g>
<g><path style="opacity:1" fill="#f0e3f3" d="M 8.5,6.5 C 10.5273,6.33788 12.5273,6.50454 14.5,7C 17.6386,11.8906 16.3053,14.7239 10.5,15.5C 6.21915,13.373 5.55249,10.373 8.5,6.5 Z"/></g>
<g><path style="opacity:1" fill="#f3e9f5" d="M 39.5,7.5 C 41.243,11.1946 40.243,13.8613 36.5,15.5C 34.5165,15.6168 32.8498,14.9501 31.5,13.5C 30.2282,6.7932 32.8949,4.7932 39.5,7.5 Z"/></g>
<g><path style="opacity:0.987" fill="#76088e" d="M 6.5,6.5 C 7.16667,6.5 7.83333,6.5 8.5,6.5C 5.55249,10.373 6.21915,13.373 10.5,15.5C 10.5,16.1667 10.5,16.8333 10.5,17.5C 8.69552,27.6748 13.0289,31.3415 23.5,28.5C 33.9711,31.3415 38.3045,27.6748 36.5,17.5C 36.5,16.8333 36.5,16.1667 36.5,15.5C 40.243,13.8613 41.243,11.1946 39.5,7.5C 40.1667,7.5 40.8333,7.5 41.5,7.5C 44.2564,10.0177 46.2564,13.0177 47.5,16.5C 47.5,21.1667 47.5,25.8333 47.5,30.5C 44.1667,38.5 38.5,44.1667 30.5,47.5C 25.8333,47.5 21.1667,47.5 16.5,47.5C 8.5,44.1667 2.83333,38.5 -0.5,30.5C -0.5,25.8333 -0.5,21.1667 -0.5,16.5C 0.836728,12.5015 3.17006,9.16821 6.5,6.5 Z"/></g>
<g><path style="opacity:1" fill="#f4ebf6" d="M 20.5,6.5 C 27.7161,5.68795 29.7161,8.35462 26.5,14.5C 19.1489,15.7919 17.1489,13.1253 20.5,6.5 Z"/></g>
<g><path style="opacity:1" fill="#a250b3" d="M 36.5,11.5 C 33.1394,10.7968 32.8061,9.46349 35.5,7.5C 38.0278,8.49781 38.0278,9.33115 35.5,10C 36.056,10.3826 36.3893,10.8826 36.5,11.5 Z"/></g>
<g><path style="opacity:1" fill="#a85eb8" d="M 10.5,7.5 C 14.3258,8.47961 14.3258,9.31294 10.5,10C 13.1667,10.6667 13.1667,11.3333 10.5,12C 12.9316,13.0875 12.5983,13.5875 9.5,13.5C 9.32526,11.3792 9.65859,9.3792 10.5,7.5 Z"/></g>
<g><path style="opacity:1" fill="#bb7fc7" d="M 22.5,7.5 C 26.3258,8.47961 26.3258,9.31294 22.5,10C 25.8175,11.0852 26.1508,12.5852 23.5,14.5C 21.2395,12.5165 20.9061,10.1831 22.5,7.5 Z"/></g>
<g><path style="opacity:1" fill="#ae69bc" d="M 36.5,11.5 C 37.7375,12.7434 37.4041,13.7434 35.5,14.5C 35.1667,14.1667 34.8333,13.8333 34.5,13.5C 35.2427,12.8182 35.9094,12.1515 36.5,11.5 Z"/></g>
<g><path style="opacity:1" fill="#eedef1" d="M 10.5,17.5 C 11.9221,17.7496 12.9221,18.583 13.5,20C 12.5769,22.0408 12.2436,24.2075 12.5,26.5C 15.8333,26.5 19.1667,26.5 22.5,26.5C 22.7076,24.0799 22.3742,21.7466 21.5,19.5C 22.8333,16.8333 24.1667,16.8333 25.5,19.5C 24.6258,21.7466 24.2924,24.0799 24.5,26.5C 27.8333,26.5 31.1667,26.5 34.5,26.5C 34.7076,24.0799 34.3742,21.7466 33.5,19.5C 34.0047,18.0815 35.0047,17.4148 36.5,17.5C 38.3045,27.6748 33.9711,31.3415 23.5,28.5C 13.0289,31.3415 8.69552,27.6748 10.5,17.5 Z"/></g>
<g><path style="opacity:1" fill="#f1e4f3" d="M 17.5,29.5 C 20.1667,29.5 22.8333,29.5 25.5,29.5C 25.5,30.5 25.5,31.5 25.5,32.5C 23.4727,32.3379 21.4727,32.5045 19.5,33C 23.5631,34.0946 27.0631,33.2613 30,30.5C 30.8333,30.8333 31.6667,31.1667 32.5,31.5C 29.9783,33.856 27.3116,36.0227 24.5,38C 22.1667,38.6667 19.8333,38.6667 17.5,38C 16.0158,36.4263 14.3492,35.093 12.5,34C 14.2395,32.483 15.9062,30.983 17.5,29.5 Z"/></g>
<g><path style="opacity:1" fill="#f7eff8" d="M 10.5,35.5 C 13.3721,35.6354 14.8721,36.9688 15,39.5C 12.7088,40.3106 10.8754,39.4772 9.5,37C 10.056,36.6174 10.3893,36.1174 10.5,35.5 Z"/></g>
</svg>
