<?xml version="1.0" encoding="UTF-8"?>
<!DOCTYPE svg PUBLIC "-//W3C//DTD SVG 1.1//EN" "http://www.w3.org/Graphics/SVG/1.1/DTD/svg11.dtd">
<svg xmlns="http://www.w3.org/2000/svg" version="1.1" width="378px" height="265px" style="shape-rendering:geometricPrecision; text-rendering:geometricPrecision; image-rendering:optimizeQuality; fill-rule:evenodd; clip-rule:evenodd" xmlns:xlink="http://www.w3.org/1999/xlink">
<g><path style="opacity:0.993" fill="#bdbae9" d="M 115.5,110.5 C 115.167,110.5 114.833,110.5 114.5,110.5C 114.44,109.957 114.107,109.624 113.5,109.5C 112.738,110.628 112.071,111.795 111.5,113C 105.96,114.812 100.293,115.979 94.5,116.5C 94.67,115.178 94.3366,114.011 93.5,113C 90.366,112.21 87.366,112.543 84.5,114C 79.9463,117.887 76.1129,122.387 73,127.5C 73.6982,120.368 75.1982,113.368 77.5,106.5C 76.8333,105.167 76.1667,105.167 75.5,106.5C 71.1595,122.531 66.8262,138.531 62.5,154.5C 60.6096,154.703 59.1096,154.037 58,152.5C 57.1764,149.215 56.6764,145.882 56.5,142.5C 57.7313,130.68 59.7313,119.013 62.5,107.5C 59.0406,108.436 56.2072,110.436 54,113.5C 51.1667,117.833 48.3333,122.167 45.5,126.5C 41.5888,126.692 37.5888,126.859 33.5,127C 32.944,127.383 32.6107,127.883 32.5,128.5C 31.8333,128.5 31.5,128.833 31.5,129.5C 30.6236,129.631 29.9569,129.298 29.5,128.5C 40.2803,114.552 52.6136,102.052 66.5,91C 68.8098,90.5034 71.1432,90.3367 73.5,90.5C 73.607,92.9032 72.607,94.7365 70.5,96C 74.402,94.6352 78.2353,92.8019 82,90.5C 85.5993,92.4292 88.9326,94.7625 92,97.5C 95.5946,95.5441 99.428,95.0441 103.5,96C 104.264,98.0693 104.764,100.236 105,102.5C 107.795,100.707 110.295,98.5402 112.5,96C 116.922,95.8877 119.922,98.0543 121.5,102.5C 119.966,105.593 117.966,108.26 115.5,110.5 Z"/></g>
<g><path style="opacity:0.616" fill="#c9f6f6" d="M 136.5,110.5 C 133.5,110.5 130.5,110.5 127.5,110.5C 128.514,109.235 130.014,108.569 132,108.5C 133.986,108.569 135.486,109.235 136.5,110.5 Z"/></g>
<g><path style="opacity:1" fill="#b7d1db" d="M 125.5,110.5 C 122.335,111.322 119.002,111.989 115.5,112.5C 113.582,112.139 113.249,111.472 114.5,110.5C 114.833,110.5 115.167,110.5 115.5,110.5C 118.969,109.3 122.302,109.3 125.5,110.5 Z"/></g>
<g><path style="opacity:0.718" fill="#afd2d3" d="M 135.5,112.5 C 134.848,113.725 133.681,114.392 132,114.5C 130.615,114.486 129.449,114.152 128.5,113.5C 130.607,112.532 132.941,112.198 135.5,112.5 Z"/></g>
<g><path style="opacity:0.986" fill="#bebcea" d="M 126.5,113.5 C 126.179,115.048 125.179,115.715 123.5,115.5C 123.66,117.199 123.494,118.866 123,120.5C 119.276,123.994 117.276,128.327 117,133.5C 114.893,138.06 112.06,142.06 108.5,145.5C 107.833,145.833 107.167,146.167 106.5,146.5C 108.451,136.127 110.618,125.794 113,115.5C 117.362,114.139 121.862,113.472 126.5,113.5 Z"/></g>
<g><path style="opacity:0.825" fill="#c6fcfd" d="M 154.5,119.5 C 153.5,119.5 152.5,119.5 151.5,119.5C 152.204,117.656 153.537,117.156 155.5,118C 154.944,118.383 154.611,118.883 154.5,119.5 Z"/></g>
<g><path style="opacity:0.4" fill="#c5f9fa" d="M 188.5,118.5 C 185.038,119.482 181.371,119.815 177.5,119.5C 178.871,118.213 180.705,117.547 183,117.5C 185.033,117.506 186.866,117.839 188.5,118.5 Z"/></g>
<g><path style="opacity:0.516" fill="#c2f6f7" d="M 308.5,119.5 C 307.5,119.5 306.5,119.5 305.5,119.5C 306.5,116.833 307.5,116.833 308.5,119.5 Z"/></g>
<g><path style="opacity:0.325" fill="#c3f6f6" d="M 344.5,119.5 C 344.167,119.5 343.833,119.5 343.5,119.5C 339.833,119.5 336.167,119.5 332.5,119.5C 332.611,118.883 332.944,118.383 333.5,118C 335.333,117.833 337.167,117.667 339,117.5C 341.295,117.547 343.129,118.213 344.5,119.5 Z"/></g>
<g><path style="opacity:1" fill="#c0f3f4" d="M 219.5,126.5 C 219.33,123.796 217.997,122.129 215.5,121.5C 215.082,120.778 214.416,120.278 213.5,120C 209.514,119.501 205.514,119.334 201.5,119.5C 210.144,115.557 216.811,117.39 221.5,125C 221.164,126.03 220.497,126.53 219.5,126.5 Z"/></g>
<g><path style="opacity:1" fill="#bef2f3" d="M 245.5,121.5 C 240.265,119.55 234.598,118.883 228.5,119.5C 228.918,118.778 229.584,118.278 230.5,118C 235.5,117.333 240.5,117.333 245.5,118C 247.927,119.554 247.927,120.721 245.5,121.5 Z"/></g>
<g><path style="opacity:1" fill="#bef2f3" d="M 296.5,121.5 C 291.604,119.554 286.271,118.887 280.5,119.5C 282.743,118.188 285.41,117.522 288.5,117.5C 291.167,117.667 293.833,117.833 296.5,118C 298.927,119.554 298.927,120.721 296.5,121.5 Z"/></g>
<g><path style="opacity:0.592" fill="#bff4f6" d="M 325.5,119.5 C 324.833,119.5 324.167,119.5 323.5,119.5C 324.167,116.833 324.833,116.833 325.5,119.5 Z"/></g>
<g><path style="opacity:1" fill="#3e5051" d="M 126.5,120.5 C 126.5,120.167 126.5,119.833 126.5,119.5C 131.875,119.172 137.208,119.505 142.5,120.5C 138.217,121.492 133.884,121.826 129.5,121.5C 128.791,120.596 127.791,120.263 126.5,120.5 Z"/></g>
<g><path style="opacity:1" fill="#415455" d="M 228.5,120.5 C 228.5,120.167 228.5,119.833 228.5,119.5C 234.598,118.883 240.265,119.55 245.5,121.5C 241.167,121.5 236.833,121.5 232.5,121.5C 231.432,120.566 230.099,120.232 228.5,120.5 Z"/></g>
<g><path style="opacity:1" fill="#405253" d="M 280.5,120.5 C 280.5,120.167 280.5,119.833 280.5,119.5C 286.271,118.887 291.604,119.554 296.5,121.5C 292.167,121.5 287.833,121.5 283.5,121.5C 282.791,120.596 281.791,120.263 280.5,120.5 Z"/></g>
<g><path style="opacity:1" fill="#2c3838" d="M 126.5,120.5 C 127.791,120.263 128.791,120.596 129.5,121.5C 129.5,125.5 129.5,129.5 129.5,133.5C 133.649,132.92 137.316,133.586 140.5,135.5C 137.5,135.5 134.5,135.5 131.5,135.5C 130.213,136.871 129.547,138.705 129.5,141C 129.547,143.295 130.213,145.129 131.5,146.5C 135.514,146.334 139.514,146.501 143.5,147C 144.252,147.671 144.586,148.504 144.5,149.5C 138.5,149.5 132.5,149.5 126.5,149.5C 126.5,139.833 126.5,130.167 126.5,120.5 Z"/></g>
<g><path style="opacity:0.991" fill="#191f1f" d="M 151.5,119.5 C 152.5,119.5 153.5,119.5 154.5,119.5C 154.833,119.5 155.167,119.5 155.5,119.5C 155.491,121.308 155.991,122.975 157,124.5C 158.572,127.107 160.406,129.441 162.5,131.5C 162.273,133.933 163.273,135.599 165.5,136.5C 165.183,139.534 166.183,140.534 168.5,139.5C 168.5,138.833 168.167,138.5 167.5,138.5C 167.5,138.167 167.5,137.833 167.5,137.5C 167.5,131.833 167.5,126.167 167.5,120.5C 168.827,124.783 169.493,129.449 169.5,134.5C 169.493,139.551 168.827,144.217 167.5,148.5C 163.195,140.517 158.862,132.517 154.5,124.5C 154.44,123.957 154.107,123.624 153.5,123.5C 152.668,131.813 152.168,140.147 152,148.5C 151.5,139.506 151.334,130.506 151.5,121.5C 151.5,120.833 151.5,120.167 151.5,119.5 Z"/></g>
<g><path style="opacity:1" fill="#b5e0e0" d="M 177.5,119.5 C 177.5,129.5 177.5,139.5 177.5,149.5C 176.172,144.881 175.506,139.881 175.5,134.5C 175.506,129.119 176.172,124.119 177.5,119.5 Z"/></g>
<g><path style="opacity:0.976" fill="#1e2626" d="M 228.5,120.5 C 230.099,120.232 231.432,120.566 232.5,121.5C 232.5,122.167 232.5,122.833 232.5,123.5C 232.5,126.167 232.5,128.833 232.5,131.5C 232.5,132.167 232.5,132.833 232.5,133.5C 232.833,134.167 233.167,134.833 233.5,135.5C 232.833,135.5 232.5,135.833 232.5,136.5C 232.5,136.833 232.5,137.167 232.5,137.5C 232.5,140.167 232.5,142.833 232.5,145.5C 236.715,147.436 241.381,148.103 246.5,147.5C 240.926,149.453 234.926,150.12 228.5,149.5C 228.5,139.833 228.5,130.167 228.5,120.5 Z"/></g>
<g><path style="opacity:0.968" fill="#181e1e" d="M 280.5,120.5 C 281.791,120.263 282.791,120.596 283.5,121.5C 283.5,122.167 283.5,122.833 283.5,123.5C 284.833,126.167 284.833,128.833 283.5,131.5C 286.684,133.414 290.351,134.08 294.5,133.5C 291.663,135.402 288.329,136.069 284.5,135.5C 283.662,135.842 283.328,136.508 283.5,137.5C 284.833,140.167 284.833,142.833 283.5,145.5C 287.715,147.436 292.381,148.103 297.5,147.5C 292.025,148.489 286.358,148.822 280.5,148.5C 280.5,139.167 280.5,129.833 280.5,120.5 Z"/></g>
<g><path style="opacity:1" fill="#b8dfdf" d="M 126.5,119.5 C 126.5,119.833 126.5,120.167 126.5,120.5C 126.5,130.167 126.5,139.833 126.5,149.5C 125.172,144.881 124.506,139.881 124.5,134.5C 124.506,129.119 125.172,124.119 126.5,119.5 Z"/></g>
<g><path style="opacity:1" fill="#2c3939" d="M 201.5,119.5 C 205.514,119.334 209.514,119.501 213.5,120C 214.416,120.278 215.082,120.778 215.5,121.5C 214.833,121.5 214.5,121.833 214.5,122.5C 211.272,121.586 207.939,121.253 204.5,121.5C 204.44,120.957 204.107,120.624 203.5,120.5C 202.335,129.816 202.168,139.149 203,148.5C 203.175,143.981 203.675,139.647 204.5,135.5C 204.5,140.167 204.5,144.833 204.5,149.5C 203.5,149.5 202.5,149.5 201.5,149.5C 201.5,139.5 201.5,129.5 201.5,119.5 Z"/></g>
<g><path style="opacity:0.627" fill="#b2e1e3" d="M 232.5,121.5 C 236.833,121.5 241.167,121.5 245.5,121.5C 241.307,122.283 236.973,122.949 232.5,123.5C 232.5,122.833 232.5,122.167 232.5,121.5 Z"/></g>
<g><path style="opacity:0.627" fill="#b8e9eb" d="M 283.5,121.5 C 287.833,121.5 292.167,121.5 296.5,121.5C 292.307,122.283 287.973,122.949 283.5,123.5C 283.5,122.833 283.5,122.167 283.5,121.5 Z"/></g>
<g><path style="opacity:1" fill="#a6cfd0" d="M 167.5,149.5 C 167.5,149.167 167.5,148.833 167.5,148.5C 168.827,144.217 169.493,139.551 169.5,134.5C 169.493,129.449 168.827,124.783 167.5,120.5C 167.633,117.104 168.633,116.771 170.5,119.5C 171.833,129.5 171.833,139.5 170.5,149.5C 169.12,151.977 168.12,151.977 167.5,149.5 Z"/></g>
<g><path style="opacity:1" fill="#222b2c" d="M 188.5,118.5 C 189.167,118.5 189.833,118.5 190.5,118.5C 192.372,121.207 194.039,124.041 195.5,127C 194.805,131.194 192.471,134.028 188.5,135.5C 186.5,135.5 184.5,135.5 182.5,135.5C 180.564,139.715 179.897,144.381 180.5,149.5C 179.5,149.5 178.5,149.5 177.5,149.5C 177.5,139.5 177.5,129.5 177.5,119.5C 181.371,119.815 185.038,119.482 188.5,118.5 Z M 182.5,122.5 C 189.653,122.117 191.653,124.951 188.5,131C 186.527,131.495 184.527,131.662 182.5,131.5C 182.5,128.5 182.5,125.5 182.5,122.5 Z"/></g>
<g><path style="opacity:1" fill="#bef1f2" d="M 201.5,119.5 C 201.5,129.5 201.5,139.5 201.5,149.5C 200.172,144.881 199.506,139.881 199.5,134.5C 199.506,129.119 200.172,124.119 201.5,119.5 Z"/></g>
<g><path style="opacity:0.678" fill="#324141" d="M 332.5,119.5 C 336.167,119.5 339.833,119.5 343.5,119.5C 343.167,120.167 342.833,120.833 342.5,121.5C 340.5,121.5 338.5,121.5 336.5,121.5C 335.791,120.596 334.791,120.263 333.5,120.5C 333.827,129.682 333.493,138.682 332.5,147.5C 332.5,138.167 332.5,128.833 332.5,119.5 Z"/></g>
<g><path style="opacity:0.352" fill="#c4f2f2" d="M 140.5,135.5 C 137.316,133.586 133.649,132.92 129.5,133.5C 129.5,129.5 129.5,125.5 129.5,121.5C 133.884,121.826 138.217,121.492 142.5,120.5C 137.208,119.505 131.875,119.172 126.5,119.5C 128.915,118.186 131.748,117.519 135,117.5C 137.833,117.833 140.667,118.167 143.5,118.5C 144.711,119.72 144.711,120.887 143.5,122C 139.514,122.499 135.514,122.666 131.5,122.5C 131.5,125.5 131.5,128.5 131.5,131.5C 134.518,131.335 137.518,131.502 140.5,132C 142.927,133.554 142.927,134.721 140.5,135.5 Z"/></g>
<g><path style="opacity:1" fill="#161a1b" d="M 204.5,121.5 C 204.5,125.5 204.5,129.5 204.5,133.5C 207.518,133.665 210.518,133.498 213.5,133C 215.141,131.871 216.141,130.371 216.5,128.5C 216.5,127.833 216.5,127.167 216.5,126.5C 216.267,124.938 215.6,123.605 214.5,122.5C 214.5,121.833 214.833,121.5 215.5,121.5C 217.997,122.129 219.33,123.796 219.5,126.5C 219.5,127.167 219.5,127.833 219.5,128.5C 218.181,131.819 215.848,134.152 212.5,135.5C 215,139.167 217.5,142.833 220,146.5C 220.688,147.332 220.521,147.998 219.5,148.5C 215.627,144.791 212.294,140.624 209.5,136C 207.866,135.506 206.199,135.34 204.5,135.5C 203.675,139.647 203.175,143.981 203,148.5C 202.168,139.149 202.335,129.816 203.5,120.5C 204.107,120.624 204.44,120.957 204.5,121.5 Z M 216.5,126.5 C 216.5,127.167 216.5,127.833 216.5,128.5C 215.078,128.75 214.078,129.583 213.5,131C 211.19,131.497 208.857,131.663 206.5,131.5C 206.5,128.5 206.5,125.5 206.5,122.5C 210.594,122.222 213.928,123.556 216.5,126.5 Z"/></g>
<g><path style="opacity:0.965" fill="#c6f1f2" d="M 204.5,121.5 C 207.939,121.253 211.272,121.586 214.5,122.5C 215.6,123.605 216.267,124.938 216.5,126.5C 213.928,123.556 210.594,122.222 206.5,122.5C 206.5,125.5 206.5,128.5 206.5,131.5C 208.857,131.663 211.19,131.497 213.5,131C 214.078,129.583 215.078,128.75 216.5,128.5C 216.141,130.371 215.141,131.871 213.5,133C 210.518,133.498 207.518,133.665 204.5,133.5C 204.5,129.5 204.5,125.5 204.5,121.5 Z"/></g>
<g><path style="opacity:1" fill="#abd0d0" d="M 254.5,119.5 C 254.173,129.348 254.506,139.014 255.5,148.5C 255.5,149.167 255.5,149.833 255.5,150.5C 254.85,150.196 254.183,149.863 253.5,149.5C 253.167,144.5 252.833,139.5 252.5,134.5C 252.506,129.119 253.172,124.119 254.5,119.5 Z"/></g>
<g><path style="opacity:0.55" fill="#c8eded" d="M 180.5,121.5 C 188.81,119.337 192.644,122.337 192,130.5C 188.673,133.154 184.839,134.154 180.5,133.5C 180.5,129.5 180.5,125.5 180.5,121.5 Z M 182.5,122.5 C 182.5,125.5 182.5,128.5 182.5,131.5C 184.527,131.662 186.527,131.495 188.5,131C 191.653,124.951 189.653,122.117 182.5,122.5 Z"/></g>
<g><path style="opacity:1" fill="#8eb6b8" d="M 151.5,121.5 C 151.334,130.506 151.5,139.506 152,148.5C 152.168,140.147 152.668,131.813 153.5,123.5C 154.107,123.624 154.44,123.957 154.5,124.5C 153.507,132.65 153.174,140.983 153.5,149.5C 152.905,152.113 152.071,152.113 151,149.5C 150.176,139.991 150.342,130.657 151.5,121.5 Z"/></g>
<g><path style="opacity:1" fill="#bce2e3" d="M 155.5,119.5 C 157.485,119.859 158.151,120.692 157.5,122C 159.829,124.826 161.496,127.992 162.5,131.5C 160.406,129.441 158.572,127.107 157,124.5C 155.991,122.975 155.491,121.308 155.5,119.5 Z"/></g>
<g><path style="opacity:0.984" fill="#151b1b" d="M 32.5,128.5 C 32.8333,129.833 33.1667,131.167 33.5,132.5C 33.1667,132.5 32.8333,132.5 32.5,132.5C 32.1667,131.833 31.8333,131.167 31.5,130.5C 31.5,130.167 31.5,129.833 31.5,129.5C 31.5,128.833 31.8333,128.5 32.5,128.5 Z"/></g>
<g><path style="opacity:0.134" fill="#c5f7f8" d="M 154.5,124.5 C 158.862,132.517 163.195,140.517 167.5,148.5C 167.5,148.833 167.5,149.167 167.5,149.5C 166.624,149.631 165.957,149.298 165.5,148.5C 164.636,146.038 163.303,143.871 161.5,142C 161.833,141.667 162.167,141.333 162.5,141C 161.5,140.167 160.5,139.333 159.5,138.5C 158.359,137.575 158.359,136.741 159.5,136C 157.406,135.138 156.406,133.972 156.5,132.5C 156.137,138.559 155.137,144.226 153.5,149.5C 153.174,140.983 153.507,132.65 154.5,124.5 Z"/></g>
<g><path style="opacity:0.302" fill="#d0f2f2" d="M 257.5,124.5 C 262.311,132.628 266.645,140.962 270.5,149.5C 266.108,143.066 261.941,136.399 258,129.5C 257.667,136.167 257.333,142.833 257,149.5C 256.617,150.056 256.117,150.389 255.5,150.5C 255.5,149.833 255.5,149.167 255.5,148.5C 256.167,140.5 256.833,132.5 257.5,124.5 Z"/></g>
<g><path style="opacity:0.494" fill="#b7ddde" d="M 273.5,120.5 C 271.696,127.432 270.863,134.765 271,142.5C 266.85,135.036 262.516,127.703 258,120.5C 256.989,119.663 255.822,119.33 254.5,119.5C 254.47,118.503 254.97,117.836 256,117.5C 262.029,122.522 266.363,128.855 269,136.5C 269.17,130.804 269.67,125.138 270.5,119.5C 272.367,116.771 273.367,117.104 273.5,120.5 Z"/></g>
<g><path style="opacity:0.094" fill="#bef1f3" d="M 31.5,130.5 C 31.8333,131.167 32.1667,131.833 32.5,132.5C 32.5,132.833 32.5,133.167 32.5,133.5C 29.4949,132.625 29.1616,131.625 31.5,130.5 Z"/></g>
<g><path style="opacity:0.871" fill="#c3e8e8" d="M 190.5,118.5 C 198.499,122.664 199.499,128.164 193.5,135C 191.756,136.454 190.089,136.621 188.5,135.5C 192.471,134.028 194.805,131.194 195.5,127C 194.039,124.041 192.372,121.207 190.5,118.5 Z"/></g>
<g><path style="opacity:1" fill="#bde8e9" d="M 232.5,131.5 C 236.649,130.92 240.316,131.586 243.5,133.5C 239.833,133.5 236.167,133.5 232.5,133.5C 232.5,132.833 232.5,132.167 232.5,131.5 Z"/></g>
<g><path style="opacity:1" fill="#161c1c" d="M 254.5,119.5 C 255.822,119.33 256.989,119.663 258,120.5C 262.516,127.703 266.85,135.036 271,142.5C 270.863,134.765 271.696,127.432 273.5,120.5C 273.5,130.167 273.5,139.833 273.5,149.5C 272.833,149.5 272.167,149.5 271.5,149.5C 271.167,149.5 270.833,149.5 270.5,149.5C 266.645,140.962 262.311,132.628 257.5,124.5C 257.44,123.957 257.107,123.624 256.5,123.5C 255.502,131.807 255.169,140.14 255.5,148.5C 254.506,139.014 254.173,129.348 254.5,119.5 Z"/></g>
<g><path style="opacity:1" fill="#6f8e90" d="M 257.5,124.5 C 256.833,132.5 256.167,140.5 255.5,148.5C 255.169,140.14 255.502,131.807 256.5,123.5C 257.107,123.624 257.44,123.957 257.5,124.5 Z"/></g>
<g><path style="opacity:1" fill="#bce8e8" d="M 283.5,131.5 C 287.649,130.92 291.316,131.586 294.5,133.5C 290.351,134.08 286.684,133.414 283.5,131.5 Z"/></g>
<g><path style="opacity:0.997" fill="#c0bceb" d="M 56.5,154.5 C 55.6977,155.885 55.0311,155.718 54.5,154C 53.8524,152.56 53.5191,151.06 53.5,149.5C 50.8338,149.066 49.6671,150.066 50,152.5C 50.7175,151.549 51.5509,151.383 52.5,152C 50.3911,153.141 48.5578,154.641 47,156.5C 46.4646,154.729 45.6313,154.396 44.5,155.5C 42.8858,158.157 43.5525,159.99 46.5,161C 45.5842,161.278 44.9175,161.778 44.5,162.5C 42.3935,161.434 40.8935,159.767 40,157.5C 36.4723,159.252 34.3057,158.252 33.5,154.5C 33.6716,153.508 33.3382,152.842 32.5,152.5C 36.6964,145.278 41.0298,138.111 45.5,131C 48.7462,131.317 52.0795,131.483 55.5,131.5C 53.983,139.258 54.3163,146.924 56.5,154.5 Z"/></g>
<g><path style="opacity:1" fill="#374444" d="M 232.5,133.5 C 236.167,133.5 239.833,133.5 243.5,133.5C 240.097,135.092 236.43,136.426 232.5,137.5C 232.5,137.167 232.5,136.833 232.5,136.5C 233.167,136.5 233.5,136.167 233.5,135.5C 233.167,134.833 232.833,134.167 232.5,133.5 Z"/></g>
<g><path style="opacity:0.945" fill="#c7e9ea" d="M 162.5,131.5 C 164.25,132.659 165.25,134.326 165.5,136.5C 163.273,135.599 162.273,133.933 162.5,131.5 Z"/></g>
<g><path style="opacity:0.557" fill="#bbe2e3" d="M 219.5,128.5 C 220.497,128.47 221.164,128.97 221.5,130C 220.728,131.221 219.728,132.221 218.5,133C 218.833,133.333 219.167,133.667 219.5,134C 217.382,134.26 215.716,135.26 214.5,137C 216.853,140.349 219.52,143.349 222.5,146C 223.833,147.667 223.833,149.333 222.5,151C 220.833,151.667 219.167,151.667 217.5,151C 217.833,150.667 218.167,150.333 218.5,150C 214.331,145.859 210.498,141.359 207,136.5C 207.108,141.28 206.275,145.614 204.5,149.5C 204.5,144.833 204.5,140.167 204.5,135.5C 206.199,135.34 207.866,135.506 209.5,136C 212.294,140.624 215.627,144.791 219.5,148.5C 220.521,147.998 220.688,147.332 220,146.5C 217.5,142.833 215,139.167 212.5,135.5C 215.848,134.152 218.181,131.819 219.5,128.5 Z"/></g>
<g><path style="opacity:0.596" fill="#dbfffe" d="M 284.5,135.5 C 286.031,136.925 285.698,137.591 283.5,137.5C 283.328,136.508 283.662,135.842 284.5,135.5 Z"/></g>
<g><path style="opacity:0.987" fill="#161a1b" d="M 343.5,119.5 C 343.833,119.5 344.167,119.5 344.5,119.5C 344.833,119.5 345.167,119.5 345.5,119.5C 350.648,122.605 351.814,126.938 349,132.5C 347.22,133.594 345.386,134.594 343.5,135.5C 346.623,139.578 349.623,143.745 352.5,148C 351.584,148.278 350.918,148.778 350.5,149.5C 349.833,149.167 349.167,148.833 348.5,148.5C 346.229,144.136 343.562,139.969 340.5,136C 338.833,135.333 337.167,135.333 335.5,136C 336.056,136.383 336.389,136.883 336.5,137.5C 336.5,141.167 336.5,144.833 336.5,148.5C 335.167,148.5 333.833,148.5 332.5,148.5C 332.5,148.167 332.5,147.833 332.5,147.5C 333.493,138.682 333.827,129.682 333.5,120.5C 334.791,120.263 335.791,120.596 336.5,121.5C 335.494,121.938 335.494,122.604 336.5,123.5C 336.5,126.167 336.5,128.833 336.5,131.5C 335.957,131.56 335.624,131.893 335.5,132.5C 340.484,134.493 344.651,133.493 348,129.5C 348.891,124.947 347.058,122.28 342.5,121.5C 342.833,120.833 343.167,120.167 343.5,119.5 Z M 336.5,131.5 C 336.5,128.833 336.5,126.167 336.5,123.5C 341.229,121.535 344.562,122.869 346.5,127.5C 346.471,129.029 345.804,130.196 344.5,131C 341.854,131.497 339.187,131.664 336.5,131.5 Z"/></g>
<g><path style="opacity:0.627" fill="#b9e1e2" d="M 336.5,121.5 C 338.5,121.5 340.5,121.5 342.5,121.5C 347.058,122.28 348.891,124.947 348,129.5C 344.651,133.493 340.484,134.493 335.5,132.5C 335.624,131.893 335.957,131.56 336.5,131.5C 339.187,131.664 341.854,131.497 344.5,131C 345.804,130.196 346.471,129.029 346.5,127.5C 344.562,122.869 341.229,121.535 336.5,123.5C 335.494,122.604 335.494,121.938 336.5,121.5 Z"/></g>
<g><path style="opacity:0.592" fill="#caf8f9" d="M 182.5,135.5 C 183.103,140.619 182.436,145.285 180.5,149.5C 179.897,144.381 180.564,139.715 182.5,135.5 Z"/></g>
<g><path style="opacity:0.994" fill="#bdb9ea" d="M 105.5,137.5 C 105.369,141.952 104.702,146.286 103.5,150.5C 102.5,150.833 101.833,151.5 101.5,152.5C 93.5381,158.487 85.2047,163.987 76.5,169C 74.2814,171.658 72.6147,174.158 71.5,176.5C 65.977,176.713 60.3103,176.38 54.5,175.5C 53.3315,173.783 51.6648,173.116 49.5,173.5C 49.472,171.418 50.1387,169.584 51.5,168C 49.4305,165.722 47.0971,163.889 44.5,162.5C 44.9175,161.778 45.5842,161.278 46.5,161C 43.5525,159.99 42.8858,158.157 44.5,155.5C 45.6313,154.396 46.4646,154.729 47,156.5C 48.5578,154.641 50.3911,153.141 52.5,152C 51.5509,151.383 50.7175,151.549 50,152.5C 49.6671,150.066 50.8338,149.066 53.5,149.5C 53.5191,151.06 53.8524,152.56 54.5,154C 55.0311,155.718 55.6977,155.885 56.5,154.5C 58.6719,156.344 61.0053,158.011 63.5,159.5C 64.8692,157.236 65.8692,154.903 66.5,152.5C 66.369,153.239 66.5357,153.906 67,154.5C 68.3333,153.167 69.6667,153.167 71,154.5C 72.1882,153.437 72.6882,152.103 72.5,150.5C 73.265,149.34 74.265,148.34 75.5,147.5C 80.2049,148.864 84.8716,148.697 89.5,147C 93.3504,144.239 97.0171,141.239 100.5,138C 102.18,138.771 103.847,138.605 105.5,137.5 Z M 69.5,149.5 C 69.3284,150.492 69.6618,151.158 70.5,151.5C 69.6977,152.885 69.0311,152.718 68.5,151C 68.5699,150.235 68.9033,149.735 69.5,149.5 Z M 82.5,161.5 C 83.0024,159.915 84.0024,159.415 85.5,160C 84.7562,161.039 83.7562,161.539 82.5,161.5 Z"/></g>
<g><path style="opacity:0.365" fill="#cef5f5" d="M 131.5,135.5 C 131.5,139.167 131.5,142.833 131.5,146.5C 130.213,145.129 129.547,143.295 129.5,141C 129.547,138.705 130.213,136.871 131.5,135.5 Z"/></g>
<g><path style="opacity:0.804" fill="#c9e6e6" d="M 165.5,136.5 C 166.167,136.833 166.833,137.167 167.5,137.5C 167.5,137.833 167.5,138.167 167.5,138.5C 168.167,138.5 168.5,138.833 168.5,139.5C 166.183,140.534 165.183,139.534 165.5,136.5 Z"/></g>
<g><path style="opacity:1" fill="#1c1c22" d="M 114.5,110.5 C 113.249,111.472 113.582,112.139 115.5,112.5C 119.002,111.989 122.335,111.322 125.5,110.5C 126.167,110.5 126.833,110.5 127.5,110.5C 130.5,110.5 133.5,110.5 136.5,110.5C 136.672,111.492 136.338,112.158 135.5,112.5C 132.941,112.198 130.607,112.532 128.5,113.5C 127.833,113.5 127.167,113.5 126.5,113.5C 121.862,113.472 117.362,114.139 113,115.5C 110.618,125.794 108.451,136.127 106.5,146.5C 106.17,150.342 105.337,154.009 104,157.5C 103.503,155.19 103.337,152.857 103.5,150.5C 104.702,146.286 105.369,141.952 105.5,137.5C 107.79,130.338 109.457,123.004 110.5,115.5C 104.711,116.324 99.0439,117.658 93.5,119.5C 89.2171,129.449 82.2171,136.782 72.5,141.5C 76.7332,144.362 81.3999,145.195 86.5,144C 90.7701,141.284 94.9368,138.451 99,135.5C 100.033,135.548 100.366,135.881 100,136.5C 95.1274,142.351 88.9607,145.684 81.5,146.5C 76.7203,145.904 72.0537,144.904 67.5,143.5C 67.4921,146.545 67.1587,149.545 66.5,152.5C 65.8692,154.903 64.8692,157.236 63.5,159.5C 61.0053,158.011 58.6719,156.344 56.5,154.5C 54.3163,146.924 53.983,139.258 55.5,131.5C 52.0795,131.483 48.7462,131.317 45.5,131C 41.0298,138.111 36.6964,145.278 32.5,152.5C 30.6562,155.687 27.9895,157.687 24.5,158.5C 24.5,157.833 24.5,157.167 24.5,156.5C 24.5,156.167 24.5,155.833 24.5,155.5C 24.0311,152.607 25.0311,150.607 27.5,149.5C 26.4634,151.738 26.2967,154.071 27,156.5C 32.8011,148.4 37.9678,139.9 42.5,131C 42.0946,130.055 41.428,129.388 40.5,129C 37.854,128.503 35.1873,128.336 32.5,128.5C 32.6107,127.883 32.944,127.383 33.5,127C 37.5888,126.859 41.5888,126.692 45.5,126.5C 48.3333,122.167 51.1667,117.833 54,113.5C 56.2072,110.436 59.0406,108.436 62.5,107.5C 59.7313,119.013 57.7313,130.68 56.5,142.5C 56.6764,145.882 57.1764,149.215 58,152.5C 59.1096,154.037 60.6096,154.703 62.5,154.5C 66.8262,138.531 71.1595,122.531 75.5,106.5C 76.1667,105.167 76.8333,105.167 77.5,106.5C 75.1982,113.368 73.6982,120.368 73,127.5C 76.1129,122.387 79.9463,117.887 84.5,114C 87.366,112.543 90.366,112.21 93.5,113C 94.3366,114.011 94.67,115.178 94.5,116.5C 100.293,115.979 105.96,114.812 111.5,113C 112.071,111.795 112.738,110.628 113.5,109.5C 114.107,109.624 114.44,109.957 114.5,110.5 Z M 69.5,149.5 C 69.3284,150.492 69.6618,151.158 70.5,151.5C 69.6977,152.885 69.0311,152.718 68.5,151C 68.5699,150.235 68.9033,149.735 69.5,149.5 Z"/></g>
<g><path style="opacity:1" fill="#c1bee9" d="M 86.5,114.5 C 88.5,114.5 90.5,114.5 92.5,114.5C 89.4723,126.242 82.139,134.909 70.5,140.5C 70.1667,140.167 69.8333,139.833 69.5,139.5C 72.9656,129.537 78.6323,121.204 86.5,114.5 Z"/></g>
<g><path style="opacity:1" fill="#c0bdea" d="M 105.5,137.5 C 103.847,138.605 102.18,138.771 100.5,138C 97.0171,141.239 93.3504,144.239 89.5,147C 84.8716,148.697 80.2049,148.864 75.5,147.5C 74.265,148.34 73.265,149.34 72.5,150.5C 72.6882,152.103 72.1882,153.437 71,154.5C 69.6667,153.167 68.3333,153.167 67,154.5C 66.5357,153.906 66.369,153.239 66.5,152.5C 67.1587,149.545 67.4921,146.545 67.5,143.5C 72.0537,144.904 76.7203,145.904 81.5,146.5C 88.9607,145.684 95.1274,142.351 100,136.5C 100.366,135.881 100.033,135.548 99,135.5C 94.9368,138.451 90.7701,141.284 86.5,144C 81.3999,145.195 76.7332,144.362 72.5,141.5C 82.2171,136.782 89.2171,129.449 93.5,119.5C 99.0439,117.658 104.711,116.324 110.5,115.5C 109.457,123.004 107.79,130.338 105.5,137.5 Z M 69.5,149.5 C 69.3284,150.492 69.6618,151.158 70.5,151.5C 69.6977,152.885 69.0311,152.718 68.5,151C 68.5699,150.235 68.9033,149.735 69.5,149.5 Z"/></g>
<g><path style="opacity:1" fill="#cac6ea" d="M 58.5,110.5 C 59.3764,110.369 60.0431,110.702 60.5,111.5C 58.7813,117.429 57.4479,123.429 56.5,129.5C 53.5,129.5 50.5,129.5 47.5,129.5C 47.4914,127.692 47.9914,126.025 49,124.5C 52.4135,119.934 55.5802,115.268 58.5,110.5 Z"/></g>
<g><path style="opacity:1" fill="#bec0e7" d="M 32.5,128.5 C 35.1873,128.336 37.854,128.503 40.5,129C 41.428,129.388 42.0946,130.055 42.5,131C 37.9678,139.9 32.8011,148.4 27,156.5C 26.2967,154.071 26.4634,151.738 27.5,149.5C 27.5,149.167 27.5,148.833 27.5,148.5C 28.8333,148.167 28.8333,147.833 27.5,147.5C 29.2701,146.236 30.9368,144.736 32.5,143C 30.7769,142.225 29.7769,140.892 29.5,139C 31.5764,137.756 32.5764,135.923 32.5,133.5C 34.2239,133.539 34.5573,133.206 33.5,132.5C 33.1667,131.167 32.8333,129.833 32.5,128.5 Z"/></g>
<g><path style="opacity:0.412" fill="#c9eced" d="M 348.5,148.5 C 348.565,148.938 348.399,149.272 348,149.5C 345.695,145.696 343.195,142.03 340.5,138.5C 339.311,137.571 337.978,137.238 336.5,137.5C 336.389,136.883 336.056,136.383 335.5,136C 337.167,135.333 338.833,135.333 340.5,136C 343.562,139.969 346.229,144.136 348.5,148.5 Z"/></g>
<g><path style="opacity:0.825" fill="#bbe4e5" d="M 350.5,149.5 C 350.918,148.778 351.584,148.278 352.5,148C 349.623,143.745 346.623,139.578 343.5,135.5C 345.386,134.594 347.22,133.594 349,132.5C 351.814,126.938 350.648,122.605 345.5,119.5C 345.56,118.957 345.893,118.624 346.5,118.5C 348.167,119.833 349.833,121.167 351.5,122.5C 350.972,124.385 351.638,126.052 353.5,127.5C 353.182,128.647 352.516,129.481 351.5,130C 352.634,131.016 352.301,131.683 350.5,132C 350.833,132.333 351.167,132.667 351.5,133C 349.833,134 348.167,135 346.5,136C 346.958,138.398 348.292,140.064 350.5,141C 349.655,142.558 350.321,143.558 352.5,144C 351.346,144.914 351.513,145.747 353,146.5C 353.884,148.641 353.384,150.307 351.5,151.5C 350.702,151.043 350.369,150.376 350.5,149.5 Z"/></g>
<g><path style="opacity:0.298" fill="#c3eff0" d="M 305.5,119.5 C 305.334,127.507 305.5,135.507 306,143.5C 309.277,149.109 314.11,150.942 320.5,149C 322.887,147.453 324.22,145.287 324.5,142.5C 325.492,135.018 325.825,127.352 325.5,119.5C 326.822,122.768 327.489,126.435 327.5,130.5C 327.543,135.567 327.043,140.567 326,145.5C 320.963,151.99 314.796,153.156 307.5,149C 305.951,147.786 304.785,146.286 304,144.5C 303.833,140.333 303.667,136.167 303.5,132C 303.509,127.443 304.175,123.276 305.5,119.5 Z"/></g>
<g><path style="opacity:1" fill="#374747" d="M 323.5,119.5 C 324.167,119.5 324.833,119.5 325.5,119.5C 325.825,127.352 325.492,135.018 324.5,142.5C 324.5,141.833 324.167,141.5 323.5,141.5C 323.5,134.167 323.5,126.833 323.5,119.5 Z"/></g>
<g><path style="opacity:0.537" fill="#bde7e8" d="M 323.5,119.5 C 323.5,126.833 323.5,134.167 323.5,141.5C 322.388,144.946 320.055,146.946 316.5,147.5C 318.768,146.135 320.435,144.135 321.5,141.5C 322.796,134.814 322.796,128.147 321.5,121.5C 321.855,120.478 322.522,119.811 323.5,119.5 Z"/></g>
<g><path style="opacity:0.635" fill="#c9f3f3" d="M 308.5,119.5 C 310.307,127.104 311.14,135.104 311,143.5C 312.627,144.532 313.793,145.866 314.5,147.5C 311.909,146.746 310.076,145.079 309,142.5C 308.5,134.841 308.334,127.174 308.5,119.5 Z"/></g>
<g><path style="opacity:0.651" fill="#aedfe1" d="M 232.5,145.5 C 237.305,146.06 241.971,146.727 246.5,147.5C 241.381,148.103 236.715,147.436 232.5,145.5 Z"/></g>
<g><path style="opacity:0.651" fill="#a8d6d7" d="M 283.5,145.5 C 288.305,146.06 292.971,146.727 297.5,147.5C 292.381,148.103 287.715,147.436 283.5,145.5 Z"/></g>
<g><path style="opacity:1" fill="#1b2122" d="M 305.5,119.5 C 306.5,119.5 307.5,119.5 308.5,119.5C 308.334,127.174 308.5,134.841 309,142.5C 310.076,145.079 311.909,146.746 314.5,147.5C 315.167,147.5 315.833,147.5 316.5,147.5C 320.055,146.946 322.388,144.946 323.5,141.5C 324.167,141.5 324.5,141.833 324.5,142.5C 324.22,145.287 322.887,147.453 320.5,149C 314.11,150.942 309.277,149.109 306,143.5C 305.5,135.507 305.334,127.507 305.5,119.5 Z"/></g>
<g><path style="opacity:1" fill="#587171" d="M 297.5,147.5 C 300.167,148.167 300.167,148.833 297.5,149.5C 291.833,149.5 286.167,149.5 280.5,149.5C 280.5,149.167 280.5,148.833 280.5,148.5C 286.358,148.822 292.025,148.489 297.5,147.5 Z"/></g>
<g><path style="opacity:1" fill="#c2f7f8" d="M 126.5,149.5 C 132.5,149.5 138.5,149.5 144.5,149.5C 141.913,150.816 138.913,151.483 135.5,151.5C 132.087,151.483 129.087,150.816 126.5,149.5 Z"/></g>
<g><path style="opacity:0.498" fill="#c3f7f7" d="M 177.5,149.5 C 178.5,149.5 179.5,149.5 180.5,149.5C 179.5,152.167 178.5,152.167 177.5,149.5 Z"/></g>
<g><path style="opacity:0.507" fill="#c3f6f7" d="M 201.5,149.5 C 202.5,149.5 203.5,149.5 204.5,149.5C 203.5,152.167 202.5,152.167 201.5,149.5 Z"/></g>
<g><path style="opacity:0.464" fill="#a9d8d9" d="M 332.5,148.5 C 333.833,148.5 335.167,148.5 336.5,148.5C 336.5,149.5 336.5,150.5 336.5,151.5C 334.027,151.912 332.694,150.912 332.5,148.5 Z"/></g>
<g><path style="opacity:0.306" fill="#c5f9f9" d="M 246.5,147.5 C 248.927,148.279 248.927,149.446 246.5,151C 241.167,151.667 235.833,151.667 230.5,151C 229.584,150.722 228.918,150.222 228.5,149.5C 234.926,150.12 240.926,149.453 246.5,147.5 Z"/></g>
<g><path style="opacity:0.09" fill="#c5fcfc" d="M 271.5,149.5 C 272.167,149.5 272.833,149.5 273.5,149.5C 272.833,152.167 272.167,152.167 271.5,149.5 Z"/></g>
<g><path style="opacity:0.301" fill="#c6fbfc" d="M 280.5,149.5 C 286.167,149.5 291.833,149.5 297.5,149.5C 295.085,150.814 292.252,151.481 289,151.5C 285.748,151.481 282.915,150.814 280.5,149.5 Z"/></g>
<g><path style="opacity:0.659" fill="#aad6d7" d="M 27.5,147.5 C 27.5,147.833 27.5,148.167 27.5,148.5C 27.5,148.833 27.5,149.167 27.5,149.5C 25.0311,150.607 24.0311,152.607 24.5,155.5C 23.5028,155.53 22.8361,155.03 22.5,154C 23.6155,152.765 23.6155,151.598 22.5,150.5C 23.9397,149.048 25.6064,148.048 27.5,147.5 Z"/></g>
<g><path style="opacity:0.29" fill="#cdfafa" d="M 24.5,156.5 C 24.5,157.167 24.5,157.833 24.5,158.5C 21.8333,157.833 21.8333,157.167 24.5,156.5 Z"/></g>
<g><path style="opacity:1" fill="#b5e1e2" d="M 108.5,145.5 C 108.098,149.912 107.265,154.246 106,158.5C 103.737,159.589 101.904,158.922 100.5,156.5C 101.025,155.808 101.692,155.308 102.5,155C 101.748,154.329 101.414,153.496 101.5,152.5C 101.833,151.5 102.5,150.833 103.5,150.5C 103.337,152.857 103.503,155.19 104,157.5C 105.337,154.009 106.17,150.342 106.5,146.5C 107.167,146.167 107.833,145.833 108.5,145.5 Z"/></g>
<g><path style="opacity:0.18" fill="#c3efef" d="M 32.5,152.5 C 33.3382,152.842 33.6716,153.508 33.5,154.5C 31.7992,157.198 29.4659,159.198 26.5,160.5C 25.2867,160.253 24.62,159.586 24.5,158.5C 27.9895,157.687 30.6562,155.687 32.5,152.5 Z"/></g>
<g><path style="opacity:0.12" fill="#b8c5e8" d="M 76.5,170.5 C 79.0118,171.216 79.0118,172.216 76.5,173.5C 75.4376,172.575 75.4376,171.575 76.5,170.5 Z"/></g>
</svg>
