<?xml version="1.0" encoding="UTF-8"?>
<!DOCTYPE svg PUBLIC "-//W3C//DTD SVG 1.1//EN" "http://www.w3.org/Graphics/SVG/1.1/DTD/svg11.dtd">
<svg xmlns="http://www.w3.org/2000/svg" version="1.1" width="48px" height="48px" style="shape-rendering:geometricPrecision; text-rendering:geometricPrecision; image-rendering:optimizeQuality; fill-rule:evenodd; clip-rule:evenodd" xmlns:xlink="http://www.w3.org/1999/xlink">
<g><path style="opacity:0.989" fill="#75058d" d="M 16.5,-0.5 C 21.1667,-0.5 25.8333,-0.5 30.5,-0.5C 38.5,2.83333 44.1667,8.5 47.5,16.5C 47.5,21.1667 47.5,25.8333 47.5,30.5C 44.1667,38.5 38.5,44.1667 30.5,47.5C 25.8333,47.5 21.1667,47.5 16.5,47.5C 8.5,44.1667 2.83333,38.5 -0.5,30.5C -0.5,25.8333 -0.5,21.1667 -0.5,16.5C 2.83333,8.5 8.5,2.83333 16.5,-0.5 Z"/></g>
<g><path style="opacity:1" fill="#110f11" d="M 27.5,12.5 C 27.1667,12.5 26.8333,12.5 26.5,12.5C 25.0821,10.6921 23.0821,10.0254 20.5,10.5C 20.5,9.5 20.5,8.5 20.5,7.5C 24.8514,6.53296 27.1847,8.19963 27.5,12.5 Z"/></g>
<g><path style="opacity:1" fill="#c9bdcc" d="M 20.5,10.5 C 23.0821,10.0254 25.0821,10.6921 26.5,12.5C 25.1634,13.3149 24.1634,14.4815 23.5,16C 24.1667,16.3333 24.8333,16.6667 25.5,17C 23.0103,17.4952 21.5103,18.9952 21,21.5C 20.5172,20.552 20.3505,19.552 20.5,18.5C 20.8051,16.0807 20.8051,13.414 20.5,10.5 Z"/></g>
<g><path style="opacity:1" fill="#f3eef4" d="M 26.5,12.5 C 26.8333,12.5 27.1667,12.5 27.5,12.5C 26.5269,14.0683 26.3603,15.735 27,17.5C 29.2016,18.4016 31.3683,19.4016 33.5,20.5C 37.3907,25.5913 38.8907,31.258 38,37.5C 36.063,40.1078 34.2296,40.1078 32.5,37.5C 30.8561,37.7135 29.3561,37.3802 28,36.5C 26.4964,33.3159 24.9964,30.1493 23.5,27C 19.9748,26.8213 16.6414,26.3213 13.5,25.5C 14.2037,21.4629 16.537,19.1295 20.5,18.5C 20.3505,19.552 20.5172,20.552 21,21.5C 21.5103,18.9952 23.0103,17.4952 25.5,17C 24.8333,16.6667 24.1667,16.3333 23.5,16C 24.1634,14.4815 25.1634,13.3149 26.5,12.5 Z"/></g>
<g><path style="opacity:1" fill="#641775" d="M 13.5,25.5 C 16.6414,26.3213 19.9748,26.8213 23.5,27C 24.9964,30.1493 26.4964,33.3159 28,36.5C 29.3561,37.3802 30.8561,37.7135 32.5,37.5C 30.7816,38.224 28.9483,38.8906 27,39.5C 26.0801,35.7367 24.5801,32.2367 22.5,29C 17.5111,28.5007 12.5111,28.3341 7.5,28.5C 6.5,28.5 5.5,28.5 4.5,28.5C 7.6343,27.9649 10.6343,26.9649 13.5,25.5 Z"/></g>
<g><path style="opacity:1" fill="#c3b8c5" d="M 4.5,28.5 C 5.5,28.5 6.5,28.5 7.5,28.5C 7.53909,30.3588 6.70576,31.6921 5,32.5C 3.23173,31.3181 3.06507,29.9848 4.5,28.5 Z"/></g>
<g><path style="opacity:1" fill="#ecdbef" d="M 13.5,31.5 C 16.1662,31.0658 17.3329,32.0658 17,34.5C 14.3422,35.694 13.1756,34.694 13.5,31.5 Z"/></g>
</svg>
