<?xml version="1.0" encoding="UTF-8"?>
<!DOCTYPE svg PUBLIC "-//W3C//DTD SVG 1.1//EN" "http://www.w3.org/Graphics/SVG/1.1/DTD/svg11.dtd">
<svg xmlns="http://www.w3.org/2000/svg" version="1.1" width="48px" height="48px" style="shape-rendering:geometricPrecision; text-rendering:geometricPrecision; image-rendering:optimizeQuality; fill-rule:evenodd; clip-rule:evenodd" xmlns:xlink="http://www.w3.org/1999/xlink">
<g><path style="opacity:0.977" fill="#7c1a92" d="M 16.5,-0.5 C 21.1667,-0.5 25.8333,-0.5 30.5,-0.5C 38.5,2.83333 44.1667,8.5 47.5,16.5C 47.5,21.1667 47.5,25.8333 47.5,30.5C 44.1667,38.5 38.5,44.1667 30.5,47.5C 25.8333,47.5 21.1667,47.5 16.5,47.5C 8.5,44.1667 2.83333,38.5 -0.5,30.5C -0.5,25.8333 -0.5,21.1667 -0.5,16.5C 2.83333,8.5 8.5,2.83333 16.5,-0.5 Z"/></g>
<g><path style="opacity:1" fill="#fdfbfd" d="M 10.5,4.5 C 11.5,4.5 12.5,4.5 13.5,4.5C 13.5,5.5 13.5,6.5 13.5,7.5C 12.5,7.5 11.5,7.5 10.5,7.5C 10.5,6.5 10.5,5.5 10.5,4.5 Z"/></g>
<g><path style="opacity:1" fill="#f8f2f9" d="M 21.5,4.5 C 24.5,4.16667 25.8333,5.5 25.5,8.5C 24.1667,8.5 22.8333,8.5 21.5,8.5C 21.5,7.16667 21.5,5.83333 21.5,4.5 Z"/></g>
<g><path style="opacity:1" fill="#ecdbef" d="M 33.5,3.5 C 35.9118,3.69408 36.9118,5.02741 36.5,7.5C 33.0464,7.73319 32.0464,6.39986 33.5,3.5 Z"/></g>
<g><path style="opacity:1" fill="#f9f3fa" d="M 8.5,9.5 C 9.5,9.5 10.5,9.5 11.5,9.5C 11.8333,18.8333 12.1667,18.8333 12.5,9.5C 15.7343,9.23656 17.0676,10.7366 16.5,14C 16.3852,16.7318 15.5519,19.2318 14,21.5C 8.06628,19.303 6.23295,15.303 8.5,9.5 Z"/></g>
<g><path style="opacity:1" fill="#f9f4fa" d="M 20.5,9.5 C 26.9877,9.38499 28.9877,12.7183 26.5,19.5C 24.5,20.8333 22.5,20.8333 20.5,19.5C 19.174,16.1361 19.174,12.8028 20.5,9.5 Z"/></g>
<g><path style="opacity:1" fill="#f8f2f9" d="M 31.5,9.5 C 32.5,9.5 33.5,9.5 34.5,9.5C 34.4809,11.0603 34.1476,12.5603 33.5,14C 33.6301,15.0588 34.1301,15.8921 35,16.5C 35.4966,14.1902 35.6633,11.8568 35.5,9.5C 39.1431,10.3822 40.3098,12.7155 39,16.5C 37.2246,18.3945 35.2246,20.0611 33,21.5C 30.4801,17.7004 29.9801,13.7004 31.5,9.5 Z"/></g>
<g><path style="opacity:1" fill="#fbf8fc" d="M 36.5,29.5 C 36.6716,28.5084 36.3382,27.8417 35.5,27.5C 35.2488,25.8297 34.5822,24.3297 33.5,23C 36.0779,20.793 38.9113,18.9596 42,17.5C 42.8283,22.202 42.6616,26.8687 41.5,31.5C 39.1006,32.7818 37.4339,32.1152 36.5,29.5 Z"/></g>
<g><path style="opacity:1" fill="#f8f2f9" d="M 12.5,22.5 C 12.1854,24.2259 12.0187,25.8925 12,27.5C 12.7589,25.9371 13.9256,24.9371 15.5,24.5C 17.5929,25.9726 19.2595,25.4726 20.5,23C 24.5511,22.4823 28.5511,22.8157 32.5,24C 33.1634,25.5185 34.1634,26.6851 35.5,27.5C 36.3382,27.8417 36.6716,28.5084 36.5,29.5C 35.0631,32.1498 34.3965,34.8165 34.5,37.5C 31.078,34.7104 30.4113,34.877 32.5,38C 31.1011,38.5946 29.7678,38.4279 28.5,37.5C 27.707,38.3554 28.0403,39.1887 29.5,40C 27.5,40 25.5,40 23.5,40C 27.5537,41.9412 27.2203,42.7746 22.5,42.5C 22.7373,41.209 22.404,40.209 21.5,39.5C 20.8763,37.246 19.543,35.5794 17.5,34.5C 16.0028,33.6942 14.3361,33.0276 12.5,32.5C 11.914,32.7093 11.414,33.0426 11,33.5C 10.6667,32.1667 10.3333,30.8333 10,29.5C 8.90082,32.0387 7.23415,32.7054 5,31.5C 4.33333,26.8333 4.33333,22.1667 5,17.5C 7.4426,19.3009 9.9426,20.9676 12.5,22.5 Z"/></g>
<g><path style="opacity:1" fill="#c088cb" d="M 12.5,22.5 C 13.7095,22.9321 14.7095,23.5987 15.5,24.5C 13.9256,24.9371 12.7589,25.9371 12,27.5C 12.0187,25.8925 12.1854,24.2259 12.5,22.5 Z"/></g>
<g><path style="opacity:1" fill="#be84ca" d="M 28.5,29.5 C 26.6336,28.9862 24.8003,28.3195 23,27.5C 21.3333,28.5 19.6667,29.5 18,30.5C 16.0543,30.2373 15.3877,29.2373 16,27.5C 16.6667,28.1667 17.3333,28.8333 18,29.5C 21.4047,24.5947 24.9047,24.5947 28.5,29.5 Z"/></g>
<g><path style="opacity:1" fill="#be85ca" d="M 28.5,29.5 C 29.7562,29.4614 30.7562,29.9614 31.5,31C 30.0024,31.5847 29.0024,31.0847 28.5,29.5 Z"/></g>
<g><path style="opacity:1" fill="#f1e4f3" d="M 17.5,34.5 C 16.8333,36.1667 16.1667,37.8333 15.5,39.5C 13.0268,39.264 11.3601,37.9307 10.5,35.5C 12.0072,34.2612 13.1739,34.5946 14,36.5C 14.8159,35.1772 15.9826,34.5106 17.5,34.5 Z"/></g>
<g><path style="opacity:1" fill="#ab63ba" d="M 17.5,34.5 C 19.543,35.5794 20.8763,37.246 21.5,39.5C 20.8333,39.5 20.1667,39.5 19.5,39.5C 19.6309,38.6236 19.2975,37.9569 18.5,37.5C 17.4822,38.1925 16.4822,38.8592 15.5,39.5C 16.1667,37.8333 16.8333,36.1667 17.5,34.5 Z"/></g>
<g><path style="opacity:1" fill="#f9f3fa" d="M 19.5,39.5 C 18.5178,40.1408 17.5178,40.8075 16.5,41.5C 15.7025,41.0431 15.3691,40.3764 15.5,39.5C 16.4822,38.8592 17.4822,38.1925 18.5,37.5C 19.2975,37.9569 19.6309,38.6236 19.5,39.5 Z"/></g>
<g><path style="opacity:1" fill="#f1e5f3" d="M 19.5,39.5 C 20.1667,39.5 20.8333,39.5 21.5,39.5C 21.7778,41.3464 21.1112,42.6798 19.5,43.5C 18.7084,42.3002 18.7084,40.9669 19.5,39.5 Z"/></g>
</svg>
