<?xml version="1.0" encoding="UTF-8"?>
<!DOCTYPE svg PUBLIC "-//W3C//DTD SVG 1.1//EN" "http://www.w3.org/Graphics/SVG/1.1/DTD/svg11.dtd">
<svg xmlns="http://www.w3.org/2000/svg" version="1.1" width="378px" height="265px" style="shape-rendering:geometricPrecision; text-rendering:geometricPrecision; image-rendering:optimizeQuality; fill-rule:evenodd; clip-rule:evenodd" xmlns:xlink="http://www.w3.org/1999/xlink">
<g><path style="opacity:0.749" fill="#222222" d="M 50.5,69.5 C 72.8333,69.5 95.1667,69.5 117.5,69.5C 117.5,70.5 117.5,71.5 117.5,72.5C 96.5,72.5 75.5,72.5 54.5,72.5C 54.5,93.8333 54.5,115.167 54.5,136.5C 53.1667,136.5 51.8333,136.5 50.5,136.5C 50.5,114.167 50.5,91.8333 50.5,69.5 Z"/></g>
<g><path style="opacity:0.862" fill="#222222" d="M 241.5,90.5 C 247.478,89.7418 252.812,91.0752 257.5,94.5C 257.172,99.0371 255.172,100.204 251.5,98C 247.833,97.3333 244.167,97.3333 240.5,98C 238.027,99.925 238.027,101.758 240.5,103.5C 244.114,104.82 247.78,105.987 251.5,107C 258.285,109.38 260.452,113.88 258,120.5C 256.125,123.187 253.625,125.021 250.5,126C 243.361,127.352 236.694,126.185 230.5,122.5C 231.502,120.49 232.502,118.49 233.5,116.5C 239.013,120.599 244.847,121.266 251,118.5C 251.72,116.888 251.554,115.388 250.5,114C 245.44,112.486 240.44,110.819 235.5,109C 231.387,105.491 230.554,101.324 233,96.5C 235.322,93.6047 238.155,91.6047 241.5,90.5 Z"/></g>
<g><path style="opacity:0.847" fill="#212121" d="M 100.5,90.5 C 97.6449,96.475 93.3116,101.975 87.5,107C 92.3802,113.258 97.3802,119.425 102.5,125.5C 99.8938,126.652 97.2272,126.818 94.5,126C 90.6667,121.5 86.8333,117 83,112.5C 81.1667,114.333 79.3333,116.167 77.5,118C 78.4438,120.719 78.7771,123.552 78.5,126.5C 75.8333,126.5 73.1667,126.5 70.5,126.5C 70.5,114.833 70.5,103.167 70.5,91.5C 73.1667,91.5 75.8333,91.5 78.5,91.5C 78.3341,96.5111 78.5007,101.511 79,106.5C 83.8333,101.667 88.6667,96.8333 93.5,92C 96.0356,91.8138 98.369,91.3138 100.5,90.5 Z"/></g>
<g><path style="opacity:0.882" fill="#212121" d="M 112.5,91.5 C 120.253,91.1039 127.92,91.6039 135.5,93C 141.996,98.1256 143.163,104.292 139,111.5C 137.786,113.049 136.286,114.215 134.5,115C 137.045,118.59 139.712,122.09 142.5,125.5C 139.894,126.652 137.227,126.818 134.5,126C 132.306,123.305 130.306,120.472 128.5,117.5C 125.572,116.516 122.572,116.183 119.5,116.5C 119.5,119.833 119.5,123.167 119.5,126.5C 117.167,126.5 114.833,126.5 112.5,126.5C 112.5,114.833 112.5,103.167 112.5,91.5 Z M 119.5,97.5 C 124.041,97.0522 128.374,97.7189 132.5,99.5C 135.293,102.968 134.96,106.134 131.5,109C 127.56,110.015 123.56,110.515 119.5,110.5C 119.5,106.167 119.5,101.833 119.5,97.5 Z"/></g>
<g><path style="opacity:0.822" fill="#222222" d="M 153.5,91.5 C 162.167,91.5 170.833,91.5 179.5,91.5C 179.5,93.5 179.5,95.5 179.5,97.5C 173.158,97.3338 166.825,97.5005 160.5,98C 161.833,100.333 161.833,102.667 160.5,105C 166.157,105.499 171.824,105.666 177.5,105.5C 177.5,107.5 177.5,109.5 177.5,111.5C 171.824,111.334 166.157,111.501 160.5,112C 161.833,114.333 161.833,116.667 160.5,119C 167.158,119.5 173.825,119.666 180.5,119.5C 180.5,121.833 180.5,124.167 180.5,126.5C 171.5,126.5 162.5,126.5 153.5,126.5C 153.5,114.833 153.5,103.167 153.5,91.5 Z"/></g>
<g><path style="opacity:0.899" fill="#212121" d="M 221.5,90.5 C 223.028,90.5173 223.528,91.184 223,92.5C 218.133,97.0323 213.633,101.866 209.5,107C 214.311,113.312 219.311,119.478 224.5,125.5C 221.894,126.652 219.227,126.818 216.5,126C 212.686,121.351 208.686,116.851 204.5,112.5C 202.851,113.648 201.351,114.981 200,116.5C 199.502,119.817 199.335,123.15 199.5,126.5C 197.167,126.5 194.833,126.5 192.5,126.5C 192.5,114.833 192.5,103.167 192.5,91.5C 194.833,91.5 197.167,91.5 199.5,91.5C 199.334,96.8437 199.501,102.177 200,107.5C 205.2,102.635 210.033,97.4681 214.5,92C 217.036,91.8138 219.369,91.3138 221.5,90.5 Z"/></g>
<g><path style="opacity:0.872" fill="#222222" d="M 280.5,91.5 C 283.247,91.1866 285.914,91.52 288.5,92.5C 293.306,103.584 298.306,114.584 303.5,125.5C 300.833,126.833 298.167,126.833 295.5,125.5C 294.786,123.189 293.786,121.022 292.5,119C 286.843,118.501 281.176,118.334 275.5,118.5C 274.833,121.167 274.167,123.833 273.5,126.5C 270.753,126.813 268.086,126.48 265.5,125.5C 271.062,114.38 276.062,103.047 280.5,91.5 Z M 283.5,99.5 C 285.918,103.492 288.252,107.658 290.5,112C 286.5,112.667 282.5,112.667 278.5,112C 281.146,108.211 282.812,104.044 283.5,99.5 Z"/></g>
<g><path style="opacity:0.91" fill="#232323" d="M 324.5,129.5 C 325.833,129.5 327.167,129.5 328.5,129.5C 328.5,151.5 328.5,173.5 328.5,195.5C 306.167,195.5 283.833,195.5 261.5,195.5C 261.5,194.5 261.5,193.5 261.5,192.5C 282.5,192.5 303.5,192.5 324.5,192.5C 324.5,171.5 324.5,150.5 324.5,129.5 Z"/></g>
<g><path style="opacity:0.808" fill="#222222" d="M 199.5,149.5 C 200.822,149.33 201.989,149.663 203,150.5C 203.405,154.213 203.405,157.879 203,161.5C 205.735,159.268 207.902,156.601 209.5,153.5C 210.689,152.571 212.022,152.238 213.5,152.5C 213.649,153.552 213.483,154.552 213,155.5C 210.486,158.678 207.986,161.844 205.5,165C 206.318,168.245 208.318,170.412 211.5,171.5C 207.805,173.186 204.971,172.186 203,168.5C 202.503,170.81 202.337,173.143 202.5,175.5C 200.876,175.64 199.71,174.973 199,173.5C 198.302,165.472 198.468,157.472 199.5,149.5 Z"/></g>
<g><path style="opacity:0.915" fill="#ff0404" d="M 81.5,150.5 C 90.4942,150.158 95.4942,154.491 96.5,163.5C 94.2805,174.567 87.9471,178.067 77.5,174C 70.4826,168.24 69.6492,162.073 75,155.5C 76.8049,153.174 78.9716,151.508 81.5,150.5 Z"/></g>
<g><path style="opacity:0.976" fill="#29cf49" d="M 122.5,150.5 C 131.992,149.655 137.325,153.988 138.5,163.5C 136.008,174.407 129.674,177.907 119.5,174C 112.505,168.365 111.672,161.865 117,154.5C 118.812,153.023 120.645,151.69 122.5,150.5 Z"/></g>
<g><path style="opacity:0.99" fill="#4283da" d="M 164.5,150.5 C 173.494,150.158 178.494,154.491 179.5,163.5C 177.22,174.649 170.886,178.149 160.5,174C 151.741,164.385 153.075,156.552 164.5,150.5 Z"/></g>
<g><path style="opacity:0.335" fill="#232323" d="M 225.5,151.5 C 226.5,151.5 227.5,151.5 228.5,151.5C 226.614,157.764 225.614,157.764 225.5,151.5 Z"/></g>
<g><path style="opacity:0.76" fill="#222222" d="M 222.5,151.5 C 223.649,151.791 224.316,152.624 224.5,154C 224.013,157.093 223.013,157.259 221.5,154.5C 222.127,153.583 222.461,152.583 222.5,151.5 Z"/></g>
<g><path style="opacity:0.669" fill="#212121" d="M 261.5,167.5 C 262.37,169.032 262.036,170.532 260.5,172C 261.451,172.718 261.617,173.551 261,174.5C 259.285,177.397 256.785,178.731 253.5,178.5C 252.815,172.518 252.815,166.518 253.5,160.5C 251.386,161.034 249.552,162.034 248,163.5C 246.454,168.114 245.121,172.781 244,177.5C 242.921,179.394 241.587,179.727 240,178.5C 238.455,175.698 237.622,172.698 237.5,169.5C 238.332,162.859 238.665,156.192 238.5,149.5C 239.833,149.5 241.167,149.5 242.5,149.5C 241.51,157.477 241.343,165.477 242,173.5C 243.271,168.417 245.437,163.75 248.5,159.5C 250.108,158.682 251.775,158.015 253.5,157.5C 254.645,150.507 256.312,149.841 258.5,155.5C 262.152,152.356 264.152,153.023 264.5,157.5C 261.07,156.79 258.737,157.957 257.5,161C 256.487,165.471 256.321,169.971 257,174.5C 258.026,171.761 259.526,169.428 261.5,167.5 Z"/></g>
<g><path style="opacity:0.559" fill="#222222" d="M 275.5,151.5 C 277.5,151.5 279.5,151.5 281.5,151.5C 281.716,153.681 280.883,155.347 279,156.5C 278.374,154.009 277.541,154.009 276.5,156.5C 275.548,154.955 275.215,153.288 275.5,151.5 Z"/></g>
<g><path style="opacity:0.782" fill="#212121" d="M 299.5,156.5 C 303.071,156.408 304.238,158.074 303,161.5C 300.929,164.416 299.595,164.082 299,160.5C 298.667,160.833 298.333,161.167 298,161.5C 295.992,166.201 293.992,170.867 292,175.5C 289.955,169.718 290.455,164.051 293.5,158.5C 295.007,157.261 296.174,157.595 297,159.5C 298.045,158.627 298.878,157.627 299.5,156.5 Z"/></g>
<g><path style="opacity:0.741" fill="#222222" d="M 217.5,158.5 C 218.833,158.5 220.167,158.5 221.5,158.5C 221.422,161.252 221.255,163.918 221,166.5C 222.723,163.275 225.223,160.942 228.5,159.5C 230.266,159.434 231.266,160.268 231.5,162C 230.507,164.453 230.34,166.953 231,169.5C 231.707,167.919 232.54,166.419 233.5,165C 234.332,164.312 234.998,164.479 235.5,165.5C 229.628,179.265 226.461,178.598 226,163.5C 224.877,166.249 223.377,168.749 221.5,171C 220.004,171.507 218.837,171.007 218,169.5C 216.563,165.933 216.396,162.267 217.5,158.5 Z"/></g>
<g><path style="opacity:0.739" fill="#212121" d="M 270.5,158.5 C 271.833,158.5 273.167,158.5 274.5,158.5C 274.337,160.857 274.503,163.19 275,165.5C 276.785,161.199 279.952,159.199 284.5,159.5C 283.888,163.163 283.721,166.83 284,170.5C 284.36,168.579 285.194,166.912 286.5,165.5C 287.5,164.167 288.5,164.167 289.5,165.5C 287.161,168.915 284.827,172.248 282.5,175.5C 281.522,175.023 280.689,174.357 280,173.5C 279.498,169.759 279.498,166.092 280,162.5C 278.405,165.121 276.905,167.787 275.5,170.5C 273.694,171.859 272.194,171.525 271,169.5C 270.501,165.848 270.335,162.182 270.5,158.5 Z"/></g>
<g><path style="opacity:0.373" fill="#222222" d="M 261.5,167.5 C 262.894,164.067 265.228,161.4 268.5,159.5C 268.833,159.833 269.167,160.167 269.5,160.5C 267.064,163.28 264.398,165.614 261.5,167.5 Z"/></g>
</svg>
