<?xml version="1.0" encoding="UTF-8"?>
<!DOCTYPE svg PUBLIC "-//W3C//DTD SVG 1.1//EN" "http://www.w3.org/Graphics/SVG/1.1/DTD/svg11.dtd">
<svg xmlns="http://www.w3.org/2000/svg" version="1.1" width="378px" height="265px" style="shape-rendering:geometricPrecision; text-rendering:geometricPrecision; image-rendering:optimizeQuality; fill-rule:evenodd; clip-rule:evenodd" xmlns:xlink="http://www.w3.org/1999/xlink">
<g><path style="opacity:0.821" fill="#000000" d="M 49.5,98.5 C 51.5106,99.4166 52.5106,101.083 52.5,103.5C 50.1612,114.852 47.8279,126.185 45.5,137.5C 47.8484,137.33 50.1817,136.997 52.5,136.5C 55.3294,136.548 57.6627,137.548 59.5,139.5C 56.633,140.774 53.633,141.607 50.5,142C 44.775,144.569 39.4417,147.736 34.5,151.5C 30.7069,148.137 30.5402,144.47 34,140.5C 37.0221,128.411 40.3554,116.411 44,104.5C 45.3597,101.977 47.193,99.9774 49.5,98.5 Z"/></g>
<g><path style="opacity:0.822" fill="#000000" d="M 248.5,98.5 C 251.272,99.4364 253.272,101.27 254.5,104C 251.364,116.01 248.864,128.177 247,140.5C 244.349,144.462 241.849,144.462 239.5,140.5C 240.631,134.141 242.297,127.974 244.5,122C 243.809,120.933 243.309,119.766 243,118.5C 238.781,125.772 233.948,132.605 228.5,139C 225.97,140.422 223.303,140.755 220.5,140C 219.978,139.439 219.645,138.772 219.5,138C 222.169,133.481 223.669,128.647 224,123.5C 219.275,130.956 215.109,138.622 211.5,146.5C 209.668,145.752 208.001,144.752 206.5,143.5C 210.689,132.065 214.189,120.398 217,108.5C 217.71,107.027 218.876,106.36 220.5,106.5C 220.319,109.553 220.152,112.553 220,115.5C 222.809,111.39 225.975,107.557 229.5,104C 231.5,103.333 233.5,103.333 235.5,104C 236.081,104.893 236.415,105.893 236.5,107C 235.751,109.545 235.251,112.045 235,114.5C 239.019,108.657 243.519,103.324 248.5,98.5 Z"/></g>
<g><path style="opacity:0.76" fill="#000000" d="M 171.5,101.5 C 178.734,100.614 182.734,103.781 183.5,111C 182.886,117.292 179.552,120.292 173.5,120C 171.951,118.786 170.785,117.286 170,115.5C 171.294,121.081 173.961,126.081 178,130.5C 178.333,130.167 178.667,129.833 179,129.5C 179.182,126.774 179.682,124.107 180.5,121.5C 183.253,123.994 185.92,123.994 188.5,121.5C 191.926,123.26 192.259,125.426 189.5,128C 187.295,129.427 185.128,129.927 183,129.5C 181.216,133.697 181.716,137.697 184.5,141.5C 184.389,145.026 182.722,147.36 179.5,148.5C 177.889,147.68 177.222,146.346 177.5,144.5C 178.5,144.5 179.5,144.5 180.5,144.5C 180.769,142.571 180.269,140.905 179,139.5C 174.327,146.278 168.161,148.445 160.5,146C 155.339,139.701 155.173,133.201 160,126.5C 161.957,125.111 163.79,123.611 165.5,122C 161.959,113.462 163.959,106.629 171.5,101.5 Z M 173.5,106.5 C 174.5,106.5 175.5,106.5 176.5,106.5C 177.61,112.727 175.277,115.06 169.5,113.5C 169.961,110.697 171.295,108.363 173.5,106.5 Z M 168.5,129.5 C 172.353,130.345 175.019,132.679 176.5,136.5C 173.852,141.271 170.352,142.271 166,139.5C 165.343,135.808 166.176,132.475 168.5,129.5 Z"/></g>
<g><path style="opacity:0.758" fill="#000000" d="M 293.5,127.5 C 290.02,130.488 287.02,133.988 284.5,138C 279.398,140.783 276.398,139.283 275.5,133.5C 272.019,136.092 268.519,136.092 265,133.5C 259.376,136.605 255.542,135.105 253.5,129C 254.456,124.753 256.456,121.087 259.5,118C 263.121,115.91 266.621,116.077 270,118.5C 270.865,120.888 270.032,122.388 267.5,123C 270.682,124.879 271.349,127.545 269.5,131C 270.577,132.543 271.911,132.543 273.5,131C 278.291,124.917 281.625,118.083 283.5,110.5C 286.642,110.799 288.809,112.466 290,115.5C 290.369,118.877 290.369,122.21 290,125.5C 292.5,122.333 295,119.167 297.5,116C 300.308,115.08 302.475,115.913 304,118.5C 304.32,121.54 304.32,124.54 304,127.5C 305.5,126 307,124.5 308.5,123C 309.899,122.405 311.232,122.572 312.5,123.5C 312.833,126.833 313.167,130.167 313.5,133.5C 314.833,132.5 316.167,131.5 317.5,130.5C 320.224,125.555 323.557,121.055 327.5,117C 330.588,116.153 333.421,116.653 336,118.5C 336.865,120.888 336.032,122.388 333.5,123C 334.416,123.374 335.25,123.874 336,124.5C 336.051,127.277 336.218,129.943 336.5,132.5C 339.906,130.065 343.239,127.732 346.5,125.5C 344.486,134.335 339.319,137.002 331,133.5C 326.755,136.358 323.089,135.692 320,131.5C 318.219,134.452 315.719,136.452 312.5,137.5C 310.617,137.124 309.117,136.124 308,134.5C 307.626,132.102 307.626,129.769 308,127.5C 305.14,130.36 302.306,133.194 299.5,136C 295.639,138.492 293.306,137.492 292.5,133C 292.943,131.175 293.277,129.342 293.5,127.5 Z M 295.5,124.5 C 295.573,126.027 294.906,127.027 293.5,127.5C 293.427,125.973 294.094,124.973 295.5,124.5 Z"/></g>
<g><path style="opacity:0.75" fill="#000000" d="M 85.5,112.5 C 87.9032,112.393 89.7365,113.393 91,115.5C 91.4977,119.65 91.1644,123.65 90,127.5C 92.5402,125.295 94.7068,122.795 96.5,120C 99.025,119.104 101.192,119.604 103,121.5C 99.9368,136.984 103.27,138.984 113,127.5C 115.136,123.371 117.969,119.871 121.5,117C 125.185,116.012 128.185,117.012 130.5,120C 130.18,121.653 129.18,122.653 127.5,123C 128.416,123.374 129.25,123.874 130,124.5C 129.137,134.309 131.637,134.809 137.5,126C 138.448,125.517 139.448,125.351 140.5,125.5C 138.083,134.042 132.749,136.709 124.5,133.5C 120.283,136.49 116.783,135.823 114,131.5C 111.767,135.908 108.267,138.575 103.5,139.5C 100.889,139.444 98.722,138.444 97,136.5C 95.8468,133.289 95.1802,129.956 95,126.5C 90.2959,130.867 86.7959,136.034 84.5,142C 79.1172,144.961 75.7839,143.461 74.5,137.5C 68.5293,141.145 62.8626,140.645 57.5,136C 53.6245,126.517 56.2912,119.017 65.5,113.5C 73.815,115.963 75.6484,120.963 71,128.5C 68.1521,131.094 66.1521,130.427 65,126.5C 63.1564,129.188 63.3231,131.855 65.5,134.5C 70.6007,135.544 74.7674,133.878 78,129.5C 80.5352,123.771 83.0352,118.104 85.5,112.5 Z M 68.5,120.5 C 69.522,121.892 69.1887,123.225 67.5,124.5C 67.1667,124.167 66.8333,123.833 66.5,123.5C 67.1925,122.482 67.8592,121.482 68.5,120.5 Z"/></g>
<g><path style="opacity:0.311" fill="#000000" d="M 39.5,159.5 C 41.4672,159.261 43.3005,159.594 45,160.5C 45.2387,162.725 44.4054,163.058 42.5,161.5C 40.1236,162.579 39.957,163.912 42,165.5C 43.1827,164.269 44.3493,164.269 45.5,165.5C 43.4232,168.119 41.2565,168.119 39,165.5C 38.3224,163.402 38.4891,161.402 39.5,159.5 Z"/></g>
<g><path style="opacity:0.378" fill="#000000" d="M 49.5,159.5 C 51.4672,159.261 53.3005,159.594 55,160.5C 55.2151,163.126 55.0484,165.459 54.5,167.5C 53.5224,167.023 52.6891,166.357 52,165.5C 51.6924,166.308 51.1924,166.975 50.5,167.5C 49.52,164.914 49.1866,162.247 49.5,159.5 Z"/></g>
<g><path style="opacity:0.316" fill="#000000" d="M 59.5,159.5 C 61.604,159.201 63.604,159.534 65.5,160.5C 64.1667,161.5 64.1667,162.5 65.5,163.5C 64.624,164.251 63.624,164.751 62.5,165C 63.624,165.249 64.624,165.749 65.5,166.5C 63.604,167.466 61.604,167.799 59.5,167.5C 59.5,164.833 59.5,162.167 59.5,159.5 Z"/></g>
<g><path style="opacity:0.363" fill="#000000" d="M 71.5,159.5 C 72.675,159.281 73.675,159.614 74.5,160.5C 75.961,162.811 76.2943,165.144 75.5,167.5C 73.7445,164.977 71.9112,164.977 70,167.5C 69.5,167.167 69,166.833 68.5,166.5C 70.0818,164.423 71.0818,162.09 71.5,159.5 Z"/></g>
<g><path style="opacity:0.285" fill="#000000" d="M 78.5,159.5 C 80.924,159.192 83.2573,159.526 85.5,160.5C 83.8267,162.523 83.1601,164.856 83.5,167.5C 82.5,167.5 81.5,167.5 80.5,167.5C 80.6349,164.583 79.9682,161.916 78.5,159.5 Z"/></g>
<g><path style="opacity:0.216" fill="#000000" d="M 88.5,159.5 C 89.5,159.5 90.5,159.5 91.5,159.5C 91.5,162.167 91.5,164.833 91.5,167.5C 90.5,167.5 89.5,167.5 88.5,167.5C 88.5,164.833 88.5,162.167 88.5,159.5 Z"/></g>
<g><path style="opacity:0.352" fill="#000000" d="M 95.5,159.5 C 97.5922,159.561 99.0922,160.561 100,162.5C 100.249,161.376 100.749,160.376 101.5,159.5C 102.833,162.167 102.833,164.833 101.5,167.5C 100.201,166.91 99.3678,165.91 99,164.5C 98.5172,165.448 98.3505,166.448 98.5,167.5C 97.5,167.5 96.5,167.5 95.5,167.5C 95.5,164.833 95.5,162.167 95.5,159.5 Z"/></g>
<g><path style="opacity:0.318" fill="#000000" d="M 107.5,159.5 C 109.604,159.201 111.604,159.534 113.5,160.5C 111.49,161.065 109.824,162.065 108.5,163.5C 109.999,165.802 111.332,165.469 112.5,162.5C 114.23,166.606 112.897,168.106 108.5,167C 106.285,164.758 105.952,162.258 107.5,159.5 Z"/></g>
<g><path style="opacity:0.392" fill="#000000" d="M 124.5,159.5 C 126.288,159.215 127.955,159.548 129.5,160.5C 128.624,161.251 127.624,161.751 126.5,162C 130.456,163.114 130.456,163.947 126.5,164.5C 126.719,165.675 126.386,166.675 125.5,167.5C 124.52,164.914 124.187,162.247 124.5,159.5 Z"/></g>
<g><path style="opacity:0.331" fill="#000000" d="M 134.5,159.5 C 140.951,159.092 142.618,161.592 139.5,167C 133.438,167.135 131.772,164.635 134.5,159.5 Z M 135.5,161.5 C 136.5,161.5 137.5,161.5 138.5,161.5C 137.5,166.833 136.5,166.833 135.5,161.5 Z"/></g>
<g><path style="opacity:0.326" fill="#000000" d="M 145.5,159.5 C 147.467,159.261 149.301,159.594 151,160.5C 150.773,162.574 150.939,164.574 151.5,166.5C 150.132,167.594 148.965,167.26 148,165.5C 147.29,166.973 146.124,167.64 144.5,167.5C 144.279,164.721 144.612,162.054 145.5,159.5 Z"/></g>
<g><path style="opacity:0.414" fill="#000000" d="M 162.5,159.5 C 164.977,159.051 166.977,159.717 168.5,161.5C 168.12,163.021 167.954,164.687 168,166.5C 166.301,167.406 164.467,167.739 162.5,167.5C 162.5,164.833 162.5,162.167 162.5,159.5 Z"/></g>
<g><path style="opacity:0.363" fill="#000000" d="M 174.5,159.5 C 175.5,159.5 176.5,159.5 177.5,159.5C 177.724,161.787 178.391,163.953 179.5,166C 179.167,166.5 178.833,167 178.5,167.5C 176.745,164.977 174.911,164.977 173,167.5C 172.5,167.167 172,166.833 171.5,166.5C 172.788,164.261 173.788,161.928 174.5,159.5 Z"/></g>
<g><path style="opacity:0.415" fill="#000000" d="M 183.5,159.5 C 185.977,159.051 187.977,159.717 189.5,161.5C 189.12,163.021 188.954,164.687 189,166.5C 187.301,167.406 185.467,167.739 183.5,167.5C 183.5,164.833 183.5,162.167 183.5,159.5 Z"/></g>
<g><path style="opacity:0.227" fill="#000000" d="M 193.5,159.5 C 194.5,159.5 195.5,159.5 196.5,159.5C 196.5,162.167 196.5,164.833 196.5,167.5C 195.5,167.5 194.5,167.5 193.5,167.5C 193.5,164.833 193.5,162.167 193.5,159.5 Z"/></g>
<g><path style="opacity:0.314" fill="#000000" d="M 200.5,159.5 C 202.604,159.201 204.604,159.534 206.5,160.5C 205.167,161.5 205.167,162.5 206.5,163.5C 205.271,164.281 203.938,164.781 202.5,165C 203.938,165.219 205.271,165.719 206.5,166.5C 204.604,167.466 202.604,167.799 200.5,167.5C 200.5,164.833 200.5,162.167 200.5,159.5 Z"/></g>
<g><path style="opacity:0.359" fill="#000000" d="M 210.5,159.5 C 212.288,159.215 213.955,159.548 215.5,160.5C 214.975,161.192 214.308,161.692 213.5,162C 216.234,162.718 216.9,164.218 215.5,166.5C 213.958,167.747 212.458,167.747 211,166.5C 210.544,165.256 211.044,164.423 212.5,164C 210.893,162.951 210.227,161.451 210.5,159.5 Z"/></g>
<g><path style="opacity:0.372" fill="#000000" d="M 228.5,159.5 C 229.5,159.5 230.5,159.5 231.5,159.5C 231.798,162.265 232.798,164.765 234.5,167C 232.801,167.393 231.301,166.893 230,165.5C 228.699,166.893 227.199,167.393 225.5,167C 226.991,164.692 227.991,162.192 228.5,159.5 Z"/></g>
<g><path style="opacity:0.341" fill="#000000" d="M 237.5,159.5 C 239.017,159.511 240.184,160.177 241,161.5C 241.71,160.027 242.876,159.36 244.5,159.5C 244.5,162.167 244.5,164.833 244.5,167.5C 242.408,167.439 240.908,166.439 240,164.5C 239.751,165.624 239.251,166.624 238.5,167.5C 237.52,164.914 237.187,162.247 237.5,159.5 Z"/></g>
<g><path style="opacity:0.316" fill="#000000" d="M 248.5,159.5 C 250.527,159.338 252.527,159.505 254.5,160C 257.08,162.12 257.08,164.287 254.5,166.5C 252.591,167.348 250.591,167.682 248.5,167.5C 248.5,164.833 248.5,162.167 248.5,159.5 Z M 251.5,161.5 C 253.97,162.36 254.137,163.694 252,165.5C 251.51,164.207 251.343,162.873 251.5,161.5 Z"/></g>
<g><path style="opacity:0.34" fill="#000000" d="M 266.5,159.5 C 268.411,159.574 269.578,160.574 270,162.5C 270.908,160.561 272.408,159.561 274.5,159.5C 274.5,162.167 274.5,164.833 274.5,167.5C 272.418,167.528 270.584,166.861 269,165.5C 268.692,166.308 268.192,166.975 267.5,167.5C 266.52,164.914 266.187,162.247 266.5,159.5 Z"/></g>
<g><path style="opacity:0.304" fill="#000000" d="M 278.5,159.5 C 279.5,159.5 280.5,159.5 281.5,159.5C 281.338,161.527 281.505,163.527 282,165.5C 282.5,165 283,164.5 283.5,164C 282.62,162.644 282.286,161.144 282.5,159.5C 283.5,159.5 284.5,159.5 285.5,159.5C 285.662,161.527 285.495,163.527 285,165.5C 283,168.167 281,168.167 279,165.5C 278.505,163.527 278.338,161.527 278.5,159.5 Z"/></g>
<g><path style="opacity:0.306" fill="#000000" d="M 289.5,159.5 C 291.592,159.561 293.092,160.561 294,162.5C 294.368,161.09 295.201,160.09 296.5,159.5C 298.229,161.851 298.896,164.518 298.5,167.5C 296.876,167.64 295.71,166.973 295,165.5C 293.416,166.861 291.582,167.528 289.5,167.5C 289.5,164.833 289.5,162.167 289.5,159.5 Z"/></g>
<g><path style="opacity:0.358" fill="#000000" d="M 302.5,159.5 C 304.411,159.574 305.578,160.574 306,162.5C 306.908,160.561 308.408,159.561 310.5,159.5C 310.813,162.247 310.48,164.914 309.5,167.5C 308.749,166.624 308.249,165.624 308,164.5C 306.471,165.583 304.971,166.583 303.5,167.5C 302.52,164.914 302.187,162.247 302.5,159.5 Z"/></g>
<g><path style="opacity:0.223" fill="#000000" d="M 314.5,159.5 C 315.5,159.5 316.5,159.5 317.5,159.5C 317.5,162.167 317.5,164.833 317.5,167.5C 316.5,167.5 315.5,167.5 314.5,167.5C 314.5,164.833 314.5,162.167 314.5,159.5 Z"/></g>
<g><path style="opacity:0.342" fill="#000000" d="M 321.5,159.5 C 323.604,159.201 325.604,159.534 327.5,160.5C 326.754,161.736 326.421,163.07 326.5,164.5C 325.448,164.351 324.448,164.517 323.5,165C 324.938,165.219 326.271,165.719 327.5,166.5C 325.604,167.466 323.604,167.799 321.5,167.5C 321.5,164.833 321.5,162.167 321.5,159.5 Z"/></g>
<g><path style="opacity:0.337" fill="#000000" d="M 331.5,159.5 C 333.288,159.215 334.955,159.548 336.5,160.5C 335.975,161.192 335.308,161.692 334.5,162C 336.658,163.312 336.991,164.978 335.5,167C 333.359,167.884 331.693,167.384 330.5,165.5C 331.376,164.749 332.376,164.249 333.5,164C 330.715,163.274 330.048,161.774 331.5,159.5 Z"/></g>
</svg>
