<?xml version="1.0" encoding="UTF-8"?>
<!DOCTYPE svg PUBLIC "-//W3C//DTD SVG 1.1//EN" "http://www.w3.org/Graphics/SVG/1.1/DTD/svg11.dtd">
<svg xmlns="http://www.w3.org/2000/svg" version="1.1" width="378px" height="265px" style="shape-rendering:geometricPrecision; text-rendering:geometricPrecision; image-rendering:optimizeQuality; fill-rule:evenodd; clip-rule:evenodd" xmlns:xlink="http://www.w3.org/1999/xlink">
<g><path style="opacity:0.869" fill="#000000" d="M 36.5,94.5 C 40.1667,94.5 43.8333,94.5 47.5,94.5C 45.0382,108.143 42.7048,121.809 40.5,135.5C 41.5,135.5 42.5,135.5 43.5,135.5C 43.7683,138.119 43.435,140.619 42.5,143C 30.4874,145.984 26.3208,141.484 30,129.5C 31.9576,117.75 34.1242,106.083 36.5,94.5 Z"/></g>
<g><path style="opacity:0.532" fill="#6b72ac" d="M 184.5,97.5 C 182.712,97.7852 181.045,97.4519 179.5,96.5C 181.122,94.3771 183.122,94.0437 185.5,95.5C 185.137,96.1835 184.804,96.8501 184.5,97.5 Z"/></g>
<g><path style="opacity:0.621" fill="#6c8ab6" d="M 187.5,94.5 C 189.924,94.1924 192.257,94.5258 194.5,95.5C 193.333,95.8333 192.167,96.1667 191,96.5C 189.319,96.3917 188.152,95.7251 187.5,94.5 Z"/></g>
<g><path style="opacity:0.804" fill="#6c7eb1" d="M 184.5,97.5 C 191.681,97.619 192.014,98.619 185.5,100.5C 184.614,99.675 184.281,98.675 184.5,97.5 Z"/></g>
<g><path style="opacity:0.4" fill="#6b5ba2" d="M 177.5,99.5 C 176.833,99.5 176.5,99.8333 176.5,100.5C 174.883,101.038 173.216,101.371 171.5,101.5C 172.388,99.1911 174.054,97.5244 176.5,96.5C 178.519,97.1329 178.853,98.1329 177.5,99.5 Z"/></g>
<g><path style="opacity:0.58" fill="#6b66a7" d="M 179.5,102.5 C 177.821,102.715 176.821,102.048 176.5,100.5C 177.167,100.5 177.5,100.167 177.5,99.5C 182.948,98.1005 183.614,99.1005 179.5,102.5 Z"/></g>
<g><path style="opacity:0.346" fill="#6c9bbd" d="M 194.5,101.5 C 190.686,98.446 191.353,97.2794 196.5,98C 195.007,96.8438 195.174,96.0104 197,95.5C 201.859,96.4816 202.359,98.1483 198.5,100.5C 197.311,101.429 195.978,101.762 194.5,101.5 Z"/></g>
<g><path style="opacity:0.548" fill="#6db1c6" d="M 204.5,103.5 C 204.5,102.833 204.167,102.5 203.5,102.5C 203.5,101.833 203.167,101.5 202.5,101.5C 202.843,99.7748 203.843,99.2748 205.5,100C 209.843,103.384 209.51,104.551 204.5,103.5 Z"/></g>
<g><path style="opacity:0.496" fill="#6dacc4" d="M 202.5,101.5 C 203.167,101.5 203.5,101.833 203.5,102.5C 204.167,102.5 204.5,102.833 204.5,103.5C 204.5,104.5 204.5,105.5 204.5,106.5C 203.609,105.89 202.609,105.557 201.5,105.5C 199.681,104.064 199.348,102.397 200.5,100.5C 201.183,100.863 201.85,101.196 202.5,101.5 Z"/></g>
<g><path style="opacity:0.716" fill="#6c79af" d="M 183.5,101.5 C 185.167,101.5 186.833,101.5 188.5,101.5C 188.5,102.167 188.5,102.833 188.5,103.5C 186.784,103.629 185.117,103.962 183.5,104.5C 183.5,103.5 183.5,102.5 183.5,101.5 Z"/></g>
<g><path style="opacity:0.535" fill="#6c8db7" d="M 188.5,101.5 C 190.167,101.5 191.833,101.5 193.5,101.5C 193.5,102.5 193.5,103.5 193.5,104.5C 191.883,103.962 190.216,103.629 188.5,103.5C 188.5,102.833 188.5,102.167 188.5,101.5 Z"/></g>
<g><path style="opacity:0.688" fill="#6a4c9c" d="M 171.5,101.5 C 171.5,102.5 171.5,103.5 171.5,104.5C 170.833,104.5 170.5,104.833 170.5,105.5C 166.849,108.349 166.015,107.682 168,103.5C 168.816,102.177 169.983,101.511 171.5,101.5 Z"/></g>
<g><path style="opacity:0.849" fill="#6b65a7" d="M 183.5,101.5 C 183.5,102.5 183.5,103.5 183.5,104.5C 181.517,105.471 179.517,106.471 177.5,107.5C 177.5,106.5 177.5,105.5 177.5,104.5C 178.5,104.167 179.167,103.5 179.5,102.5C 180.959,102.567 182.292,102.234 183.5,101.5 Z"/></g>
<g><path style="opacity:0.575" fill="#6da0bf" d="M 193.5,101.5 C 193.833,101.5 194.167,101.5 194.5,101.5C 195.833,102.5 197.167,103.5 198.5,104.5C 198.5,105.167 198.5,105.833 198.5,106.5C 196.716,106.107 195.05,105.441 193.5,104.5C 193.5,103.5 193.5,102.5 193.5,101.5 Z"/></g>
<g><path style="opacity:0.55" fill="#6a509e" d="M 175.5,105.5 C 174.167,105.5 173.5,106.167 173.5,107.5C 171.821,107.715 170.821,107.048 170.5,105.5C 171.167,105.5 171.5,105.167 171.5,104.5C 172.482,103.859 173.482,103.193 174.5,102.5C 175.386,103.325 175.719,104.325 175.5,105.5 Z"/></g>
<g><path style="opacity:0.609" fill="#6ebecb" d="M 209.5,110.5 C 209.672,109.508 209.338,108.842 208.5,108.5C 208.354,106.058 209.187,105.391 211,106.5C 213.47,109.828 212.97,111.161 209.5,110.5 Z"/></g>
<g><path style="opacity:0.874" fill="#000000" d="M 66.5,106.5 C 80.1297,107.75 85.463,115.084 82.5,128.5C 74.5,128.5 66.5,128.5 58.5,128.5C 58.1799,134.997 61.1799,137.164 67.5,135C 71.1939,131.021 75.8606,129.521 81.5,130.5C 76.7323,142.382 68.0656,146.549 55.5,143C 52.8293,141.75 50.6626,139.917 49,137.5C 44.5279,121.093 50.3613,110.76 66.5,106.5 Z M 63.5,115.5 C 65.8568,115.337 68.1902,115.503 70.5,116C 71.4061,117.699 71.7394,119.533 71.5,121.5C 67.4862,121.666 63.4862,121.499 59.5,121C 60.6647,119.008 61.998,117.175 63.5,115.5 Z"/></g>
<g><path style="opacity:0.854" fill="#000000" d="M 109.5,106.5 C 120.56,106.397 124.726,111.73 122,122.5C 120.895,129.523 119.728,136.523 118.5,143.5C 114.833,143.5 111.167,143.5 107.5,143.5C 108.497,136.177 109.497,128.844 110.5,121.5C 111.234,115.933 108.901,114.1 103.5,116C 101.951,117.214 100.785,118.714 100,120.5C 98.0688,128.088 96.5688,135.755 95.5,143.5C 91.8333,143.5 88.1667,143.5 84.5,143.5C 86.0081,132.124 87.8414,120.791 90,109.5C 93.4935,107.623 97.3268,106.956 101.5,107.5C 101.351,108.552 101.517,109.552 102,110.5C 104.255,108.501 106.755,107.168 109.5,106.5 Z"/></g>
<g><path style="opacity:0.861" fill="#000000" d="M 143.5,106.5 C 149.374,106.225 154.208,108.225 158,112.5C 157.969,122.887 157.136,133.22 155.5,143.5C 151.833,143.5 148.167,143.5 144.5,143.5C 144.557,139.867 143.557,139.7 141.5,143C 128.126,146.622 122.959,141.789 126,128.5C 131.885,122.538 138.885,120.205 147,121.5C 148.5,116.333 146.667,114.5 141.5,116C 137.77,120.308 133.103,121.474 127.5,119.5C 130.526,112.124 135.859,107.791 143.5,106.5 Z M 139.5,128.5 C 141.5,128.5 143.5,128.5 145.5,128.5C 145.188,134.136 142.188,136.469 136.5,135.5C 135.909,132.325 136.909,129.991 139.5,128.5 Z"/></g>
<g><path style="opacity:0.558" fill="#6ebdcb" d="M 204.5,106.5 C 206.199,106.527 207.533,107.194 208.5,108.5C 208.328,109.492 208.662,110.158 209.5,110.5C 209.179,112.048 208.179,112.715 206.5,112.5C 206.672,111.508 206.338,110.842 205.5,110.5C 205.167,109.167 204.833,107.833 204.5,106.5 Z"/></g>
<g><path style="opacity:0.856" fill="#000000" d="M 273.5,106.5 C 278.095,106.719 282.429,107.885 286.5,110C 287.46,111.419 288.293,112.919 289,114.5C 288.059,124.157 286.892,133.823 285.5,143.5C 281.833,143.5 278.167,143.5 274.5,143.5C 274.649,142.448 274.483,141.448 274,140.5C 268.096,145.8 262.096,145.8 256,140.5C 253.063,130.887 256.563,124.721 266.5,122C 269.372,121.685 272.205,121.185 275,120.5C 275.772,120.645 276.439,120.978 277,121.5C 277.495,119.527 277.662,117.527 277.5,115.5C 273.189,114.536 270.189,116.036 268.5,120C 265.183,120.498 261.85,120.665 258.5,120.5C 260.28,112.387 265.28,107.72 273.5,106.5 Z M 269.5,128.5 C 271.857,128.337 274.19,128.503 276.5,129C 275.348,134.414 272.015,136.581 266.5,135.5C 265.909,132.325 266.909,129.991 269.5,128.5 Z"/></g>
<g><path style="opacity:0.853" fill="#000000" d="M 315.5,106.5 C 317.311,106.572 318.644,107.405 319.5,109C 318.591,110.789 318.424,112.623 319,114.5C 320.563,111.272 323.063,109.105 326.5,108C 332.426,106.89 338.092,107.556 343.5,110C 346.029,112.642 347.029,115.808 346.5,119.5C 343.15,119.665 339.817,119.498 336.5,119C 334.738,114.078 332.405,113.578 329.5,117.5C 332.467,120.658 336.134,122.824 340.5,124C 345.153,126.942 346.653,131.109 345,136.5C 341.733,142.302 336.733,144.968 330,144.5C 320.633,144.955 315.466,140.622 314.5,131.5C 318.167,131.5 321.833,131.5 325.5,131.5C 325.421,132.93 325.754,134.264 326.5,135.5C 328.743,136.474 331.076,136.808 333.5,136.5C 333.739,134.533 333.406,132.699 332.5,131C 327.233,129.807 322.733,127.307 319,123.5C 318.023,121.26 317.523,118.927 317.5,116.5C 310.25,115.912 306.083,119.246 305,126.5C 303.731,132.111 302.898,137.778 302.5,143.5C 298.5,143.5 294.5,143.5 290.5,143.5C 292.45,131.804 294.616,120.137 297,108.5C 300.394,107.544 303.894,107.211 307.5,107.5C 307.343,108.873 307.51,110.207 308,111.5C 309.913,108.72 312.413,107.053 315.5,106.5 Z"/></g>
<g><path style="opacity:0.627" fill="#6a4c9c" d="M 177.5,104.5 C 177.5,105.5 177.5,106.5 177.5,107.5C 175.774,109.228 174.441,111.228 173.5,113.5C 172.596,112.791 172.263,111.791 172.5,110.5C 172.557,109.391 172.89,108.391 173.5,107.5C 174.5,107.167 175.167,106.5 175.5,105.5C 176.167,105.167 176.833,104.833 177.5,104.5 Z"/></g>
<g><path style="opacity:0.527" fill="#6db5c8" d="M 198.5,104.5 C 199.391,105.11 200.391,105.443 201.5,105.5C 202.6,106.605 203.267,107.938 203.5,109.5C 203.5,110.5 203.5,111.5 203.5,112.5C 201.863,110.525 200.196,108.525 198.5,106.5C 198.5,105.833 198.5,105.167 198.5,104.5 Z"/></g>
<g><path style="opacity:0.865" fill="#000000" d="M 232.5,107.5 C 238.434,106.889 244.1,107.722 249.5,110C 252.742,113.117 254.409,116.951 254.5,121.5C 250.774,121.823 247.107,121.489 243.5,120.5C 241.652,115.421 238.318,114.254 233.5,117C 229.436,122.697 228.769,128.697 231.5,135C 233.833,135.667 236.167,135.667 238.5,135C 239.833,133.333 241.167,131.667 242.5,130C 245.817,129.502 249.15,129.335 252.5,129.5C 249.395,140.563 242.061,145.396 230.5,144C 222.166,142.83 217.833,137.997 217.5,129.5C 218.065,119.008 223.065,111.674 232.5,107.5 Z"/></g>
<g><path style="opacity:0.496" fill="#6a4198" d="M 166.5,112.5 C 165.596,113.209 165.263,114.209 165.5,115.5C 164.325,115.719 163.325,115.386 162.5,114.5C 163.123,112.289 164.123,110.289 165.5,108.5C 166.429,109.689 166.762,111.022 166.5,112.5 Z"/></g>
<g><path style="opacity:0.564" fill="#6a4298" d="M 169.5,114.5 C 167.821,114.715 166.821,114.048 166.5,112.5C 167.141,110.958 168.141,109.624 169.5,108.5C 170.231,110.401 170.231,112.401 169.5,114.5 Z"/></g>
<g><path style="opacity:0.537" fill="#b0cce6" d="M 198.5,111.5 C 197.833,112.833 196.833,113.833 195.5,114.5C 193.735,113.539 191.735,113.205 189.5,113.5C 192.219,112.087 195.219,111.42 198.5,111.5 Z"/></g>
<g><path style="opacity:0.575" fill="#6ec2cd" d="M 203.5,109.5 C 204.167,109.833 204.833,110.167 205.5,110.5C 205.328,111.492 205.662,112.158 206.5,112.5C 207.295,116.785 207.628,121.119 207.5,125.5C 206.463,126.93 205.796,128.597 205.5,130.5C 204.833,130.833 204.167,131.167 203.5,131.5C 203.5,130.5 203.5,129.5 203.5,128.5C 204.833,123.167 204.833,117.833 203.5,112.5C 203.5,111.5 203.5,110.5 203.5,109.5 Z"/></g>
<g><path style="opacity:1" fill="#c0daee" d="M 189.5,113.5 C 191.735,113.205 193.735,113.539 195.5,114.5C 191.462,117.512 187.462,120.512 183.5,123.5C 180.349,121.417 177.349,119.084 174.5,116.5C 179.245,114.351 184.245,113.351 189.5,113.5 Z"/></g>
<g><path style="opacity:0.667" fill="#6ec5ce" d="M 211.5,113.5 C 212.5,113.5 213.5,113.5 214.5,113.5C 214.799,115.604 214.466,117.604 213.5,119.5C 211.995,116.869 211.329,117.203 211.5,120.5C 210.5,120.5 209.5,120.5 208.5,120.5C 208.201,118.396 208.534,116.396 209.5,114.5C 211.005,117.131 211.671,116.797 211.5,113.5 Z"/></g>
<g><path style="opacity:0.622" fill="#693f97" d="M 172.5,110.5 C 172.263,111.791 172.596,112.791 173.5,113.5C 171.543,117.73 171.21,122.064 172.5,126.5C 172.5,127.833 172.5,129.167 172.5,130.5C 171.833,129.833 171.167,129.167 170.5,128.5C 170.672,127.508 170.338,126.842 169.5,126.5C 169.5,122.5 169.5,118.5 169.5,114.5C 170.5,113.167 171.5,111.833 172.5,110.5 Z"/></g>
<g><path style="opacity:0.818" fill="#779fce" d="M 198.5,111.5 C 196.183,119.181 192.85,126.848 188.5,134.5C 186.254,131.096 184.588,127.429 183.5,123.5C 187.462,120.512 191.462,117.512 195.5,114.5C 196.833,113.833 197.833,112.833 198.5,111.5 Z"/></g>
<g><path style="opacity:0.672" fill="#6a3e97" d="M 162.5,116.5 C 163.725,117.152 164.392,118.319 164.5,120C 164.167,121.167 163.833,122.333 163.5,123.5C 162.526,121.257 162.192,118.924 162.5,116.5 Z"/></g>
<g><path style="opacity:0.323" fill="#6a3e96" d="M 165.5,116.5 C 166.5,116.5 167.5,116.5 168.5,116.5C 168.5,118.5 168.5,120.5 168.5,122.5C 167.5,122.5 166.5,122.5 165.5,122.5C 165.5,120.5 165.5,118.5 165.5,116.5 Z"/></g>
<g><path style="opacity:0.538" fill="#6ec4ce" d="M 207.5,125.5 C 208.404,124.791 208.737,123.791 208.5,122.5C 210.262,122.643 211.929,122.309 213.5,121.5C 214.854,124.067 214.52,126.401 212.5,128.5C 211.224,123.318 210.557,123.318 210.5,128.5C 209.5,128.5 208.5,128.5 207.5,128.5C 207.5,127.5 207.5,126.5 207.5,125.5 Z"/></g>
<g><path style="opacity:0.623" fill="#6a4198" d="M 169.5,126.5 C 169.328,127.492 169.662,128.158 170.5,128.5C 170.53,129.497 170.03,130.164 169,130.5C 167.989,129.944 167.156,129.278 166.5,128.5C 166.334,124.627 167.334,123.96 169.5,126.5 Z"/></g>
<g><path style="opacity:0.546" fill="#6a4197" d="M 166.5,128.5 C 166.719,129.675 166.386,130.675 165.5,131.5C 163.953,130.232 162.953,128.565 162.5,126.5C 163.325,125.614 164.325,125.281 165.5,125.5C 165.263,126.791 165.596,127.791 166.5,128.5 Z"/></g>
<g><path style="opacity:0.643" fill="#6dbdcb" d="M 203.5,135.5 C 203.5,134.833 203.5,134.167 203.5,133.5C 204.906,133.027 205.573,132.027 205.5,130.5C 207.499,129.143 208.665,129.81 209,132.5C 210.834,128.693 211.834,128.693 212,132.5C 211.221,133.728 210.221,134.728 209,135.5C 207.31,134.851 205.477,134.851 203.5,135.5 Z"/></g>
<g><path style="opacity:0.41" fill="#6a4c9c" d="M 172.5,126.5 C 173.909,128.972 175.576,131.305 177.5,133.5C 177.5,134.167 177.5,134.833 177.5,135.5C 176.391,135.443 175.391,135.11 174.5,134.5C 174.5,133.833 174.167,133.5 173.5,133.5C 173.443,132.391 173.11,131.391 172.5,130.5C 172.5,129.167 172.5,127.833 172.5,126.5 Z"/></g>
<g><path style="opacity:0.669" fill="#6a4e9d" d="M 173.5,133.5 C 174.167,133.5 174.5,133.833 174.5,134.5C 174.598,137.248 173.598,137.914 171.5,136.5C 171.5,135.833 171.167,135.5 170.5,135.5C 170.5,134.833 170.167,134.5 169.5,134.5C 169.281,133.325 169.614,132.325 170.5,131.5C 171.518,132.193 172.518,132.859 173.5,133.5 Z"/></g>
<g><path style="opacity:0.628" fill="#6daec5" d="M 203.5,128.5 C 203.5,129.5 203.5,130.5 203.5,131.5C 203.5,132.167 203.5,132.833 203.5,133.5C 202.5,133.833 201.833,134.5 201.5,135.5C 199.833,136.167 198.167,136.833 196.5,137.5C 196.5,136.833 196.5,136.167 196.5,135.5C 199.167,133.5 201.5,131.167 203.5,128.5 Z"/></g>
<g><path style="opacity:0.687" fill="#6b61a5" d="M 177.5,133.5 C 179.368,134.263 181.035,135.263 182.5,136.5C 182.5,137.167 182.5,137.833 182.5,138.5C 180.326,138.25 178.659,137.25 177.5,135.5C 177.5,134.833 177.5,134.167 177.5,133.5 Z"/></g>
<g><path style="opacity:0.391" fill="#6a4c9d" d="M 169.5,134.5 C 170.167,134.5 170.5,134.833 170.5,135.5C 171.167,135.5 171.5,135.833 171.5,136.5C 171.5,137.167 171.5,137.833 171.5,138.5C 167.641,138.105 166.308,136.105 167.5,132.5C 168.182,133.243 168.849,133.909 169.5,134.5 Z"/></g>
<g><path style="opacity:0.536" fill="#6daac3" d="M 201.5,135.5 C 202.167,135.5 202.833,135.5 203.5,135.5C 203.5,136.5 203.5,137.5 203.5,138.5C 202.833,138.5 202.5,138.833 202.5,139.5C 200.761,140.434 199.095,140.434 197.5,139.5C 199.188,138.479 200.521,137.145 201.5,135.5 Z"/></g>
<g><path style="opacity:0.539" fill="#6b71ab" d="M 182.5,136.5 C 183.5,136.5 184.5,136.5 185.5,136.5C 185.5,137.5 185.5,138.5 185.5,139.5C 184.209,139.737 183.209,139.404 182.5,138.5C 182.5,137.833 182.5,137.167 182.5,136.5 Z"/></g>
<g><path style="opacity:0.537" fill="#6c94ba" d="M 196.5,135.5 C 196.5,136.167 196.5,136.833 196.5,137.5C 195.833,138.167 195.167,138.833 194.5,139.5C 193.167,139.5 191.833,139.5 190.5,139.5C 190.5,138.833 190.5,138.167 190.5,137.5C 192.302,136.542 194.302,135.875 196.5,135.5 Z"/></g>
<g><path style="opacity:0.596" fill="#6db0c5" d="M 202.5,139.5 C 203.167,139.5 203.5,139.167 203.5,138.5C 204.482,137.859 205.482,137.193 206.5,136.5C 207.784,139.263 206.784,140.93 203.5,141.5C 202.702,141.043 202.369,140.376 202.5,139.5 Z"/></g>
<g><path style="opacity:0.836" fill="#6c82b2" d="M 185.5,136.5 C 187.042,137.301 188.708,137.634 190.5,137.5C 190.5,138.167 190.5,138.833 190.5,139.5C 188.833,139.5 187.167,139.5 185.5,139.5C 185.5,138.5 185.5,137.5 185.5,136.5 Z"/></g>
<g><path style="opacity:0.634" fill="#6b63a5" d="M 177.5,141.5 C 177.5,140.833 177.167,140.5 176.5,140.5C 175.438,139.425 175.438,138.425 176.5,137.5C 178.332,138.248 179.999,139.248 181.5,140.5C 180.311,141.429 178.978,141.762 177.5,141.5 Z"/></g>
<g><path style="opacity:0.529" fill="#6b5da3" d="M 171.5,138.5 C 173.167,139.167 174.833,139.833 176.5,140.5C 177.167,140.5 177.5,140.833 177.5,141.5C 177.157,143.225 176.157,143.725 174.5,143C 172.561,142.092 171.561,140.592 171.5,138.5 Z"/></g>
<g><path style="opacity:0.494" fill="#6b79af" d="M 183.5,143.5 C 181.922,141.682 182.422,140.682 185,140.5C 186.662,140.388 187.829,141.054 188.5,142.5C 186.955,143.452 185.288,143.785 183.5,143.5 Z"/></g>
<g><path style="opacity:0.529" fill="#6c92b9" d="M 194.5,139.5 C 196.048,139.821 196.715,140.821 196.5,142.5C 195.508,142.328 194.842,142.662 194.5,143.5C 193.167,143.5 191.833,143.5 190.5,143.5C 190.5,142.5 190.5,141.5 190.5,140.5C 192.099,140.768 193.432,140.434 194.5,139.5 Z"/></g>
<g><path style="opacity:0.393" fill="#6d9ebe" d="M 194.5,143.5 C 195.492,143.672 196.158,143.338 196.5,142.5C 197.695,142.322 198.862,141.989 200,141.5C 201.826,142.01 201.993,142.844 200.5,144C 198.03,146.014 196.03,145.847 194.5,143.5 Z"/></g>
<g><path style="opacity:0.603" fill="#6b71ac" d="M 183.5,143.5 C 184.091,144.151 184.757,144.818 185.5,145.5C 183.03,146.639 180.697,146.306 178.5,144.5C 179.714,142.246 181.381,141.913 183.5,143.5 Z"/></g>
<g><path style="opacity:0.749" fill="#6c86b4" d="M 186.5,144.5 C 188.924,144.192 191.257,144.526 193.5,145.5C 192.333,145.833 191.167,146.167 190,146.5C 188.319,146.392 187.152,145.725 186.5,144.5 Z"/></g>
<g><path style="opacity:0.614" fill="#000000" d="M 121.5,154.5 C 122.5,154.5 123.5,154.5 124.5,154.5C 124.5,155.833 124.5,157.167 124.5,158.5C 132.618,158.382 134.618,161.882 130.5,169C 127.518,169.498 124.518,169.665 121.5,169.5C 121.5,164.5 121.5,159.5 121.5,154.5 Z M 126.5,160.5 C 129.077,161.69 129.91,163.69 129,166.5C 126.785,167.82 125.285,167.153 124.5,164.5C 125.18,163.14 125.847,161.807 126.5,160.5 Z"/></g>
<g><path style="opacity:0.404" fill="#000000" d="M 133.5,154.5 C 134.5,154.5 135.5,154.5 136.5,154.5C 136.5,155.5 136.5,156.5 136.5,157.5C 135.5,157.5 134.5,157.5 133.5,157.5C 133.5,156.5 133.5,155.5 133.5,154.5 Z"/></g>
<g><path style="opacity:0.624" fill="#000000" d="M 138.5,154.5 C 139.5,154.5 140.5,154.5 141.5,154.5C 141.5,159.5 141.5,164.5 141.5,169.5C 140.5,169.5 139.5,169.5 138.5,169.5C 138.5,164.5 138.5,159.5 138.5,154.5 Z"/></g>
<g><path style="opacity:0.611" fill="#000000" d="M 150.5,154.5 C 151.5,154.5 152.5,154.5 153.5,154.5C 153.5,159.5 153.5,164.5 153.5,169.5C 149.649,170.029 146.149,169.362 143,167.5C 140.997,160.673 143.497,157.673 150.5,158.5C 150.5,157.167 150.5,155.833 150.5,154.5 Z M 146.5,160.5 C 149.989,161.807 150.989,164.141 149.5,167.5C 145.452,166.738 144.452,164.404 146.5,160.5 Z"/></g>
<g><path style="opacity:0.479" fill="#000000" d="M 234.5,154.5 C 235.833,154.5 237.167,154.5 238.5,154.5C 238.5,159.5 238.5,164.5 238.5,169.5C 237.167,169.5 235.833,169.5 234.5,169.5C 234.5,164.5 234.5,159.5 234.5,154.5 Z"/></g>
<g><path style="opacity:0.402" fill="#000000" d="M 239.5,154.5 C 240.5,154.5 241.5,154.5 242.5,154.5C 242.5,155.5 242.5,156.5 242.5,157.5C 241.5,157.5 240.5,157.5 239.5,157.5C 239.5,156.5 239.5,155.5 239.5,154.5 Z"/></g>
<g><path style="opacity:0.605" fill="#000000" d="M 80.5,160.5 C 77.9791,162.03 76.9791,164.364 77.5,167.5C 78.5,167.5 79.5,167.5 80.5,167.5C 79.1722,169.745 77.3388,170.078 75,168.5C 74.6667,165.833 74.3333,163.167 74,160.5C 73.658,168.832 69.4914,171.665 61.5,169C 56.2587,164.796 56.2587,160.463 61.5,156C 64.1667,155.333 66.8333,155.333 69.5,156C 71.3333,156.5 72.5,157.667 73,159.5C 74.6667,158.5 76,157.167 77,155.5C 77.4828,156.448 77.6495,157.448 77.5,158.5C 79.1788,158.285 80.1788,158.952 80.5,160.5 Z M 64.5,157.5 C 69.9768,158.78 71.3102,161.78 68.5,166.5C 62.5339,168.031 60.3672,165.697 62,159.5C 62.9947,158.934 63.828,158.267 64.5,157.5 Z"/></g>
<g><path style="opacity:0.609" fill="#000000" d="M 175.5,155.5 C 178.518,155.335 181.518,155.502 184.5,156C 186.559,157.185 186.726,158.352 185,159.5C 177.591,156.103 174.757,158.269 176.5,166C 179.338,168.12 182.004,167.953 184.5,165.5C 182.955,164.548 181.288,164.215 179.5,164.5C 179.5,163.5 179.5,162.5 179.5,161.5C 182.167,161.5 184.833,161.5 187.5,161.5C 187.945,164.365 187.278,166.865 185.5,169C 182.167,169.667 178.833,169.667 175.5,169C 170.316,164.522 170.316,160.022 175.5,155.5 Z"/></g>
<g><path style="opacity:0.536" fill="#000000" d="M 210.5,161.5 C 208.98,163.89 207.98,166.557 207.5,169.5C 205.856,169.714 204.356,169.38 203,168.5C 201.803,165.911 200.803,163.244 200,160.5C 199.502,163.482 199.335,166.482 199.5,169.5C 196.102,169.82 192.768,169.487 189.5,168.5C 188.161,164.031 188.494,159.698 190.5,155.5C 191.5,155.5 192.5,155.5 193.5,155.5C 193.64,157.124 192.973,158.29 191.5,159C 192.444,161.719 192.777,164.552 192.5,167.5C 193.5,167.5 194.5,167.5 195.5,167.5C 195.223,164.552 195.556,161.719 196.5,159C 195.027,158.29 194.36,157.124 194.5,155.5C 195.5,155.5 196.5,155.5 197.5,155.5C 197.5,156.5 197.5,157.5 197.5,158.5C 202.13,158.352 204.63,160.686 205,165.5C 205.931,163.541 206.764,161.541 207.5,159.5C 210.778,157.849 211.778,158.515 210.5,161.5 Z"/></g>
<g><path style="opacity:0.627" fill="#000000" d="M 250.5,155.5 C 254.182,155.335 257.848,155.501 261.5,156C 264.399,159.156 264.065,161.822 260.5,164C 261.833,165.667 263.167,167.333 264.5,169C 263.167,169.667 261.833,169.667 260.5,169C 259.323,165.651 256.99,164.151 253.5,164.5C 253.5,166.167 253.5,167.833 253.5,169.5C 252.5,169.5 251.5,169.5 250.5,169.5C 250.5,164.833 250.5,160.167 250.5,155.5 Z M 253.5,158.5 C 255.833,158.5 258.167,158.5 260.5,158.5C 260.5,159.5 260.5,160.5 260.5,161.5C 258.167,161.5 255.833,161.5 253.5,161.5C 253.5,160.5 253.5,159.5 253.5,158.5 Z"/></g>
<g><path style="opacity:0.572" fill="#000000" d="M 285.5,162.5 C 283.348,161.923 283.015,160.756 284.5,159C 291.699,157.195 294.865,160.029 294,167.5C 294.498,164.518 294.665,161.518 294.5,158.5C 297.356,158.928 300.356,159.095 303.5,159C 304,159.5 304.5,160 305,160.5C 305.498,163.482 305.665,166.482 305.5,169.5C 304.167,169.5 302.833,169.5 301.5,169.5C 301.817,166.428 301.484,163.428 300.5,160.5C 299.914,160.709 299.414,161.043 299,161.5C 298.503,164.146 298.336,166.813 298.5,169.5C 291.674,169.109 284.674,169.109 277.5,169.5C 277.751,166.091 277.417,162.758 276.5,159.5C 278.649,154.131 280.649,154.298 282.5,160C 280.551,162.326 280.218,164.826 281.5,167.5C 282.152,165.192 283.485,163.525 285.5,162.5 Z M 285.5,162.5 C 287.018,160.397 288.685,160.23 290.5,162C 288.866,162.494 287.199,162.66 285.5,162.5 Z M 288.5,164.5 C 289.774,165.189 289.774,166.023 288.5,167C 287.365,167.749 286.365,167.583 285.5,166.5C 286.602,165.824 287.602,165.158 288.5,164.5 Z"/></g>
<g><path style="opacity:0.6" fill="#000000" d="M 80.5,167.5 C 79.1667,165.167 79.1667,162.833 80.5,160.5C 82.8357,158.609 85.5024,158.109 88.5,159C 92.08,161.926 92.4133,165.26 89.5,169C 86.1562,169.906 83.1562,169.406 80.5,167.5 Z M 84.5,160.5 C 87.9886,161.807 88.9886,164.141 87.5,167.5C 86.1667,167.5 84.8333,167.5 83.5,167.5C 83.298,165.05 83.6314,162.717 84.5,160.5 Z"/></g>
<g><path style="opacity:0.578" fill="#000000" d="M 92.5,158.5 C 97.6521,158.951 102.652,159.117 107.5,159C 108.456,162.394 108.789,165.894 108.5,169.5C 107.5,169.5 106.5,169.5 105.5,169.5C 104.5,157.5 103.5,157.5 102.5,169.5C 101.167,169.5 99.8333,169.5 98.5,169.5C 98.8174,166.428 98.4841,163.428 97.5,160.5C 96.914,160.709 96.414,161.043 96,161.5C 95.5026,164.146 95.3359,166.813 95.5,169.5C 94.5,169.5 93.5,169.5 92.5,169.5C 92.5,165.833 92.5,162.167 92.5,158.5 Z"/></g>
<g><path style="opacity:0.631" fill="#000000" d="M 111.5,158.5 C 120.487,157.665 122.82,161.165 118.5,169C 109.43,170.136 107.096,166.636 111.5,158.5 Z M 114.5,160.5 C 116.722,160.559 117.722,161.725 117.5,164C 117.3,167.285 115.8,168.118 113,166.5C 112.257,164.126 112.757,162.126 114.5,160.5 Z"/></g>
<g><path style="opacity:0.605" fill="#000000" d="M 133.5,158.5 C 134.5,158.5 135.5,158.5 136.5,158.5C 136.5,162.167 136.5,165.833 136.5,169.5C 135.5,169.5 134.5,169.5 133.5,169.5C 133.5,165.833 133.5,162.167 133.5,158.5 Z"/></g>
<g><path style="opacity:0.61" fill="#000000" d="M 156.5,158.5 C 162.434,157.283 165.434,159.616 165.5,165.5C 162.813,165.336 160.146,165.503 157.5,166C 159.138,167.801 160.972,167.968 163,166.5C 164.826,167.01 164.993,167.844 163.5,169C 154.43,170.136 152.096,166.636 156.5,158.5 Z M 158.5,160.5 C 163.662,162.138 163.329,162.638 157.5,162C 158.056,161.617 158.389,161.117 158.5,160.5 Z"/></g>
<g><path style="opacity:0.599" fill="#000000" d="M 210.5,161.5 C 212.9,158.76 215.9,157.927 219.5,159C 221.229,160.789 221.896,162.956 221.5,165.5C 219.076,165.192 216.743,165.526 214.5,166.5C 216.284,167.606 218.118,167.606 220,166.5C 221.826,167.01 221.993,167.844 220.5,169C 213.253,171.536 209.92,169.036 210.5,161.5 Z M 215.5,160.5 C 216.756,160.461 217.756,160.961 218.5,162C 217.167,162.667 215.833,162.667 214.5,162C 215.056,161.617 215.389,161.117 215.5,160.5 Z"/></g>
<g><path style="opacity:0.586" fill="#000000" d="M 222.5,158.5 C 225.737,158.657 229.07,158.991 232.5,159.5C 233.417,162.758 233.751,166.091 233.5,169.5C 232.5,169.5 231.5,169.5 230.5,169.5C 230.664,166.813 230.497,164.146 230,161.5C 229,160.167 228,160.167 227,161.5C 226.503,164.146 226.336,166.813 226.5,169.5C 225.167,169.5 223.833,169.5 222.5,169.5C 223.418,165.788 223.418,162.122 222.5,158.5 Z"/></g>
<g><path style="opacity:0.606" fill="#000000" d="M 239.5,158.5 C 240.5,158.5 241.5,158.5 242.5,158.5C 242.5,162.167 242.5,165.833 242.5,169.5C 241.5,169.5 240.5,169.5 239.5,169.5C 239.5,165.833 239.5,162.167 239.5,158.5 Z"/></g>
<g><path style="opacity:0.587" fill="#000000" d="M 267.5,158.5 C 275.991,157.99 278.324,161.49 274.5,169C 271.571,169.777 268.737,169.61 266,168.5C 263.857,164.765 264.357,161.432 267.5,158.5 Z M 269.5,160.5 C 270.496,160.414 271.329,160.748 272,161.5C 272.495,163.473 272.662,165.473 272.5,167.5C 271.167,167.5 269.833,167.5 268.5,167.5C 268.298,165.05 268.631,162.717 269.5,160.5 Z"/></g>
<g><path style="opacity:0.606" fill="#000000" d="M 307.5,158.5 C 308.5,158.5 309.5,158.5 310.5,158.5C 310.5,162.167 310.5,165.833 310.5,169.5C 309.5,169.5 308.5,169.5 307.5,169.5C 307.5,165.833 307.5,162.167 307.5,158.5 Z"/></g>
<g><path style="opacity:0.6" fill="#000000" d="M 312.5,158.5 C 315.5,158.5 318.5,158.5 321.5,158.5C 320.53,161.661 318.863,164.494 316.5,167C 318.256,167.202 319.922,167.702 321.5,168.5C 318.167,169.833 314.833,169.833 311.5,168.5C 313.358,166.476 315.025,164.309 316.5,162C 315.207,161.51 313.873,161.343 312.5,161.5C 312.5,160.5 312.5,159.5 312.5,158.5 Z"/></g>
</svg>
