<?xml version="1.0" encoding="UTF-8"?>
<!DOCTYPE svg PUBLIC "-//W3C//DTD SVG 1.1//EN" "http://www.w3.org/Graphics/SVG/1.1/DTD/svg11.dtd">
<svg xmlns="http://www.w3.org/2000/svg" version="1.1" width="60px" height="60px" style="shape-rendering:geometricPrecision; text-rendering:geometricPrecision; image-rendering:optimizeQuality; fill-rule:evenodd; clip-rule:evenodd" xmlns:xlink="http://www.w3.org/1999/xlink">
<g><path style="opacity:0.814" fill="#59036c" d="M 22.5,-0.5 C 26.8333,-0.5 31.1667,-0.5 35.5,-0.5C 49.5649,3.62705 57.5649,12.9604 59.5,27.5C 59.5,29.5 59.5,31.5 59.5,33.5C 58.6981,34.9516 58.1981,36.6183 58,38.5C 56.8438,39.9928 56.0104,39.8261 55.5,38C 58.7724,17.0449 49.9391,4.87828 29,1.5C 8.06093,4.87828 -0.772404,17.0449 2.5,38C 1.82352,39.6833 0.823523,39.8499 -0.5,38.5C -0.5,32.8333 -0.5,27.1667 -0.5,21.5C 1.58492,16.1768 4.58492,11.3435 8.5,7C 12.815,3.67822 17.4816,1.17822 22.5,-0.5 Z"/></g>
<g><path style="opacity:0.192" fill="#34043f" d="M 32.5,10.5 C 33.791,10.2627 34.791,10.596 35.5,11.5C 32.7081,11.4521 30.8747,12.7854 30,15.5C 29.6012,15.2716 29.4346,14.9382 29.5,14.5C 29.5,14.1667 29.5,13.8333 29.5,13.5C 30.1667,12.1667 31.1667,11.1667 32.5,10.5 Z"/></g>
<g><path style="opacity:0.962" fill="#700288" d="M 32.5,10.5 C 31.1667,11.1667 30.1667,12.1667 29.5,13.5C 29.1667,13.5 28.8333,13.5 28.5,13.5C 27.609,12.8902 26.609,12.5569 25.5,12.5C 24.1667,12.8333 24.1667,13.1667 25.5,13.5C 26.391,14.1098 27.391,14.4431 28.5,14.5C 28.8333,14.5 29.1667,14.5 29.5,14.5C 29.4346,14.9382 29.6012,15.2716 30,15.5C 30.8747,12.7854 32.7081,11.4521 35.5,11.5C 36.4345,12.5676 36.7678,13.901 36.5,15.5C 37.8333,15.5 39.1667,15.5 40.5,15.5C 40.5,16.8333 40.5,18.1667 40.5,19.5C 41.8333,19.5 43.1667,19.5 44.5,19.5C 44.5,20.8333 44.5,22.1667 44.5,23.5C 45.8333,23.5 47.1667,23.5 48.5,23.5C 49.0414,26.6516 48.0414,29.1516 45.5,31C 47.0201,33.5961 47.8534,36.4294 48,39.5C 49.3848,40.5505 50.3848,41.8839 51,43.5C 54.4283,42.3823 56.5949,43.7156 57.5,47.5C 54.5518,51.785 51.2185,55.785 47.5,59.5C 46.1667,59.5 44.8333,59.5 43.5,59.5C 42.8333,58.5 42.1667,57.5 41.5,56.5C 41.33,55.1779 41.6634,54.0113 42.5,53C 41.9056,52.5357 41.2389,52.369 40.5,52.5C 38.7376,51.7377 37.7376,50.4044 37.5,48.5C 36.8101,44.0748 37.8101,40.2415 40.5,37C 34.3888,36.6467 28.0555,36.48 21.5,36.5C 20.6745,40.9819 20.1745,45.6486 20,50.5C 19.2917,51.3805 18.4584,52.0472 17.5,52.5C 16.8333,52.1667 16.1667,51.8333 15.5,51.5C 13.1667,48.5 10.5,45.8333 7.5,43.5C 8.20261,41.2843 9.53594,39.451 11.5,38C 10.2475,36.1722 10.2475,34.3388 11.5,32.5C 14.8531,32.6547 15.1864,31.9881 12.5,30.5C 8.94366,29.021 7.94366,26.6876 9.5,23.5C 10.8734,23.3433 12.2068,23.51 13.5,24C 15.0375,25.7073 16.7041,27.2073 18.5,28.5C 18.5,29.1667 18.5,29.8333 18.5,30.5C 18.1667,31.1667 17.8333,31.8333 17.5,32.5C 14.8333,32.8333 14.8333,33.1667 17.5,33.5C 18.9063,33.0269 19.573,32.0269 19.5,30.5C 21.2837,31.7199 22.9504,31.7199 24.5,30.5C 25.4013,29.7095 26.0679,28.7095 26.5,27.5C 27.5573,26.794 27.2239,26.4607 25.5,26.5C 25.5,25.8333 25.1667,25.5 24.5,25.5C 21.8712,22.3694 19.0379,19.3694 16,16.5C 15.5172,15.552 15.3505,14.552 15.5,13.5C 16.2545,11.5337 17.4212,11.2004 19,12.5C 19.1102,10.1517 20.2769,8.65175 22.5,8C 24.8333,7.33333 27.1667,7.33333 29.5,8C 31.1193,8.23555 32.1193,9.06888 32.5,10.5 Z"/></g>
<g><path style="opacity:0.275" fill="#350241" d="M 25.5,13.5 C 25.5,13.1667 25.5,12.8333 25.5,12.5C 26.609,12.5569 27.609,12.8902 28.5,13.5C 28.5,13.8333 28.5,14.1667 28.5,14.5C 27.391,14.4431 26.391,14.1098 25.5,13.5 Z"/></g>
<g><path style="opacity:0.992" fill="#5f0474" d="M 15.5,13.5 C 15.3505,14.552 15.5172,15.552 16,16.5C 19.0379,19.3694 21.8712,22.3694 24.5,25.5C 24.5,27.1667 24.5,28.8333 24.5,30.5C 22.9504,31.7199 21.2837,31.7199 19.5,30.5C 19.6716,29.5084 19.3382,28.8417 18.5,28.5C 16.7041,27.2073 15.0375,25.7073 13.5,24C 12.2068,23.51 10.8734,23.3433 9.5,23.5C 10.2625,22.7321 11.2625,22.2321 12.5,22C 10.8446,20.5557 10.178,18.7224 10.5,16.5C 11.8333,16.5 13.1667,16.5 14.5,16.5C 14.2627,15.209 14.596,14.209 15.5,13.5 Z"/></g>
<g><path style="opacity:0.333" fill="#370244" d="M 28.5,22.5 C 29.1667,22.5 29.8333,22.5 30.5,22.5C 29.3856,27.6294 28.719,27.6294 28.5,22.5 Z"/></g>
<g><path style="opacity:0.314" fill="#2e0339" d="M 24.5,25.5 C 25.1667,25.5 25.5,25.8333 25.5,26.5C 25.5,27.1667 25.8333,27.5 26.5,27.5C 26.0679,28.7095 25.4013,29.7095 24.5,30.5C 24.5,28.8333 24.5,27.1667 24.5,25.5 Z"/></g>
<g><path style="opacity:0.341" fill="#33063f" d="M 12.5,30.5 C 15.1864,31.9881 14.8531,32.6547 11.5,32.5C 11.8333,31.8333 12.1667,31.1667 12.5,30.5 Z"/></g>
<g><path style="opacity:0.251" fill="#370343" d="M 18.5,30.5 C 18.8333,30.5 19.1667,30.5 19.5,30.5C 19.573,32.0269 18.9063,33.0269 17.5,33.5C 17.5,33.1667 17.5,32.8333 17.5,32.5C 17.8333,31.8333 18.1667,31.1667 18.5,30.5 Z"/></g>
<g><path style="opacity:0.981" fill="#74028c" d="M 21.5,37.5 C 26.5,37.5 31.5,37.5 36.5,37.5C 36.5,41.1667 36.5,44.8333 36.5,48.5C 36.2759,52.5616 34.2759,55.395 30.5,57C 26.7152,56.846 23.8819,55.0127 22,51.5C 21.5008,46.8452 21.3342,42.1785 21.5,37.5 Z"/></g>
<g><path style="opacity:0.083" fill="#360242" d="M 21.5,37.5 C 21.5,37.1667 21.5,36.8333 21.5,36.5C 28.0555,36.48 34.3888,36.6467 40.5,37C 37.8101,40.2415 36.8101,44.0748 37.5,48.5C 37.1667,48.5 36.8333,48.5 36.5,48.5C 36.5,44.8333 36.5,41.1667 36.5,37.5C 31.5,37.5 26.5,37.5 21.5,37.5 Z"/></g>
<g><path style="opacity:0.972" fill="#68047e" d="M 7.5,43.5 C 10.5,45.8333 13.1667,48.5 15.5,51.5C 16.038,53.1172 16.3713,54.7839 16.5,56.5C 15.8333,57.5 15.1667,58.5 14.5,59.5C 13.1667,59.5 11.8333,59.5 10.5,59.5C 6.78149,55.785 3.44815,51.785 0.5,47.5C 1.49308,43.4649 3.82641,42.1315 7.5,43.5 Z"/></g>
<g><path style="opacity:0.188" fill="#370443" d="M 32.5,42.5 C 33.2389,42.369 33.9056,42.5357 34.5,43C 32.3171,45.3504 29.9837,47.517 27.5,49.5C 26.0186,48.5197 24.6853,47.353 23.5,46C 25.0468,45.6666 26.3801,46.1666 27.5,47.5C 29.5212,46.1455 31.1879,44.4788 32.5,42.5 Z"/></g>
<g><path style="opacity:0.324" fill="#34043f" d="M 15.5,51.5 C 16.1667,51.8333 16.8333,52.1667 17.5,52.5C 17.7678,54.099 17.4345,55.4324 16.5,56.5C 16.3713,54.7839 16.038,53.1172 15.5,51.5 Z"/></g>
<g><path style="opacity:0.278" fill="#32033e" d="M 40.5,52.5 C 41.2389,52.369 41.9056,52.5357 42.5,53C 41.6634,54.0113 41.33,55.1779 41.5,56.5C 40.5655,55.4324 40.2322,54.099 40.5,52.5 Z"/></g>
</svg>
