<?xml version="1.0" encoding="UTF-8"?>
<!DOCTYPE svg PUBLIC "-//W3C//DTD SVG 1.1//EN" "http://www.w3.org/Graphics/SVG/1.1/DTD/svg11.dtd">
<svg xmlns="http://www.w3.org/2000/svg" version="1.1" width="48px" height="48px" style="shape-rendering:geometricPrecision; text-rendering:geometricPrecision; image-rendering:optimizeQuality; fill-rule:evenodd; clip-rule:evenodd" xmlns:xlink="http://www.w3.org/1999/xlink">
<g><path style="opacity:0.988" fill="#790e90" d="M 16.5,-0.5 C 21.1667,-0.5 25.8333,-0.5 30.5,-0.5C 38.5,2.83333 44.1667,8.5 47.5,16.5C 47.5,21.1667 47.5,25.8333 47.5,30.5C 44.1667,38.5 38.5,44.1667 30.5,47.5C 25.8333,47.5 21.1667,47.5 16.5,47.5C 8.5,44.1667 2.83333,38.5 -0.5,30.5C -0.5,25.8333 -0.5,21.1667 -0.5,16.5C 2.83333,8.5 8.5,2.83333 16.5,-0.5 Z"/></g>
<g><path style="opacity:1" fill="#d1a8d9" d="M 18.5,9.5 C 15.4869,8.35221 12.4869,8.18554 9.5,9C 10.772,7.95369 12.272,7.45369 14,7.5C 16.0081,7.30684 17.5081,7.9735 18.5,9.5 Z"/></g>
<g><path style="opacity:1" fill="#cc9dd4" d="M 31.5,8.5 C 32.3909,9.26133 33.0576,10.2613 33.5,11.5C 29.0015,15.1592 28.3348,14.1592 31.5,8.5 Z"/></g>
<g><path style="opacity:1" fill="#d6b2dd" d="M 12.5,10.5 C 15.2763,10.0889 15.943,10.9223 14.5,13C 17.2837,15.3981 17.1171,17.5648 14,19.5C 13.0754,18.9535 12.2421,18.2868 11.5,17.5C 12.4415,17.5105 13.1081,17.0105 13.5,16C 11.482,14.3625 11.1486,12.5292 12.5,10.5 Z"/></g>
<g><path style="opacity:1" fill="#c999d3" d="M 18.5,9.5 C 19.9063,9.97306 20.573,10.9731 20.5,12.5C 19.0937,12.0269 18.427,11.0269 18.5,9.5 Z"/></g>
<g><path style="opacity:1" fill="#ca9cd4" d="M 6.5,12.5 C 7.62061,14.3157 8.12061,16.3157 8,18.5C 6.68136,16.7505 6.18136,14.7505 6.5,12.5 Z"/></g>
<g><path style="opacity:1" fill="#c796d1" d="M 20.5,12.5 C 21.874,14.5167 21.7074,16.5167 20,18.5C 20.1349,16.5753 20.3016,14.5753 20.5,12.5 Z"/></g>
<g><path style="opacity:1" fill="#c897d2" d="M 24.5,18.5 C 25.2122,16.0721 26.2122,13.7388 27.5,11.5C 27.0233,10.5224 26.3567,9.68909 25.5,9C 27.4731,8.46224 28.4731,9.29557 28.5,11.5C 27.9136,14.3489 26.5803,16.6822 24.5,18.5 Z"/></g>
<g><path style="opacity:1" fill="#ddbee3" d="M 36.5,15.5 C 35.8333,15.8333 35.1667,16.1667 34.5,16.5C 34.7107,14.5759 35.3774,14.2426 36.5,15.5 Z"/></g>
<g><path style="opacity:1" fill="#c898d2" d="M 36.5,15.5 C 37.9063,15.9731 38.573,16.9731 38.5,18.5C 37.0937,18.0269 36.427,17.0269 36.5,15.5 Z"/></g>
<g><path style="opacity:1" fill="#dec1e4" d="M 38.5,18.5 C 39.4778,18.811 40.1445,19.4777 40.5,20.5C 38.7622,26.6237 37.9289,32.957 38,39.5C 37.2402,32.4505 37.4069,25.4505 38.5,18.5 Z"/></g>
<g><path style="opacity:1" fill="#a962b8" d="M 24.5,18.5 C 24.7748,20.8418 25.6081,20.8418 27,18.5C 23.973,25.0006 18.8063,29.3339 11.5,31.5C 9.51208,30.7112 9.17875,29.5445 10.5,28C 16.0615,26.06 20.7282,22.8933 24.5,18.5 Z"/></g>
<g><path style="opacity:1" fill="#d1a9d9" d="M 34.5,16.5 C 34.347,24.0462 34.347,31.7129 34.5,39.5C 26.8261,39.6664 19.1594,39.4997 11.5,39C 13.25,37.2458 13.9167,35.0792 13.5,32.5C 15.1667,32.5 16.8333,32.5 18.5,32.5C 18.2011,34.604 18.5344,36.604 19.5,38.5C 20.4841,35.5719 20.8174,32.5719 20.5,29.5C 22.1667,29.5 23.8333,29.5 25.5,29.5C 25.3354,32.5184 25.502,35.5184 26,38.5C 26.4988,34.5138 26.6655,30.5138 26.5,26.5C 28.1667,26.5 29.8333,26.5 31.5,26.5C 31.5,27.1667 31.1667,27.5 30.5,27.5C 29.5,27.5 28.5,27.5 27.5,27.5C 27.5,31.1667 27.5,34.8333 27.5,38.5C 28.5,38.5 29.5,38.5 30.5,38.5C 31.1667,38.5 31.8333,38.5 32.5,38.5C 33.1644,35.8541 33.4978,33.0208 33.5,30C 33.4052,26.636 32.7385,23.4694 31.5,20.5C 32.0351,18.739 33.0351,17.4057 34.5,16.5 Z"/></g>
<g><path style="opacity:1" fill="#b16cbf" d="M 31.5,26.5 C 32.4834,30.2984 32.8168,34.2984 32.5,38.5C 31.8333,38.5 31.1667,38.5 30.5,38.5C 30.5,34.8333 30.5,31.1667 30.5,27.5C 31.1667,27.5 31.5,27.1667 31.5,26.5 Z"/></g>
<g><path style="opacity:1" fill="#7f1597" d="M 30.5,27.5 C 30.5,31.1667 30.5,34.8333 30.5,38.5C 29.5,38.5 28.5,38.5 27.5,38.5C 27.5,34.8333 27.5,31.1667 27.5,27.5C 28.5,27.5 29.5,27.5 30.5,27.5 Z"/></g>
<g><path style="opacity:1" fill="#7e1196" d="M 21.5,30.5 C 22.5,30.5 23.5,30.5 24.5,30.5C 24.5,33.1667 24.5,35.8333 24.5,38.5C 23.5,38.5 22.5,38.5 21.5,38.5C 21.5,35.8333 21.5,33.1667 21.5,30.5 Z"/></g>
<g><path style="opacity:1" fill="#7a0593" d="M 14.5,33.5 C 15.5,33.5 16.5,33.5 17.5,33.5C 17.5,35.1667 17.5,36.8333 17.5,38.5C 16.5,38.5 15.5,38.5 14.5,38.5C 14.5,36.8333 14.5,35.1667 14.5,33.5 Z"/></g>
</svg>
