<?xml version="1.0" encoding="UTF-8"?>
<!DOCTYPE svg PUBLIC "-//W3C//DTD SVG 1.1//EN" "http://www.w3.org/Graphics/SVG/1.1/DTD/svg11.dtd">
<svg xmlns="http://www.w3.org/2000/svg" version="1.1" width="1080px" height="1080px" style="shape-rendering:geometricPrecision; text-rendering:geometricPrecision; image-rendering:optimizeQuality; fill-rule:evenodd; clip-rule:evenodd" xmlns:xlink="http://www.w3.org/1999/xlink">
<g><path style="opacity:0.971" fill="#006f76" d="M 566.5,255.5 C 601.506,255.167 636.506,255.5 671.5,256.5C 676.86,261.246 678.86,267.246 677.5,274.5C 677.333,277.833 677.167,281.167 677,284.5C 676.27,288.896 673.77,291.73 669.5,293C 641.167,293.333 612.833,293.667 584.5,294C 575.971,293.972 567.971,295.972 560.5,300C 558.291,301.873 556.458,304.04 555,306.5C 549.935,325.569 557.101,336.069 576.5,338C 612.811,339.266 649.145,339.933 685.5,340C 741.924,344.102 763.091,373.602 749,428.5C 745.325,436.176 740.158,442.676 733.5,448C 716.799,457.676 698.799,463.009 679.5,464C 628.5,464.333 577.5,464.667 526.5,465C 525.122,466.713 523.455,468.047 521.5,469C 517.129,469.172 512.796,469.672 508.5,470.5C 492.611,505.117 465.611,519.284 427.5,513C 419.132,526.093 408.466,528.426 395.5,520C 392.433,516.703 390.267,512.869 389,508.5C 388.333,466.167 388.333,423.833 389,381.5C 393.821,365.842 403.988,361.008 419.5,367C 422.888,369.531 425.221,372.698 426.5,376.5C 437.505,376.333 448.505,376.5 459.5,377C 483.319,381.986 499.653,395.819 508.5,418.5C 516.028,418.172 522.361,420.672 527.5,426C 574.167,426.667 620.833,426.667 667.5,426C 679.618,426.48 691.284,424.48 702.5,420C 705.106,418.062 706.939,415.562 708,412.5C 714.138,390.566 705.971,379.066 683.5,378C 651.833,377.667 620.167,377.333 588.5,377C 568.248,377.187 549.248,372.52 531.5,363C 519.638,354.114 512.805,342.281 511,327.5C 505.936,300.149 515.103,279.315 538.5,265C 547.97,261.486 557.304,258.319 566.5,255.5 Z"/></g>
<g><path style="opacity:0.894" fill="#006f76" d="M 333.5,405.5 C 350.5,405.5 367.5,405.5 384.5,405.5C 384.5,412.5 384.5,419.5 384.5,426.5C 367.497,426.667 350.497,426.5 333.5,426C 326.586,422.23 324.753,416.73 328,409.5C 329.5,407.531 331.333,406.198 333.5,405.5 Z"/></g>
<g><path style="opacity:0.892" fill="#006f76" d="M 333.5,463.5 C 350.5,463.5 367.5,463.5 384.5,463.5C 384.5,470.5 384.5,477.5 384.5,484.5C 366.764,484.959 349.098,484.459 331.5,483C 326.404,478.752 325.237,473.585 328,467.5C 329.812,466.023 331.645,464.69 333.5,463.5 Z"/></g>
<g><path style="opacity:0.853" fill="#000000" d="M 347.5,560.5 C 359.65,559.804 363.317,564.97 358.5,576C 352.783,579.066 347.283,578.566 342,574.5C 339.449,567.972 341.282,563.305 347.5,560.5 Z"/></g>
<g><path style="opacity:0.91" fill="#000000" d="M 678.5,560.5 C 681.941,560.301 685.274,560.801 688.5,562C 689.126,562.75 689.626,563.584 690,564.5C 690.667,593.5 690.667,622.5 690,651.5C 688.56,654.666 686.06,656.333 682.5,656.5C 679.724,656.054 677.224,655.054 675,653.5C 674.333,623.5 674.333,593.5 675,563.5C 676.145,562.364 677.312,561.364 678.5,560.5 Z"/></g>
<g><path style="opacity:0.89" fill="#000000" d="M 110.5,581.5 C 121.838,581.333 133.172,581.5 144.5,582C 145.416,582.374 146.25,582.874 147,583.5C 147.667,586.833 147.667,590.167 147,593.5C 146.5,594 146,594.5 145.5,595C 133.237,596.273 120.903,596.94 108.5,597C 104.066,600.267 103.4,604.267 106.5,609C 107.833,609.333 109.167,609.667 110.5,610C 124.5,610.333 138.5,610.667 152.5,611C 174.027,615.623 179.86,627.789 170,647.5C 164.004,652.049 157.171,654.549 149.5,655C 131.167,655.333 112.833,655.667 94.5,656C 92.5,656.833 90.5,657.667 88.5,658.5C 82.3801,670.062 72.7134,675.062 59.5,673.5C 53.7299,678.122 49.2299,677.122 46,670.5C 45.5026,667.854 45.3359,665.187 45.5,662.5C 39.1579,662.666 32.8246,662.5 26.5,662C 24.5819,660.23 24.0819,658.063 25,655.5C 25.7504,654.874 26.5838,654.374 27.5,654C 33.4908,653.501 39.4908,653.334 45.5,653.5C 45.5,649.833 45.5,646.167 45.5,642.5C 39.1579,642.666 32.8246,642.5 26.5,642C 23.8333,639.333 23.8333,636.667 26.5,634C 32.8246,633.5 39.1579,633.334 45.5,633.5C 44.2769,626.429 46.9436,621.762 53.5,619.5C 55.9546,619.894 57.9546,621.06 59.5,623C 72.2089,622.052 81.8756,626.886 88.5,637.5C 90.6549,638.41 92.6549,639.577 94.5,641C 111.833,641.667 129.167,641.667 146.5,641C 155.299,641.871 158.799,638.038 157,629.5C 156.5,628.333 155.667,627.5 154.5,627C 139.901,625.716 125.235,625.05 110.5,625C 90.7391,621.652 84.2391,610.485 91,591.5C 96.4327,585.868 102.933,582.535 110.5,581.5 Z"/></g>
<g><path style="opacity:0.895" fill="#000000" d="M 220.5,581.5 C 232.88,581.13 245.214,581.63 257.5,583C 263.915,584.124 269.415,586.957 274,591.5C 275.605,594.648 276.605,597.981 277,601.5C 277.667,613.167 277.667,624.833 277,636.5C 276.214,641.953 273.714,646.453 269.5,650C 264.162,652.752 258.495,654.418 252.5,655C 236.167,655.667 219.833,655.667 203.5,655C 184.785,653.434 176.618,643.267 179,624.5C 178.952,617.09 182.119,611.59 188.5,608C 193.838,605.248 199.505,603.582 205.5,603C 223.842,602.833 242.176,602.333 260.5,601.5C 258.851,599.005 256.517,597.505 253.5,597C 242.095,596.934 230.762,596.267 219.5,595C 217.955,593.178 217.288,591.011 217.5,588.5C 217.006,585.342 218.006,583.009 220.5,581.5 Z M 206.5,616.5 C 224.836,616.333 243.17,616.5 261.5,617C 260.688,623.085 260.188,629.252 260,635.5C 256.478,639.458 251.978,641.292 246.5,641C 234.167,641.667 221.833,641.667 209.5,641C 196.925,640.756 192.425,634.589 196,622.5C 198.893,619.274 202.393,617.274 206.5,616.5 Z"/></g>
<g><path style="opacity:0.898" fill="#000000" d="M 309.5,581.5 C 315.952,581.084 322.285,581.584 328.5,583C 330.851,586.728 331.018,590.562 329,594.5C 321.989,596.151 314.822,596.984 307.5,597C 305.671,597.273 304.171,598.107 303,599.5C 301.694,616.742 301.027,634.076 301,651.5C 299.56,654.666 297.06,656.333 293.5,656.5C 290.724,656.054 288.224,655.054 286,653.5C 285.333,634.833 285.333,616.167 286,597.5C 288.079,591.753 291.912,587.586 297.5,585C 301.543,583.509 305.543,582.342 309.5,581.5 Z"/></g>
<g><path style="opacity:0.903" fill="#000000" d="M 408.5,581.5 C 420.88,581.13 433.214,581.63 445.5,583C 454.489,584.392 460.655,589.225 464,597.5C 464.667,611.5 464.667,625.5 464,639.5C 462.489,645.365 458.989,649.532 453.5,652C 449.261,653.413 444.928,654.413 440.5,655C 424.167,655.667 407.833,655.667 391.5,655C 371.333,652.887 363.167,641.72 367,621.5C 367.955,614.735 371.455,609.901 377.5,607C 382.59,604.728 387.923,603.394 393.5,603C 411.842,602.833 430.176,602.333 448.5,601.5C 446.851,599.005 444.517,597.505 441.5,597C 429.776,596.913 418.11,596.246 406.5,595C 403.729,589.865 404.396,585.365 408.5,581.5 Z M 394.5,616.5 C 412.5,616.5 430.5,616.5 448.5,616.5C 448.666,622.842 448.5,629.175 448,635.5C 444.263,639.082 439.763,640.915 434.5,641C 420.126,641.891 405.792,641.557 391.5,640C 382.538,636.681 380.038,630.514 384,621.5C 387.147,618.841 390.647,617.174 394.5,616.5 Z"/></g>
<g><path style="opacity:0.907" fill="#000000" d="M 498.5,581.5 C 514.21,581.099 529.877,581.599 545.5,583C 555.608,584.441 562.108,589.941 565,599.5C 565.667,619.167 565.667,638.833 565,658.5C 562.139,669.377 554.973,675.211 543.5,676C 531.167,676.667 518.833,676.667 506.5,676C 504.115,674.537 503.115,672.371 503.5,669.5C 503.404,667.074 504.07,664.907 505.5,663C 516.5,662.667 527.5,662.333 538.5,662C 544.236,662.286 547.902,659.786 549.5,654.5C 529.143,653.913 508.81,653.08 488.5,652C 480,650.167 474.833,645 473,636.5C 472.055,622.764 472.388,609.097 474,595.5C 475.442,591.725 477.942,588.892 481.5,587C 487.001,584.221 492.668,582.387 498.5,581.5 Z M 496.5,596.5 C 511.17,596.333 525.837,596.5 540.5,597C 544.587,597.617 547.42,599.784 549,603.5C 549.5,615.495 549.667,627.495 549.5,639.5C 532.83,639.667 516.163,639.5 499.5,639C 494.673,638.849 491.173,636.683 489,632.5C 488.333,622.5 488.333,612.5 489,602.5C 491.071,599.891 493.571,597.891 496.5,596.5 Z"/></g>
<g><path style="opacity:0.891" fill="#000000" d="M 599.5,581.5 C 613.504,581.333 627.504,581.5 641.5,582C 650.621,582.252 658.121,585.752 664,592.5C 664.973,594.392 665.64,596.392 666,598.5C 666.667,607.167 666.667,615.833 666,624.5C 664.829,625.893 663.329,626.727 661.5,627C 637.502,627.5 613.502,627.667 589.5,627.5C 588.282,634.244 590.949,638.411 597.5,640C 609.459,641.199 621.459,641.866 633.5,642C 634,642.5 634.5,643 635,643.5C 635.667,646.833 635.667,650.167 635,653.5C 634.5,654 634,654.5 633.5,655C 621.5,655.667 609.5,655.667 597.5,655C 587.059,655.204 579.559,650.704 575,641.5C 573.884,633.907 573.384,626.241 573.5,618.5C 568.742,596.27 577.408,583.936 599.5,581.5 Z M 597.5,596.5 C 612.504,596.333 627.504,596.5 642.5,597C 645.034,597.516 647.2,598.683 649,600.5C 650.354,604.363 650.854,608.363 650.5,612.5C 630.167,612.5 609.833,612.5 589.5,612.5C 587.484,604.53 590.15,599.197 597.5,596.5 Z"/></g>
<g><path style="opacity:0.883" fill="#000000" d="M 751.5,581.5 C 773.836,581.333 796.169,581.5 818.5,582C 819.308,582.308 819.975,582.808 820.5,583.5C 821.585,586.773 821.752,590.106 821,593.5C 819.829,594.893 818.329,595.727 816.5,596C 794.167,596.333 771.833,596.667 749.5,597C 746.193,597.653 743.527,599.319 741.5,602C 741.382,612.629 741.549,623.462 742,634.5C 742.465,635.931 743.299,637.097 744.5,638C 747.957,639.743 751.623,640.743 755.5,641C 776.833,641.333 798.167,641.667 819.5,642C 821.045,643.822 821.712,645.989 821.5,648.5C 821.712,651.011 821.045,653.178 819.5,655C 796.167,655.667 772.833,655.667 749.5,655C 742.197,654.391 735.697,651.891 730,647.5C 727.522,644.211 725.856,640.544 725,636.5C 724.076,623.11 724.409,609.777 726,596.5C 727.4,593.098 729.567,590.264 732.5,588C 738.586,584.694 744.92,582.528 751.5,581.5 Z"/></g>
<g><path style="opacity:0.893" fill="#000000" d="M 854.5,581.5 C 867.837,581.333 881.171,581.5 894.5,582C 902.647,582.491 909.813,585.324 916,590.5C 917.908,593.215 919.241,596.215 920,599.5C 920.667,612.167 920.667,624.833 920,637.5C 918.768,642.405 916.268,646.572 912.5,650C 907.162,652.752 901.495,654.418 895.5,655C 881.167,655.667 866.833,655.667 852.5,655C 845.197,654.391 838.697,651.891 833,647.5C 830.233,643.965 828.566,639.965 828,635.5C 827.1,622.452 827.433,609.452 829,596.5C 830.4,593.098 832.567,590.264 835.5,588C 841.586,584.694 847.92,582.528 854.5,581.5 Z M 852.5,596.5 C 866.837,596.333 881.171,596.5 895.5,597C 899.499,597.668 902.332,599.835 904,603.5C 904.952,614.265 904.619,624.932 903,635.5C 899.369,639.397 894.869,641.23 889.5,641C 879.167,641.667 868.833,641.667 858.5,641C 853.237,640.915 848.737,639.082 845,635.5C 844.333,624.167 844.333,612.833 845,601.5C 847.17,599.177 849.67,597.51 852.5,596.5 Z"/></g>
<g><path style="opacity:0.9" fill="#000000" d="M 951.5,581.5 C 959.507,581.334 967.507,581.5 975.5,582C 981.274,582.536 986.607,584.369 991.5,587.5C 996.393,584.369 1001.73,582.536 1007.5,582C 1018.62,580.961 1029.62,581.628 1040.5,584C 1046.25,586.422 1050.75,590.256 1054,595.5C 1054.67,614.833 1054.67,634.167 1054,653.5C 1050.08,656.219 1045.91,656.719 1041.5,655C 1040.3,654.097 1039.47,652.931 1039,651.5C 1038.67,634.833 1038.33,618.167 1038,601.5C 1036.27,599.383 1034.1,597.883 1031.5,597C 1021.93,595.389 1012.6,595.723 1003.5,598C 1001.95,599.214 1000.78,600.714 1000,602.5C 999.667,619.167 999.333,635.833 999,652.5C 995.008,656.455 990.508,657.121 985.5,654.5C 984.808,653.975 984.308,653.308 984,652.5C 983.973,635.076 983.306,617.742 982,600.5C 980.681,598.513 978.848,597.346 976.5,597C 968.167,596.333 959.833,596.333 951.5,597C 948.898,597.883 946.731,599.383 945,601.5C 944.667,618.5 944.333,635.5 944,652.5C 938.757,657.577 933.424,657.577 928,652.5C 927.333,634.833 927.333,617.167 928,599.5C 929.855,591.635 934.688,586.468 942.5,584C 945.678,583.34 948.678,582.507 951.5,581.5 Z"/></g>
<g><path style="opacity:0.876" fill="#000000" d="M 345.5,582.5 C 349.182,582.335 352.848,582.501 356.5,583C 358.004,584.491 358.837,586.324 359,588.5C 359.929,612.865 359.595,637.199 358,661.5C 354.163,671.032 346.996,675.866 336.5,676C 329.833,676.667 323.167,676.667 316.5,676C 314.955,674.178 314.288,672.011 314.5,669.5C 314.288,666.989 314.955,664.822 316.5,663C 323.551,662.789 330.551,662.122 337.5,661C 339.492,660.426 340.992,659.259 342,657.5C 342.333,633.833 342.667,610.167 343,586.5C 343.662,585.016 344.496,583.683 345.5,582.5 Z"/></g>
<g><path style="opacity:0.843" fill="#000000" d="M 705.5,638.5 C 718.184,637.326 722.184,642.493 717.5,654C 711.595,657.449 706.095,656.949 701,652.5C 698.614,646.494 700.114,641.827 705.5,638.5 Z"/></g>
<g><path style="opacity:0.667" fill="#006f76" d="M 229.5,704.5 C 231.5,704.5 233.5,704.5 235.5,704.5C 235.667,719.17 235.5,733.837 235,748.5C 233.301,749.406 231.467,749.739 229.5,749.5C 229.5,734.5 229.5,719.5 229.5,704.5 Z"/></g>
<g><path style="opacity:0.67" fill="#006f76" d="M 276.5,704.5 C 278.5,704.5 280.5,704.5 282.5,704.5C 282.334,712.84 282.5,721.173 283,729.5C 287.5,725.667 292,721.833 296.5,718C 298.902,717.186 301.235,717.353 303.5,718.5C 298.342,723.49 293.009,728.323 287.5,733C 292.708,738.376 298.041,743.543 303.5,748.5C 301.235,749.647 298.902,749.814 296.5,749C 292.301,744.466 287.801,740.299 283,736.5C 282.501,740.821 282.334,745.154 282.5,749.5C 280.5,749.5 278.5,749.5 276.5,749.5C 276.5,734.5 276.5,719.5 276.5,704.5 Z"/></g>
<g><path style="opacity:0.673" fill="#006f76" d="M 376.5,704.5 C 378.5,704.5 380.5,704.5 382.5,704.5C 382.334,712.84 382.5,721.173 383,729.5C 387.5,725.667 392,721.833 396.5,718C 398.902,717.186 401.235,717.353 403.5,718.5C 398.342,723.49 393.009,728.323 387.5,733C 393.316,737.649 398.649,742.816 403.5,748.5C 400.761,749.767 398.094,749.601 395.5,748C 391.633,743.798 387.467,739.965 383,736.5C 382.501,740.821 382.334,745.154 382.5,749.5C 380.5,749.5 378.5,749.5 376.5,749.5C 376.5,734.5 376.5,719.5 376.5,704.5 Z"/></g>
<g><path style="opacity:0.639" fill="#006f76" d="M 407.5,704.5 C 409.5,704.5 411.5,704.5 413.5,704.5C 413.5,719.5 413.5,734.5 413.5,749.5C 411.5,749.5 409.5,749.5 407.5,749.5C 407.5,734.5 407.5,719.5 407.5,704.5 Z"/></g>
<g><path style="opacity:0.642" fill="#006f76" d="M 802.5,704.5 C 804.5,704.5 806.5,704.5 808.5,704.5C 808.5,719.5 808.5,734.5 808.5,749.5C 806.5,749.5 804.5,749.5 802.5,749.5C 802.5,734.5 802.5,719.5 802.5,704.5 Z"/></g>
<g><path style="opacity:0.602" fill="#006f76" d="M 366.5,705.5 C 371.68,706.404 372.68,708.904 369.5,713C 364.667,714.166 362.833,712.333 364,707.5C 364.995,706.934 365.828,706.267 366.5,705.5 Z"/></g>
<g><path style="opacity:0.59" fill="#006f76" d="M 421.5,705.5 C 426.643,706.402 427.643,708.902 424.5,713C 420,713.833 418.167,712 419,707.5C 419.995,706.934 420.828,706.267 421.5,705.5 Z"/></g>
<g><path style="opacity:0.593" fill="#006f76" d="M 656.5,705.5 C 660.533,705.691 662.033,707.691 661,711.5C 657.749,714.46 655.582,713.793 654.5,709.5C 654.752,707.927 655.418,706.594 656.5,705.5 Z"/></g>
<g><path style="opacity:0.581" fill="#006f76" d="M 667.5,705.5 C 671.487,705.652 672.987,707.652 672,711.5C 668.749,714.46 666.582,713.793 665.5,709.5C 665.752,707.927 666.418,706.594 667.5,705.5 Z"/></g>
<g><path style="opacity:0.591" fill="#006f76" d="M 724.5,705.5 C 729.341,707.544 729.675,710.211 725.5,713.5C 720.606,711.282 720.272,708.615 724.5,705.5 Z"/></g>
<g><path style="opacity:0.54" fill="#006f76" d="M 735.5,705.5 C 741.532,707.544 741.865,710.21 736.5,713.5C 731.606,711.282 731.272,708.615 735.5,705.5 Z"/></g>
<g><path style="opacity:0.622" fill="#006f76" d="M 880.5,705.5 C 885.68,706.404 886.68,708.904 883.5,713C 876.934,712.805 875.934,710.305 880.5,705.5 Z"/></g>
<g><path style="opacity:0.668" fill="#006f76" d="M 306.5,707.5 C 308.5,707.5 310.5,707.5 312.5,707.5C 312.5,710.833 312.5,714.167 312.5,717.5C 318.167,717.5 323.833,717.5 329.5,717.5C 329.5,719.5 329.5,721.5 329.5,723.5C 323.907,723.807 318.407,723.473 313,722.5C 312.333,728.5 312.333,734.5 313,740.5C 313.249,741.624 313.749,742.624 314.5,743.5C 322.133,746.195 325.8,743.528 325.5,735.5C 327.5,735.5 329.5,735.5 331.5,735.5C 331.367,746.134 326.034,750.968 315.5,750C 312.461,748.969 309.961,747.135 308,744.5C 306.561,732.242 306.061,719.909 306.5,707.5 Z"/></g>
<g><path style="opacity:0.714" fill="#006f76" d="M 459.5,707.5 C 465.892,706.791 471.892,707.957 477.5,711C 479.936,713.707 481.436,716.873 482,720.5C 482.5,730.161 482.666,739.828 482.5,749.5C 480.5,749.5 478.5,749.5 476.5,749.5C 476.5,744.833 476.5,740.167 476.5,735.5C 468.493,735.334 460.493,735.5 452.5,736C 453.467,740.401 453.8,744.901 453.5,749.5C 451.208,749.756 449.041,749.423 447,748.5C 446.196,738.127 446.529,727.793 448,717.5C 450.194,712.171 454.027,708.838 459.5,707.5 Z M 458.5,713.5 C 472.277,710.944 478.277,716.61 476.5,730.5C 468.833,730.5 461.167,730.5 453.5,730.5C 453.335,726.818 453.501,723.152 454,719.5C 454.804,716.854 456.304,714.854 458.5,713.5 Z"/></g>
<g><path style="opacity:0.7" fill="#006f76" d="M 618.5,707.5 C 625.722,706.594 632.389,708.094 638.5,712C 641.854,715.204 643.687,719.037 644,723.5C 642.266,722.751 640.433,722.251 638.5,722C 633.37,713.831 626.037,711.164 616.5,714C 607.492,720.534 605.659,728.701 611,738.5C 622.051,747.512 631.551,746.012 639.5,734C 641.259,733.202 642.926,733.369 644.5,734.5C 641.244,743.982 634.577,749.482 624.5,751C 630.623,752.654 631.956,756.154 628.5,761.5C 625.167,762.833 621.833,762.833 618.5,761.5C 617.05,760.15 616.383,758.484 616.5,756.5C 619.5,757.167 622.5,757.833 625.5,758.5C 625.5,757.5 625.5,756.5 625.5,755.5C 623.801,755.66 622.134,755.494 620.5,755C 619.826,753.249 619.493,751.583 619.5,750C 602.765,744.026 597.931,732.86 605,716.5C 608.796,712.358 613.296,709.358 618.5,707.5 Z"/></g>
<g><path style="opacity:0.721" fill="#006f76" d="M 193.5,708.5 C 203.5,708.5 213.5,708.5 223.5,708.5C 223.5,710.167 223.5,711.833 223.5,713.5C 215.5,713.5 207.5,713.5 199.5,713.5C 199.5,717.5 199.5,721.5 199.5,725.5C 206.5,725.5 213.5,725.5 220.5,725.5C 220.5,727.5 220.5,729.5 220.5,731.5C 213.5,731.5 206.5,731.5 199.5,731.5C 199.5,735.5 199.5,739.5 199.5,743.5C 207.5,743.5 215.5,743.5 223.5,743.5C 223.5,745.5 223.5,747.5 223.5,749.5C 213.5,749.5 203.5,749.5 193.5,749.5C 193.5,735.833 193.5,722.167 193.5,708.5 Z"/></g>
<g><path style="opacity:0.688" fill="#006f76" d="M 251.5,716.5 C 265.097,715.768 272.097,722.102 272.5,735.5C 263.161,735.334 253.827,735.5 244.5,736C 247.396,743.448 252.73,746.115 260.5,744C 262.303,743.363 263.636,742.197 264.5,740.5C 272.644,737.362 273.644,739.196 267.5,746C 257.606,752.826 248.773,751.659 241,742.5C 236.037,730.314 239.537,721.648 251.5,716.5 Z M 251.5,722.5 C 258.674,720.873 263.674,723.373 266.5,730C 259.476,730.831 252.476,730.664 245.5,729.5C 246.833,726.507 248.833,724.173 251.5,722.5 Z"/></g>
<g><path style="opacity:0.674" fill="#006f76" d="M 344.5,716.5 C 356.102,715.625 361.435,720.959 360.5,732.5C 358.856,732.714 357.356,732.38 356,731.5C 355.021,722.924 350.521,720.424 342.5,724C 341.874,724.75 341.374,725.584 341,726.5C 340.5,734.159 340.334,741.826 340.5,749.5C 338.5,749.5 336.5,749.5 334.5,749.5C 334.13,741.097 334.63,732.764 336,724.5C 337.419,720.245 340.253,717.578 344.5,716.5 Z"/></g>
<g><path style="opacity:0.655" fill="#006f76" d="M 496.5,716.5 C 508.032,715.701 513.699,721.034 513.5,732.5C 511.533,732.739 509.699,732.406 508,731.5C 507.621,722.957 503.454,720.291 495.5,723.5C 494.194,724.912 493.36,726.579 493,728.5C 492.5,735.492 492.334,742.492 492.5,749.5C 490.5,749.5 488.5,749.5 486.5,749.5C 486.13,741.097 486.63,732.764 488,724.5C 489.73,720.57 492.564,717.903 496.5,716.5 Z"/></g>
<g><path style="opacity:0.705" fill="#006f76" d="M 527.5,716.5 C 536.755,715.376 543.255,719.042 547,727.5C 547.5,734.826 547.666,742.159 547.5,749.5C 545.833,749.5 544.167,749.5 542.5,749.5C 542.66,747.801 542.494,746.134 542,744.5C 537.426,750.402 531.592,751.902 524.5,749C 515.67,743.889 512.837,736.389 516,726.5C 518.566,721.645 522.399,718.311 527.5,716.5 Z M 526.5,722.5 C 538.489,721.323 543.322,726.656 541,738.5C 536.401,745.062 530.568,746.229 523.5,742C 518.762,734.498 519.762,727.998 526.5,722.5 Z"/></g>
<g><path style="opacity:0.677" fill="#006f76" d="M 563.5,716.5 C 574.439,715.48 581.105,720.147 583.5,730.5C 582.127,730.657 580.793,730.49 579.5,730C 575.363,722.57 569.363,720.57 561.5,724C 557.178,728.861 556.345,734.361 559,740.5C 562.743,744.259 567.243,745.426 572.5,744C 575.5,742.333 577.833,740 579.5,737C 580.793,736.51 582.127,736.343 583.5,736.5C 582.15,744.884 577.15,749.717 568.5,751C 574.79,752.522 576.123,756.022 572.5,761.5C 569.167,762.833 565.833,762.833 562.5,761.5C 560.995,760.158 560.328,758.492 560.5,756.5C 563.5,757.167 566.5,757.833 569.5,758.5C 569.5,757.5 569.5,756.5 569.5,755.5C 567.801,755.66 566.134,755.494 564.5,755C 563.167,753.667 563.167,752.333 564.5,751C 553.648,746.8 549.482,738.966 552,727.5C 554.437,722.226 558.271,718.56 563.5,716.5 Z"/></g>
<g><path style="opacity:0.682" fill="#006f76" d="M 659.5,716.5 C 669.288,715.477 676.122,719.477 680,728.5C 681.902,739.197 677.735,746.363 667.5,750C 653,750.833 646.167,744 647,729.5C 648.682,722.653 652.849,718.32 659.5,716.5 Z M 659.5,722.5 C 671.658,722.154 676.158,727.82 673,739.5C 666.62,746.157 660.287,746.157 654,739.5C 651.164,732.178 652.997,726.511 659.5,722.5 Z"/></g>
<g><path style="opacity:0.669" fill="#006f76" d="M 759.5,716.5 C 765.421,715.877 770.254,717.877 774,722.5C 779.057,716.127 785.223,714.96 792.5,719C 794.43,721.258 795.93,723.758 797,726.5C 797.5,734.159 797.666,741.826 797.5,749.5C 795.5,749.5 793.5,749.5 791.5,749.5C 791.666,742.159 791.5,734.826 791,727.5C 788.975,722.855 785.475,721.355 780.5,723C 778.513,724.319 777.346,726.152 777,728.5C 776.5,735.492 776.334,742.492 776.5,749.5C 774.5,749.5 772.5,749.5 770.5,749.5C 770.666,741.826 770.5,734.159 770,726.5C 767.487,722.788 763.987,721.622 759.5,723C 758.299,723.903 757.465,725.069 757,726.5C 756.5,734.159 756.334,741.826 756.5,749.5C 754.5,749.5 752.5,749.5 750.5,749.5C 750.086,740.418 750.586,731.418 752,722.5C 754.114,719.879 756.614,717.879 759.5,716.5 Z"/></g>
<g><path style="opacity:0.704" fill="#006f76" d="M 825.5,716.5 C 838.8,716.138 845.467,722.471 845.5,735.5C 836.475,735.168 827.475,735.502 818.5,736.5C 821.022,743.761 826.022,746.261 833.5,744C 835.455,743.047 837.122,741.713 838.5,740C 840.433,739.749 842.266,739.249 844,738.5C 844.387,742.165 842.887,744.998 839.5,747C 827.703,753.178 818.87,750.345 813,738.5C 811.259,727.634 815.426,720.3 825.5,716.5 Z M 824.5,722.5 C 831.486,720.829 836.486,723.162 839.5,729.5C 832.524,730.664 825.524,730.831 818.5,730C 819.69,726.75 821.69,724.25 824.5,722.5 Z"/></g>
<g><path style="opacity:0.653" fill="#006f76" d="M 858.5,716.5 C 870.013,715.681 875.68,721.014 875.5,732.5C 873.801,732.66 872.134,732.494 870.5,732C 869.444,723.136 864.777,720.47 856.5,724C 855.809,725.067 855.309,726.234 855,727.5C 854.5,734.826 854.334,742.159 854.5,749.5C 852.5,749.5 850.5,749.5 848.5,749.5C 848.334,741.826 848.5,734.159 849,726.5C 850.35,721.319 853.517,717.986 858.5,716.5 Z"/></g>
<g><path style="opacity:0.645" fill="#006f76" d="M 364.5,717.5 C 366.5,717.5 368.5,717.5 370.5,717.5C 370.5,728.167 370.5,738.833 370.5,749.5C 368.5,749.5 366.5,749.5 364.5,749.5C 364.5,738.833 364.5,728.167 364.5,717.5 Z"/></g>
<g><path style="opacity:0.644" fill="#006f76" d="M 419.5,717.5 C 421.5,717.5 423.5,717.5 425.5,717.5C 425.5,728.167 425.5,738.833 425.5,749.5C 423.5,749.5 421.5,749.5 419.5,749.5C 419.5,738.833 419.5,728.167 419.5,717.5 Z"/></g>
<g><path style="opacity:0.709" fill="#006f76" d="M 683.5,717.5 C 692.5,717.5 701.5,717.5 710.5,717.5C 710.856,720.564 710.023,723.231 708,725.5C 701.801,731.364 695.968,737.531 690.5,744C 697.492,744.5 704.492,744.666 711.5,744.5C 711.5,746.167 711.5,747.833 711.5,749.5C 701.833,749.5 692.167,749.5 682.5,749.5C 682.34,747.801 682.506,746.134 683,744.5C 689.5,737.333 696,730.167 702.5,723C 695.842,722.5 689.175,722.334 682.5,722.5C 682.366,720.708 682.699,719.042 683.5,717.5 Z"/></g>
<g><path style="opacity:0.711" fill="#006f76" d="M 715.5,717.5 C 717.5,717.5 719.5,717.5 721.5,717.5C 721.334,724.841 721.5,732.174 722,739.5C 723.664,743.084 726.497,744.751 730.5,744.5C 735.033,744.651 738.2,742.651 740,738.5C 740.5,731.508 740.666,724.508 740.5,717.5C 742.167,717.5 743.833,717.5 745.5,717.5C 745.666,725.174 745.5,732.841 745,740.5C 739.63,750.4 731.797,752.9 721.5,748C 719.622,746.457 718.122,744.624 717,742.5C 715.594,734.251 715.094,725.917 715.5,717.5 Z"/></g>
<g><path style="opacity:0.627" fill="#006f76" d="M 878.5,717.5 C 880.5,717.5 882.5,717.5 884.5,717.5C 884.5,728.167 884.5,738.833 884.5,749.5C 882.5,749.5 880.5,749.5 878.5,749.5C 878.5,738.833 878.5,728.167 878.5,717.5 Z"/></g>
</svg>
