<?xml version="1.0" encoding="UTF-8"?>
<!DOCTYPE svg PUBLIC "-//W3C//DTD SVG 1.1//EN" "http://www.w3.org/Graphics/SVG/1.1/DTD/svg11.dtd">
<svg xmlns="http://www.w3.org/2000/svg" version="1.1" width="48px" height="48px" style="shape-rendering:geometricPrecision; text-rendering:geometricPrecision; image-rendering:optimizeQuality; fill-rule:evenodd; clip-rule:evenodd" xmlns:xlink="http://www.w3.org/1999/xlink">
<g><path style="opacity:0.986" fill="#770d8f" d="M 16.5,-0.5 C 21.1667,-0.5 25.8333,-0.5 30.5,-0.5C 38.5,2.83333 44.1667,8.5 47.5,16.5C 47.5,21.1667 47.5,25.8333 47.5,30.5C 44.1667,38.5 38.5,44.1667 30.5,47.5C 25.8333,47.5 21.1667,47.5 16.5,47.5C 8.5,44.1667 2.83333,38.5 -0.5,30.5C -0.5,25.8333 -0.5,21.1667 -0.5,16.5C 2.83333,8.5 8.5,2.83333 16.5,-0.5 Z"/></g>
<g><path style="opacity:1" fill="#f8f2f9" d="M 33.5,32.5 C 30.2707,29.7183 26.604,27.7183 22.5,26.5C 22.735,29.8119 21.735,30.6453 19.5,29C 19.7519,26.1911 21.0852,24.1911 23.5,23C 20.5471,23.3802 17.5471,23.3802 14.5,23C 14.8333,23.3333 15.1667,23.6667 15.5,24C 14.0268,26.4476 12.6935,28.9476 11.5,31.5C 11.6309,32.3764 11.2975,33.0431 10.5,33.5C 5.21767,31.9343 4.21767,28.9343 7.5,24.5C 6.73659,23.2807 5.73659,22.2807 4.5,21.5C 8.5,18.1667 8.5,14.8333 4.5,11.5C 5.32496,10.6143 6.32496,10.281 7.5,10.5C 7.5,9.5 7.5,8.5 7.5,7.5C 8.5,7.5 9.5,7.5 10.5,7.5C 10.5,6.5 10.5,5.5 10.5,4.5C 11.5,4.5 12.5,4.5 13.5,4.5C 13.5,5.5 13.5,6.5 13.5,7.5C 14.5,7.5 15.5,7.5 16.5,7.5C 16.5,8.5 16.5,9.5 16.5,10.5C 17.675,10.281 18.675,10.6143 19.5,11.5C 17.703,12.6951 16.703,14.3618 16.5,16.5C 18.1998,16.3739 19.6998,15.7073 21,14.5C 22.3002,15.7073 23.8002,16.3739 25.5,16.5C 26.8011,18.6719 27.8011,21.0052 28.5,23.5C 30.6348,23.853 31.9681,23.0197 32.5,21C 31.2927,19.6998 30.6261,18.1998 30.5,16.5C 32.1998,16.3739 33.6998,15.7073 35,14.5C 36.3002,15.7073 37.8002,16.3739 39.5,16.5C 39.6261,18.1998 40.2927,19.6998 41.5,21C 39.0174,24.1217 39.0174,27.2883 41.5,30.5C 39.3964,33.4235 36.7297,34.0901 33.5,32.5 Z"/></g>
<g><path style="opacity:1" fill="#f1e5f3" d="M 33.5,32.5 C 33.4506,35.0991 32.4506,37.2658 30.5,39C 25.6639,41.4642 20.9973,41.4642 16.5,39C 14.8542,37.4452 14.5209,35.7785 15.5,34C 14.3066,32.9054 12.9733,32.072 11.5,31.5C 12.6935,28.9476 14.0268,26.4476 15.5,24C 15.1667,23.6667 14.8333,23.3333 14.5,23C 17.5471,23.3802 20.5471,23.3802 23.5,23C 21.0852,24.1911 19.7519,26.1911 19.5,29C 21.735,30.6453 22.735,29.8119 22.5,26.5C 26.604,27.7183 30.2707,29.7183 33.5,32.5 Z"/></g>
</svg>
