<?xml version="1.0" encoding="UTF-8"?>
<!DOCTYPE svg PUBLIC "-//W3C//DTD SVG 1.1//EN" "http://www.w3.org/Graphics/SVG/1.1/DTD/svg11.dtd">
<svg xmlns="http://www.w3.org/2000/svg" version="1.1" width="60px" height="60px" style="shape-rendering:geometricPrecision; text-rendering:geometricPrecision; image-rendering:optimizeQuality; fill-rule:evenodd; clip-rule:evenodd" xmlns:xlink="http://www.w3.org/1999/xlink">
<g><path style="opacity:0.963" fill="#252422" d="M 37.5,-0.5 C 39.5,-0.5 41.5,-0.5 43.5,-0.5C 44.2186,1.76375 44.552,4.09709 44.5,6.5C 43.7677,5.19174 42.9344,3.85841 42,2.5C 40.6897,3.89689 39.1897,4.89689 37.5,5.5C 34.9814,3.64093 34.9814,1.64093 37.5,-0.5 Z"/></g>
<g><path style="opacity:0.946" fill="#222020" d="M 29.5,10.5 C 28.609,9.89022 27.609,9.55688 26.5,9.5C 29.7614,5.16176 29.0948,3.99509 24.5,6C 23.2721,7.49022 23.2721,8.99022 24.5,10.5C 22.7085,10.366 21.0418,10.6993 19.5,11.5C 19.8891,8.05397 20.7225,4.72064 22,1.5C 24.3333,0.166667 26.6667,0.166667 29,1.5C 29.498,4.48162 29.6646,7.48162 29.5,10.5 Z"/></g>
<g><path style="opacity:1" fill="#d6bdaf" d="M 44.5,6.5 C 44.5,7.16667 44.5,7.83333 44.5,8.5C 43.5,8.5 42.5,8.5 41.5,8.5C 40.8333,8.5 40.1667,8.5 39.5,8.5C 38.0937,8.02694 37.427,7.02694 37.5,5.5C 39.1897,4.89689 40.6897,3.89689 42,2.5C 42.9344,3.85841 43.7677,5.19174 44.5,6.5 Z"/></g>
<g><path style="opacity:1" fill="#e0c6b6" d="M 26.5,9.5 C 25.8333,9.83333 25.1667,10.1667 24.5,10.5C 23.2721,8.99022 23.2721,7.49022 24.5,6C 29.0948,3.99509 29.7614,5.16176 26.5,9.5 Z"/></g>
<g><path style="opacity:1" fill="#6d0982" d="M 26.5,9.5 C 27.609,9.55688 28.609,9.89022 29.5,10.5C 30.2223,11.5511 31.2223,12.2178 32.5,12.5C 33.1667,13.1667 33.8333,13.8333 34.5,14.5C 32.8235,15.1834 32.1568,16.5168 32.5,18.5C 32.2178,19.7777 31.5511,20.7777 30.5,21.5C 30.631,22.2389 30.4643,22.9056 30,23.5C 29.2747,21.842 28.108,21.342 26.5,22C 25.5,23 24.5,24 23.5,25C 24.1667,25.3333 24.8333,25.6667 25.5,26C 23.6813,26.7403 22.3479,27.9069 21.5,29.5C 21.5,30.1667 21.5,30.8333 21.5,31.5C 20.1667,31.5 18.8333,31.5 17.5,31.5C 17.4431,30.391 17.1098,29.391 16.5,28.5C 18.2624,27.7377 19.2624,26.4044 19.5,24.5C 18.2079,20.4637 18.2079,16.1304 19.5,11.5C 21.0418,10.6993 22.7085,10.366 24.5,10.5C 25.1667,10.1667 25.8333,9.83333 26.5,9.5 Z"/></g>
<g><path style="opacity:1" fill="#e0c5b6" d="M 16.5,15.5 C 16.6716,16.4916 16.3382,17.1583 15.5,17.5C 14.8333,17.5 14.5,17.8333 14.5,18.5C 13.5,18.5 12.5,18.5 11.5,18.5C 10.5975,14.7122 12.2642,12.7122 16.5,12.5C 16.5,13.5 16.5,14.5 16.5,15.5 Z"/></g>
<g><path style="opacity:0.22" fill="#250b2b" d="M 32.5,12.5 C 33.675,12.281 34.675,12.6143 35.5,13.5C 35.3764,14.1067 35.0431,14.44 34.5,14.5C 33.8333,13.8333 33.1667,13.1667 32.5,12.5 Z"/></g>
<g><path style="opacity:1" fill="#bb93a2" d="M 26.5,15.5 C 30.3389,16.05 30.3389,17.05 26.5,18.5C 25.4376,17.5754 25.4376,16.5754 26.5,15.5 Z"/></g>
<g><path style="opacity:0.533" fill="#8c7378" d="M 34.5,14.5 C 34.7709,16.3797 34.1042,17.713 32.5,18.5C 32.1568,16.5168 32.8235,15.1834 34.5,14.5 Z"/></g>
<g><path style="opacity:0.963" fill="#212020" d="M 16.5,15.5 C 16.5,14.5 16.5,13.5 16.5,12.5C 12.2642,12.7122 10.5975,14.7122 11.5,18.5C 12.4964,23.4626 12.6631,28.4626 12,33.5C 9.04684,34.3238 6.54684,35.6572 4.5,37.5C 4.57229,33.0582 4.57229,28.5582 4.5,24C 4.83333,22.5 5.16667,21 5.5,19.5C 7.0534,18.561 8.38674,17.3943 9.5,16C 7.5489,10.2843 9.5489,7.95096 15.5,9C 17.6082,11.0164 17.9416,13.1831 16.5,15.5 Z"/></g>
<g><path style="opacity:1" fill="#680d7b" d="M 44.5,6.5 C 52.2374,7.40459 55.7374,11.7379 55,19.5C 54.3109,20.3567 53.4776,21.0233 52.5,21.5C 51.5041,27.4632 51.1707,33.4632 51.5,39.5C 50.7798,35.2703 50.1132,30.937 49.5,26.5C 47.0929,22.399 43.9263,22.399 40,26.5C 39.51,25.2068 39.3433,23.8734 39.5,22.5C 40.4778,22.189 41.1445,21.5223 41.5,20.5C 40.3864,19.2241 39.3864,19.2241 38.5,20.5C 37.7777,21.5511 36.7777,22.2178 35.5,22.5C 35.5,22.1667 35.5,21.8333 35.5,21.5C 36.1495,19.5648 36.4828,17.5648 36.5,15.5C 36.6878,12.7939 37.6878,10.4605 39.5,8.5C 40.1667,8.5 40.8333,8.5 41.5,8.5C 41.5,11.1667 41.5,13.8333 41.5,16.5C 43.6188,16.4677 44.9522,17.4677 45.5,19.5C 44.6202,20.5313 45.1202,21.198 47,21.5C 48.0299,21.1639 48.5299,20.4972 48.5,19.5C 46.4164,16.2046 45.083,12.5379 44.5,8.5C 44.5,7.83333 44.5,7.16667 44.5,6.5 Z"/></g>
<g><path style="opacity:0.991" fill="#2f262d" d="M 41.5,8.5 C 42.5,8.5 43.5,8.5 44.5,8.5C 45.083,12.5379 46.4164,16.2046 48.5,19.5C 47.5,19.5 46.5,19.5 45.5,19.5C 44.9522,17.4677 43.6188,16.4677 41.5,16.5C 41.5,13.8333 41.5,11.1667 41.5,8.5 Z"/></g>
<g><path style="opacity:0.976" fill="#201e1f" d="M 15.5,17.5 C 17.5776,19.3904 18.9109,21.7238 19.5,24.5C 19.2624,26.4044 18.2624,27.7377 16.5,28.5C 15.8333,28.5 15.1667,28.5 14.5,28.5C 14.5,25.1667 14.5,21.8333 14.5,18.5C 14.5,17.8333 14.8333,17.5 15.5,17.5 Z"/></g>
<g><path style="opacity:0.918" fill="#3a1242" d="M 36.5,15.5 C 36.4828,17.5648 36.1495,19.5648 35.5,21.5C 34.5155,19.4021 34.8489,17.4021 36.5,15.5 Z"/></g>
<g><path style="opacity:1" fill="#c7a3a8" d="M 39.5,22.5 C 38.6618,22.1583 38.3284,21.4916 38.5,20.5C 39.3864,19.2241 40.3864,19.2241 41.5,20.5C 41.1445,21.5223 40.4778,22.189 39.5,22.5 Z"/></g>
<g><path style="opacity:1" fill="#f6d7c8" d="M 45.5,19.5 C 46.5,19.5 47.5,19.5 48.5,19.5C 48.5299,20.4972 48.0299,21.1639 47,21.5C 45.1202,21.198 44.6202,20.5313 45.5,19.5 Z"/></g>
<g><path style="opacity:0.987" fill="#242223" d="M 30.5,21.5 C 32.3443,27.9109 33.3443,34.5776 33.5,41.5C 31.0882,41.6941 30.0882,43.0274 30.5,45.5C 29.8485,44.9094 29.1818,44.2427 28.5,43.5C 27.52,46.0865 27.1866,48.7531 27.5,51.5C 26.5269,49.0521 26.1936,46.3854 26.5,43.5C 25.5,43.5 24.5,43.5 23.5,43.5C 23.6602,41.8008 23.4935,40.1341 23,38.5C 21.4815,37.8366 20.3149,36.8366 19.5,35.5C 20.8847,34.6977 20.718,34.0311 19,33.5C 18.2352,33.5699 17.7352,33.9033 17.5,34.5C 16.5,34.5 15.5,34.5 14.5,34.5C 14.5,33.5 14.5,32.5 14.5,31.5C 15.5,31.5 16.5,31.5 17.5,31.5C 18.8333,31.5 20.1667,31.5 21.5,31.5C 24.1867,29.6061 24.1867,28.9394 21.5,29.5C 22.3479,27.9069 23.6813,26.7403 25.5,26C 24.8333,25.6667 24.1667,25.3333 23.5,25C 24.5,24 25.5,23 26.5,22C 28.108,21.342 29.2747,21.842 30,23.5C 30.4643,22.9056 30.631,22.2389 30.5,21.5 Z"/></g>
<g><path style="opacity:0.894" fill="#2c1a2e" d="M 38.5,20.5 C 38.3284,21.4916 38.6618,22.1583 39.5,22.5C 39.3433,23.8734 39.51,25.2068 40,26.5C 43.9263,22.399 47.0929,22.399 49.5,26.5C 46.5448,27.1587 43.5448,27.4921 40.5,27.5C 40.5,29.5 40.5,31.5 40.5,33.5C 39.4192,30.3733 38.7526,27.0399 38.5,23.5C 37.209,23.7373 36.209,23.404 35.5,22.5C 36.7777,22.2178 37.7777,21.5511 38.5,20.5 Z"/></g>
<g><path style="opacity:1" fill="#6e0983" d="M 49.5,26.5 C 50.1132,30.937 50.7798,35.2703 51.5,39.5C 52.4665,41.7918 53.1331,44.2918 53.5,47C 53.6134,48.6991 52.9468,49.8658 51.5,50.5C 50.5,50.5 49.5,50.5 48.5,50.5C 47.5489,49.0813 47.2155,47.4147 47.5,45.5C 47.313,43.4357 46.813,41.4357 46,39.5C 45.502,42.4816 45.3354,45.4816 45.5,48.5C 43.8007,48.4729 42.4674,47.8062 41.5,46.5C 40.5151,42.3656 40.1818,38.0323 40.5,33.5C 40.5,31.5 40.5,29.5 40.5,27.5C 43.5448,27.4921 46.5448,27.1587 49.5,26.5 Z"/></g>
<g><path style="opacity:0.933" fill="#9b8781" d="M 21.5,31.5 C 21.5,30.8333 21.5,30.1667 21.5,29.5C 24.1867,28.9394 24.1867,29.6061 21.5,31.5 Z"/></g>
<g><path style="opacity:1" fill="#af9294" d="M 14.5,28.5 C 15.1667,28.5 15.8333,28.5 16.5,28.5C 17.1098,29.391 17.4431,30.391 17.5,31.5C 16.5,31.5 15.5,31.5 14.5,31.5C 13.375,30.6522 13.375,29.6522 14.5,28.5 Z"/></g>
<g><path style="opacity:1" fill="#6d0983" d="M 11.5,18.5 C 12.5,18.5 13.5,18.5 14.5,18.5C 14.5,21.8333 14.5,25.1667 14.5,28.5C 13.375,29.6522 13.375,30.6522 14.5,31.5C 14.5,32.5 14.5,33.5 14.5,34.5C 15.5,34.5 16.5,34.5 17.5,34.5C 18.4916,34.3284 19.1583,34.6618 19.5,35.5C 20.3149,36.8366 21.4815,37.8366 23,38.5C 23.4935,40.1341 23.6602,41.8008 23.5,43.5C 22.596,44.209 22.2627,45.209 22.5,46.5C 21.8829,48.6802 20.8829,50.6802 19.5,52.5C 22.4127,54.901 22.0794,56.2343 18.5,56.5C 16.7215,55.3303 15.7215,53.6636 15.5,51.5C 16.552,51.6495 17.552,51.4828 18.5,51C 17.4844,50.4806 16.8178,49.6473 16.5,48.5C 16.9672,46.4317 17.6339,44.4317 18.5,42.5C 17.7579,41.7132 16.9246,41.0465 16,40.5C 15.6049,43.2066 15.1049,45.8733 14.5,48.5C 14.5,49.5 14.5,50.5 14.5,51.5C 14.1667,51.5 13.8333,51.5 13.5,51.5C 12.5,51.5 11.5,51.5 10.5,51.5C 10.8769,48.4752 11.0435,45.4752 11,42.5C 10.3292,41.7476 9.4959,41.4142 8.5,41.5C 7.73769,39.7376 6.40435,38.7376 4.5,38.5C 4.5,38.1667 4.5,37.8333 4.5,37.5C 6.54684,35.6572 9.04684,34.3238 12,33.5C 12.6631,28.4626 12.4964,23.4626 11.5,18.5 Z"/></g>
<g><path style="opacity:0.844" fill="#1d1c1c" d="M 4.5,38.5 C 6.40435,38.7376 7.73769,39.7376 8.5,41.5C 7.77842,41.9175 7.27842,42.5842 7,43.5C 6.50137,47.1516 6.3347,50.8183 6.5,54.5C 7.5,54.5 8.5,54.5 9.5,54.5C 9.5,55.1667 9.83333,55.5 10.5,55.5C 10.5,55.8333 10.5,56.1667 10.5,56.5C 8.83333,56.5 7.16667,56.5 5.5,56.5C 5.5,57.5 5.5,58.5 5.5,59.5C 4.83333,59.5 4.16667,59.5 3.5,59.5C 3.57816,52.485 3.91149,45.485 4.5,38.5 Z"/></g>
<g><path style="opacity:1" fill="#b6a095" d="M 33.5,41.5 C 34.3993,46.0703 36.0659,50.4036 38.5,54.5C 38.5,54.8333 38.5,55.1667 38.5,55.5C 36.6776,55.1692 35.0109,54.5025 33.5,53.5C 32.5014,50.8382 31.5014,48.1716 30.5,45.5C 30.0882,43.0274 31.0882,41.6941 33.5,41.5 Z"/></g>
<g><path style="opacity:0.82" fill="#4d2252" d="M 8.5,41.5 C 9.4959,41.4142 10.3292,41.7476 11,42.5C 11.0435,45.4752 10.8769,48.4752 10.5,51.5C 11.5,51.5 12.5,51.5 13.5,51.5C 13.5,52.1667 13.5,52.8333 13.5,53.5C 11.8212,53.2852 10.8212,53.9519 10.5,55.5C 9.83333,55.5 9.5,55.1667 9.5,54.5C 9.24933,51.091 9.58266,47.7577 10.5,44.5C 9.80749,43.4822 9.14083,42.4822 8.5,41.5 Z"/></g>
<g><path style="opacity:1" fill="#cab1a5" d="M 23.5,43.5 C 24.5,43.5 25.5,43.5 26.5,43.5C 26.1936,46.3854 26.5269,49.0521 27.5,51.5C 27.5,52.1667 27.5,52.8333 27.5,53.5C 27.1959,55.7957 26.1959,56.129 24.5,54.5C 24.1977,51.6275 23.531,48.9608 22.5,46.5C 22.2627,45.209 22.596,44.209 23.5,43.5 Z"/></g>
<g><path style="opacity:0.997" fill="#2f262e" d="M 15.5,51.5 C 15.7373,50.209 15.404,49.209 14.5,48.5C 15.1049,45.8733 15.6049,43.2066 16,40.5C 16.9246,41.0465 17.7579,41.7132 18.5,42.5C 17.6339,44.4317 16.9672,46.4317 16.5,48.5C 16.8178,49.6473 17.4844,50.4806 18.5,51C 17.552,51.4828 16.552,51.6495 15.5,51.5 Z"/></g>
<g><path style="opacity:0.961" fill="#52115f" d="M 47.5,45.5 C 46.8333,46.8333 46.1667,48.1667 45.5,49.5C 44.8333,49.5 44.1667,49.5 43.5,49.5C 43.1667,49.5 42.8333,49.5 42.5,49.5C 41.596,48.791 41.2627,47.791 41.5,46.5C 42.4674,47.8062 43.8007,48.4729 45.5,48.5C 45.3354,45.4816 45.502,42.4816 46,39.5C 46.813,41.4357 47.313,43.4357 47.5,45.5 Z"/></g>
<g><path style="opacity:0.875" fill="#b19e92" d="M 43.5,49.5 C 44.1667,49.5 44.8333,49.5 45.5,49.5C 45.5,50.1667 45.5,50.8333 45.5,51.5C 44.1667,51.5 43.5,50.8333 43.5,49.5 Z"/></g>
<g><path style="opacity:0.968" fill="#1d1c1b" d="M 42.5,49.5 C 42.8333,49.5 43.1667,49.5 43.5,49.5C 43.5,50.8333 44.1667,51.5 45.5,51.5C 46.0431,51.56 46.3764,51.8933 46.5,52.5C 45.0623,55.9932 42.729,56.9932 39.5,55.5C 39.1667,55.5 38.8333,55.5 38.5,55.5C 38.5,55.1667 38.5,54.8333 38.5,54.5C 40.5869,53.4154 41.9202,51.7488 42.5,49.5 Z"/></g>
<g><path style="opacity:0.965" fill="#9d8a82" d="M 48.5,50.5 C 49.5,50.5 50.5,50.5 51.5,50.5C 51.5,50.8333 51.5,51.1667 51.5,51.5C 51.5912,53.6977 50.9245,54.0311 49.5,52.5C 49.1667,51.8333 48.8333,51.1667 48.5,50.5 Z"/></g>
<g><path style="opacity:1" fill="#660b79" d="M 13.5,53.5 C 13.5,54.1667 13.8333,54.5 14.5,54.5C 14.5,55.5 14.5,56.5 14.5,57.5C 13.0413,57.5674 11.7079,57.2341 10.5,56.5C 10.5,56.1667 10.5,55.8333 10.5,55.5C 10.8212,53.9519 11.8212,53.2852 13.5,53.5 Z"/></g>
<g><path style="opacity:0.885" fill="#1c1c1b" d="M 51.5,51.5 C 53.2372,55.3383 51.9039,57.3383 47.5,57.5C 47.1201,55.302 47.7868,53.6354 49.5,52.5C 50.9245,54.0311 51.5912,53.6977 51.5,51.5 Z"/></g>
<g><path style="opacity:0.975" fill="#1f1a1f" d="M 14.5,51.5 C 14.8333,51.5 15.1667,51.5 15.5,51.5C 15.7215,53.6636 16.7215,55.3303 18.5,56.5C 18.5,57.5 18.5,58.5 18.5,59.5C 17.5,59.5 16.5,59.5 15.5,59.5C 15.6716,58.5084 15.3382,57.8417 14.5,57.5C 14.5,56.5 14.5,55.5 14.5,54.5C 14.5,53.5 14.5,52.5 14.5,51.5 Z"/></g>
<g><path style="opacity:1" fill="#4b1654" d="M 33.5,53.5 C 35.0109,54.5025 36.6776,55.1692 38.5,55.5C 38.8333,55.5 39.1667,55.5 39.5,55.5C 38.7961,57.3442 37.4628,57.8442 35.5,57C 34.0267,56.2904 33.3601,55.1238 33.5,53.5 Z"/></g>
<g><path style="opacity:0.871" fill="#4e115b" d="M 27.5,53.5 C 28.4345,54.5676 28.7678,55.901 28.5,57.5C 27.1667,57.5 25.8333,57.5 24.5,57.5C 24.5,56.5 24.5,55.5 24.5,54.5C 26.1959,56.129 27.1959,55.7957 27.5,53.5 Z"/></g>
</svg>
